<svg width="450" height="450" viewBox="0 0 450 450" fill="none" xmlns="http://www.w3.org/2000/svg">
<circle cx="225" cy="225" r="225" fill="white"/>
<path d="M85.165 305.677C87.6664 305.677 89.265 305.609 90.861 305.685C99.5477 306.081 108.321 305.854 116.881 307.116C126.078 308.46 127.957 314.824 122 321.889C120.946 323.137 119.785 324.317 118.574 325.428C112.834 330.676 106.35 335.538 101.241 341.42C99.8117 343.057 97.6864 346.318 99.053 348.546C101.484 352.488 105.301 345.549 106.656 343.84C107.82 342.376 109.062 340.989 110.257 339.552C113.241 335.961 116.21 332.366 119.234 328.81C120.918 326.841 122.609 324.878 124.337 322.948C126.342 320.697 129.217 319.038 131.989 317.752C133.793 316.905 136.621 317.561 137.209 319.644C137.861 321.965 136.354 323.776 134.858 325.352C132.708 327.609 130.472 329.786 128.298 332.02C127.536 332.814 123.286 336.226 125.498 337.317C126.626 337.872 128.513 336.901 129.245 336.018C134.285 329.932 139.432 323.932 144.102 317.561C149.55 310.144 143.873 303.836 145.324 296.038C146.929 287.426 146.292 286.202 137.348 285.274C132.55 284.776 127.744 284.436 122.025 283.95C128.396 272.798 154.721 227.33 154.856 227.302C154.81 227.173 224.98 106.049 224.98 106.049C224.98 106.049 247.113 144.42 250.646 150.04C255.68 158.064 256.444 165.393 249.662 172.9C247.998 174.745 247.656 177.789 246.713 180.284C247.253 180.606 247.802 180.936 248.346 181.264C249.788 180.324 251.334 179.504 252.66 178.417C255.225 176.306 257.696 172.274 261.286 175.27C264.826 178.221 262.145 181.992 260.228 185.005C258.648 187.484 256.809 189.88 254.696 191.902C249.353 197.008 243.764 201.85 238.321 206.852C236.516 208.51 234.658 210.18 233.205 212.128C232.574 212.956 232.916 214.506 232.817 215.726C234.056 215.718 235.51 216.108 236.478 215.597C238.026 214.76 239.416 213.465 240.604 212.128C250.34 201.237 260.036 190.31 269.689 179.346C271.518 177.277 272.996 175.089 274.106 172.822C281.934 162.424 273.241 146.742 273.241 146.742L262.758 127.47C262.51 127.512 224.96 63.8023 224.96 63.8023C224.96 63.8023 105.281 270.628 97.3957 284.204C93.3877 291.093 89.4984 298.057 85.165 305.677Z" fill="#EE2E65"/>
<path d="M89.1312 304.842C89.7472 304.842 90.3245 304.85 90.8992 304.876C93.4592 304.993 96.0272 305.056 98.5965 305.118C104.655 305.266 110.92 305.424 116.999 306.318C121.574 306.985 124.7 308.948 125.796 311.841C126.943 314.866 125.815 318.617 122.616 322.409C121.61 323.601 120.434 324.818 119.12 326.024C117.288 327.7 115.38 329.333 113.466 330.976C109.45 334.42 105.296 337.982 101.85 341.948C100.254 343.78 98.7432 346.5 99.7405 348.122C100.239 348.933 100.644 348.933 100.778 348.933C102.14 348.933 104.195 345.95 105.183 344.516C105.516 344.033 105.8 343.62 106.023 343.338C106.744 342.433 107.492 341.556 108.243 340.677C108.711 340.134 109.178 339.589 109.636 339.034L111.358 336.961C113.768 334.06 116.175 331.161 118.619 328.284C120.307 326.312 122.003 324.346 123.736 322.409C125.491 320.437 128.08 318.674 131.647 317.018C132.254 316.736 132.962 316.585 133.696 316.585C135.432 316.585 137.432 317.464 137.986 319.426C138.746 322.133 137.072 324.189 135.444 325.908C134.187 327.228 132.9 328.522 131.615 329.812C130.698 330.732 129.782 331.653 128.878 332.585C128.764 332.701 128.572 332.88 128.335 333.098C126.495 334.804 125.602 335.926 125.676 336.441C125.684 336.498 125.779 336.554 125.855 336.592C126.464 336.901 128.07 336.17 128.623 335.504L131.459 332.094C135.494 327.252 139.668 322.246 143.451 317.085C146.538 312.88 145.802 309.005 145.024 304.898C144.484 302.06 143.928 299.124 144.53 295.89C145.299 291.756 145.523 289.434 144.61 288.21C143.682 286.969 141.214 286.485 137.263 286.08C133.959 285.736 130.65 285.468 127.04 285.174L120.698 284.648L121.324 283.549C121.628 283.017 149.89 233.597 154.164 227.192C154.963 225.3 162.464 212.352 224.28 105.644L224.982 104.434L225.679 105.645C225.9 106.029 247.846 144.066 251.328 149.612C257.05 158.729 256.711 166.302 250.262 173.44C249.244 174.568 248.766 176.261 248.256 178.053C248.078 178.688 247.899 179.32 247.694 179.932L248.332 180.314C248.654 180.113 248.975 179.914 249.298 179.716C250.316 179.092 251.279 178.504 252.146 177.792C252.64 177.386 253.128 176.906 253.623 176.422C255.146 174.934 256.718 173.394 258.743 173.394C259.776 173.394 260.804 173.817 261.804 174.652C265.727 177.92 263.098 182.024 261.178 185.018L260.908 185.438C259.132 188.224 257.231 190.593 255.254 192.485C251.905 195.688 248.406 198.833 245.02 201.874C242.964 203.724 240.904 205.576 238.866 207.446L238.556 207.734C236.895 209.258 235.178 210.836 233.851 212.61C233.586 212.961 233.61 213.78 233.63 214.5C233.635 214.653 233.638 214.805 233.642 214.954C233.786 214.966 233.928 214.978 234.071 214.989C234.884 215.06 235.71 215.089 236.102 214.882C237.362 214.202 238.639 213.124 239.999 211.592C249.63 200.822 259.414 189.792 269.083 178.813C270.85 176.813 272.296 174.68 273.379 172.469C280.878 162.481 272.62 147.285 272.535 147.132L262.048 127.857L262.159 127.797C260.642 125.833 254.715 115.873 224.967 65.4023C215.158 82.3543 105.576 271.725 98.0952 284.609C95.3458 289.333 92.6525 294.093 89.8338 299.073L86.5552 304.865C86.8912 304.862 87.2098 304.857 87.5152 304.854L89.1312 304.842ZM100.778 350.548C100.122 350.548 99.1685 350.274 98.3645 348.969C96.5352 345.984 99.6365 342.03 100.631 340.888C104.155 336.836 108.354 333.233 112.416 329.749C114.316 328.118 116.211 326.493 118.031 324.832C119.292 323.674 120.422 322.51 121.383 321.369C124.186 318.044 125.216 314.866 124.287 312.412C123.407 310.093 120.735 308.493 116.764 307.913C110.782 307.034 104.566 306.882 98.5565 306.734C95.9765 306.67 93.3965 306.608 90.8245 306.49C90.2712 306.462 89.7205 306.456 89.1312 306.456L87.5325 306.47C86.8298 306.476 86.0552 306.484 85.1645 306.484H83.7778L88.4298 298.278C91.2498 293.292 93.9458 288.528 96.6978 283.796C104.492 270.378 223.064 65.4664 224.262 63.3984L224.954 62.201L225.656 63.3917C237.824 84.0384 260.679 122.729 263.179 126.66H263.235L273.951 146.354C274.311 147.008 282.8 162.612 274.75 173.31C273.683 175.521 272.156 177.776 270.296 179.881C260.623 190.862 250.838 201.894 241.206 212.666C239.719 214.34 238.298 215.53 236.864 216.308C236.135 216.693 235.084 216.697 233.93 216.598C233.57 216.568 233.207 216.536 232.86 216.536H231.987L232.012 215.662C232.039 215.312 232.027 214.929 232.015 214.546C231.986 213.509 231.955 212.436 232.563 211.638C233.972 209.748 235.747 208.118 237.463 206.541L237.774 206.258C239.818 204.381 241.878 202.526 243.94 200.674C247.316 197.64 250.806 194.502 254.138 191.317C256.022 189.516 257.843 187.245 259.546 184.57L259.818 184.146C262.031 180.693 263.396 178.078 260.77 175.89C260.059 175.298 259.395 175.01 258.743 175.01C257.379 175.01 256.043 176.314 254.752 177.577C254.223 178.096 253.699 178.606 253.17 179.041C252.216 179.822 251.16 180.469 250.142 181.093C249.687 181.372 249.234 181.65 248.788 181.94L248.364 182.216L245.72 180.628L245.958 179.997C246.244 179.237 246.472 178.425 246.703 177.613C247.238 175.721 247.792 173.766 249.063 172.358C255.035 165.749 255.312 158.997 249.962 150.469C246.816 145.466 228.771 114.233 224.978 107.661C217.86 119.949 159.195 221.224 155.734 227.377L155.912 227.901L155.354 228.021C153.166 231.636 130.28 271.161 123.356 283.25L127.171 283.566C130.794 283.858 134.115 284.128 137.431 284.47C142.032 284.95 144.607 285.509 145.904 287.246C147.183 288.958 146.992 291.49 146.116 296.188C145.571 299.121 146.099 301.905 146.61 304.598C147.419 308.864 148.255 313.272 144.754 318.041C140.94 323.238 136.751 328.265 132.698 333.129L129.866 336.533C128.931 337.661 126.542 338.721 125.14 338.042C124.371 337.661 124.138 337.088 124.078 336.674C123.86 335.182 125.52 333.504 127.238 331.916C127.446 331.724 127.614 331.565 127.716 331.461C128.63 330.521 129.55 329.597 130.47 328.673C131.747 327.389 133.024 326.105 134.274 324.794C135.714 323.276 136.964 321.753 136.431 319.862C135.964 318.204 133.619 317.876 132.331 318.482C128.964 320.044 126.547 321.68 124.939 323.485C123.214 325.412 121.528 327.37 119.848 329.333C117.41 332.202 115.006 335.097 112.602 337.993L110.879 340.068C110.414 340.626 109.943 341.178 109.471 341.728C108.734 342.592 107.996 343.452 107.288 344.341C107.083 344.6 106.822 344.984 106.512 345.429C104.656 348.126 102.822 350.548 100.778 350.548" fill="#EE2E65"/>
<path d="M234.429 214.21C235.101 214.267 235.671 214.198 235.726 214.166C236.889 213.54 238.094 212.519 239.399 211.055C244.063 205.838 248.722 200.607 253.369 195.371C250.797 197.766 248.186 200.112 245.574 202.459C243.515 204.312 241.455 206.167 239.415 208.042L239.102 208.328C237.469 209.826 235.778 211.378 234.498 213.094C234.422 213.251 234.422 213.782 234.429 214.21ZM133.698 315.776C136.149 315.776 138.186 317.158 138.763 319.208C139.015 320.11 139.031 320.956 138.89 321.738C140.226 320.04 141.533 318.332 142.799 316.603C145.679 312.684 145.009 309.146 144.233 305.046C143.677 302.131 143.11 299.124 143.734 295.742C144.431 292.015 144.693 289.668 143.965 288.694C143.217 287.69 140.814 287.255 137.179 286.876C133.913 286.542 130.638 286.278 127.074 285.987L119.367 285.344L120.622 283.148C145.917 238.874 151.997 228.814 153.731 226.466C155.807 222.234 166.99 202.932 223.578 105.238L224.979 102.819L226.377 105.242C226.597 105.623 248.539 143.651 252.015 149.182C257.957 158.651 257.591 166.528 250.861 173.979C249.971 174.968 249.517 176.571 249.038 178.268C248.962 178.532 248.886 178.803 248.807 179.07C248.83 179.056 248.854 179.042 248.879 179.024C249.87 178.419 250.811 177.847 251.629 177.17C252.11 176.78 252.579 176.312 253.055 175.847C254.621 174.319 256.393 172.588 258.745 172.588C259.969 172.588 261.171 173.071 262.322 174.028C266.794 177.756 263.703 182.575 261.854 185.459L261.59 185.875C261.414 186.152 261.237 186.424 261.054 186.695C263.533 183.891 266.007 181.088 268.478 178.28C270.201 176.332 271.605 174.255 272.654 172.115C279.934 162.398 271.91 147.672 271.829 147.523L261.339 128.239L261.527 128.139C259.315 125.26 252.469 113.659 224.973 67.0029C211.626 90.0656 106.177 272.299 98.79 285.015C96.0207 289.775 93.3087 294.571 90.47 299.59L87.9473 304.044L89.126 304.031C89.7567 304.031 90.3447 304.044 90.9327 304.07C93.4847 304.188 96.05 304.246 98.614 304.308C104.694 304.46 110.99 304.619 117.118 305.514C121.997 306.232 125.346 308.378 126.551 311.556C127.471 313.972 127.087 316.786 125.485 319.694C127.039 318.495 128.949 317.384 131.307 316.288C132.019 315.954 132.846 315.776 133.698 315.776V315.776ZM129.995 332.594C129.815 332.776 129.635 332.96 129.457 333.142C129.339 333.268 129.138 333.451 128.885 333.684C127.886 334.612 127.283 335.255 126.933 335.696C127.371 335.519 127.799 335.238 128.002 334.99L129.995 332.594ZM116.855 329.119C115.909 329.944 114.951 330.764 113.993 331.584C109.999 335.01 105.867 338.555 102.461 342.478C100.935 344.232 99.7433 346.584 100.43 347.7C100.619 348.015 100.758 348.104 100.79 348.123C101.414 348.111 102.67 346.742 104.518 344.06C104.865 343.556 105.161 343.127 105.391 342.838C106.126 341.916 106.89 341.02 107.655 340.126L111.046 336.075C112.977 333.754 114.907 331.427 116.855 329.119ZM100.777 351.352C99.9127 351.352 98.6767 351.014 97.6767 349.391C95.5607 345.942 98.9353 341.6 100.023 340.358C103.585 336.258 107.807 332.636 111.891 329.136C113.785 327.51 115.674 325.894 117.486 324.236C118.717 323.107 119.821 321.97 120.766 320.848C123.373 317.756 124.355 314.862 123.533 312.699C122.761 310.667 120.319 309.247 116.647 308.712C110.711 307.842 104.521 307.688 98.5314 307.538C95.9447 307.475 93.362 307.412 90.786 307.294C90.246 307.274 89.7074 307.26 89.126 307.26L82.39 307.294L87.6567 298.002C90.5087 292.967 93.2233 288.164 95.9993 283.395C103.881 269.814 223.559 62.9922 223.559 62.9922L224.949 60.6002L226.347 62.9816C235.879 79.1536 260.031 120.059 263.619 125.843H263.71L274.661 145.971C275.033 146.632 283.759 162.684 275.395 173.795C274.377 175.936 272.811 178.251 270.901 180.419C261.243 191.382 251.549 202.312 241.809 213.207C240.253 214.955 238.762 216.2 237.245 217.018C236.362 217.484 235.186 217.515 233.867 217.403C233.526 217.374 233.191 217.342 232.871 217.342H231.121L231.206 215.598C231.234 215.276 231.218 214.922 231.211 214.571C231.178 213.447 231.142 212.172 231.918 211.151C233.373 209.202 235.173 207.55 236.921 205.946L237.23 205.663C239.279 203.779 241.349 201.919 243.417 200.059C246.835 196.984 250.255 193.911 253.579 190.736C255.411 188.982 257.194 186.76 258.865 184.136L259.135 183.714C261.534 179.976 262.218 178.148 260.253 176.511C259.691 176.042 259.199 175.818 258.745 175.818C257.705 175.818 256.49 177.007 255.314 178.154C254.767 178.69 254.23 179.214 253.679 179.662C252.687 180.482 251.607 181.144 250.563 181.782C250.115 182.052 249.667 182.331 249.227 182.614L248.382 183.17L244.726 180.97L245.202 179.714C245.483 178.971 245.706 178.18 245.929 177.384C246.489 175.41 247.069 173.363 248.463 171.815C254.23 165.432 254.475 159.175 249.278 150.899C246.249 146.072 229.929 117.851 224.973 109.272C201.769 149.334 160.646 220.366 156.605 227.475L156.935 228.508L155.865 228.738C152.957 233.612 132.039 269.738 124.69 282.55L127.334 282.77C130.922 283.062 134.221 283.326 137.514 283.666C142.353 284.171 145.077 284.79 146.554 286.763C148.143 288.895 147.705 292.078 146.913 296.336C146.395 299.119 146.885 301.704 147.405 304.447C148.243 308.882 149.114 313.467 145.405 318.514C141.57 323.743 137.366 328.79 133.301 333.667L130.487 337.052C129.397 338.366 126.583 339.651 124.782 338.762C123.939 338.347 123.403 337.646 123.278 336.794C123.006 334.914 124.817 333.054 126.69 331.319C126.886 331.136 127.039 330.998 127.134 330.896C128.059 329.951 128.986 329.016 129.919 328.083C131.183 326.808 132.453 325.542 133.691 324.24C135.257 322.583 136.031 321.428 135.653 320.084C135.35 318.994 133.559 318.803 132.673 319.214C129.402 320.735 127.071 322.304 125.542 324.02C123.819 325.946 122.135 327.9 120.461 329.862C118.13 332.599 115.83 335.368 113.531 338.138L110.113 342.226C109.369 343.088 108.63 343.955 107.918 344.85C107.722 345.095 107.47 345.46 107.174 345.89C105.587 348.199 103.414 351.352 100.777 351.352" fill="#EE2E65"/>
<path d="M242.735 206.109C241.808 206.948 240.881 207.791 239.96 208.636L239.649 208.921C238.095 210.347 236.492 211.817 235.268 213.415C235.336 213.413 235.395 213.407 235.441 213.401C236.507 212.804 237.596 211.864 238.796 210.519C240.111 209.048 241.423 207.579 242.735 206.109ZM234.948 215.039C234.767 215.039 234.569 215.031 234.361 215.015L233.633 214.953L233.621 214.223C233.608 213.353 233.644 213.008 233.769 212.744C235.18 210.828 236.896 209.255 238.557 207.735L238.869 207.447C240.912 205.571 242.973 203.716 245.033 201.859C247.644 199.516 250.251 197.172 252.817 194.781L253.972 195.909C249.327 201.143 244.667 206.373 240.003 211.593C238.625 213.135 237.352 214.208 236.105 214.876C236.052 214.911 235.833 215.039 234.948 215.039ZM133.697 314.969C136.516 314.969 138.864 316.584 139.54 318.989C139.584 319.14 139.62 319.293 139.651 319.444C140.5 318.347 141.332 317.24 142.149 316.128C144.819 312.493 144.209 309.276 143.44 305.204C142.872 302.221 142.285 299.139 142.941 295.597C143.301 293.657 143.975 290.056 143.317 289.176C142.631 288.255 138.893 287.867 137.096 287.681C133.908 287.353 130.711 287.093 127.243 286.811L118.037 286.044L119.921 282.748C146.297 236.579 151.485 228.144 153.083 225.987C155.077 221.889 166.504 202.16 221.419 107.357L224.981 101.205L227.193 105.039C230.895 111.453 249.524 143.699 252.7 148.752C258.863 158.576 258.471 166.761 251.459 174.52C250.897 175.147 250.516 176.133 250.175 177.248C250.507 177.02 250.823 176.789 251.119 176.547C251.548 176.195 251.968 175.781 252.393 175.364C254.088 173.711 256.065 171.78 258.745 171.78C260.164 171.78 261.541 172.328 262.84 173.409C265.652 175.755 265.801 178.481 265.059 180.94C265.997 179.875 266.935 178.809 267.873 177.748C269.541 175.856 270.909 173.841 271.929 171.759C278.947 162.369 271.201 148.059 271.121 147.915L260.24 127.912L260.328 127.861C257.685 124.071 250.651 112.161 224.98 68.604L206.133 101.172C170.888 162.076 105.284 275.444 99.488 285.421C96.7213 290.18 94.0107 294.971 91.1733 299.988L89.34 303.224C89.9053 303.228 90.436 303.24 90.968 303.261C93.2867 303.372 95.6107 303.428 97.9373 303.485L98.6333 303.501C104.739 303.652 111.049 303.809 117.235 304.716C122.416 305.479 125.992 307.805 127.307 311.269C128.025 313.159 128.028 315.265 127.331 317.467C128.405 316.82 129.612 316.187 130.967 315.556C131.784 315.171 132.728 314.969 133.697 314.969V314.969ZM137.516 324.785L138.095 321.592C138.225 320.88 138.188 320.147 137.985 319.425C137.508 317.725 135.784 316.584 133.697 316.584C132.964 316.584 132.257 316.736 131.649 317.019C129.32 318.1 127.465 319.185 125.979 320.333L122.907 322.699L124.779 319.304C126.272 316.593 126.624 314.013 125.797 311.844C124.7 308.952 121.576 306.985 117 306.311C110.912 305.423 104.651 305.267 98.5933 305.116L97.8973 305.1C95.56 305.04 93.2213 304.984 90.896 304.876C90.32 304.851 89.7453 304.839 89.1253 304.839L86.552 304.867L89.768 299.193C92.6067 294.169 95.3213 289.371 98.092 284.609C103.887 274.633 169.491 161.267 204.736 100.361L224.967 65.4027L225.668 66.5933C253.395 113.64 260.021 124.852 262.168 127.645L262.748 128.403L262.435 128.571L272.539 147.137C272.619 147.285 280.877 162.484 273.301 172.599C272.295 174.683 270.848 176.817 269.084 178.815C266.611 181.623 264.14 184.425 261.659 187.229L260.384 186.245C260.564 185.979 260.736 185.712 260.909 185.441L261.173 185.025C263.48 181.427 265.428 177.667 261.805 174.648C260.807 173.817 259.777 173.395 258.745 173.395C256.724 173.395 255.147 174.932 253.624 176.419C253.064 176.971 252.607 177.416 252.141 177.796C251.283 178.501 250.327 179.085 249.313 179.705L247.517 180.803L248.263 178.044C248.767 176.26 249.243 174.571 250.26 173.439C256.711 166.297 257.052 158.728 251.329 149.612C248.141 144.533 229.499 112.265 225.795 105.847L224.977 104.432L222.816 108.167C167.924 202.929 156.503 222.651 154.457 226.821C152.812 229.069 147.659 237.451 121.324 283.549L120.696 284.643L127.373 285.201C130.855 285.485 134.061 285.745 137.263 286.073C141.309 286.495 143.68 286.963 144.612 288.211C145.525 289.435 145.3 291.755 144.527 295.891C143.928 299.137 144.485 302.063 145.025 304.895C145.803 309.009 146.536 312.885 143.452 317.081C142.177 318.817 140.867 320.532 139.524 322.236L137.516 324.785ZM109.804 336.303C107.419 338.441 105.111 340.657 103.071 343.008C101.625 344.667 100.901 346.392 101.052 347.104C101.443 346.757 102.289 345.871 103.852 343.604C104.212 343.08 104.521 342.636 104.76 342.336C105.5 341.405 106.269 340.504 107.043 339.601L109.804 336.303ZM100.573 348.933L100.375 348.817C100.151 348.681 99.9347 348.445 99.7373 348.117C98.7427 346.503 100.255 343.784 101.852 341.948C105.3 337.976 109.452 334.416 113.467 330.971C114.424 330.151 115.381 329.336 116.324 328.508L117.472 329.637C115.783 331.64 114.104 333.66 112.428 335.676L108.276 340.641C107.509 341.537 106.753 342.428 106.021 343.343C105.801 343.62 105.517 344.032 105.183 344.519C102.393 348.565 101.461 348.917 100.805 348.931L100.573 348.933ZM89.124 306.453C89.716 306.453 90.264 306.467 90.8147 306.484C93.3933 306.604 95.9707 306.668 98.5507 306.732C104.648 306.885 110.823 307.04 116.764 307.913C120.732 308.491 123.404 310.089 124.288 312.412C125.219 314.861 124.188 318.041 121.384 321.368C120.432 322.497 119.305 323.661 118.032 324.832C116.363 326.359 114.631 327.847 112.891 329.345L112.419 329.748C108.356 333.231 104.157 336.828 100.633 340.888C99.9227 341.699 96.48 345.897 98.364 348.969C99.0093 350.016 99.8213 350.545 100.777 350.545C102.995 350.545 105.025 347.589 106.508 345.432C106.828 344.971 107.087 344.597 107.285 344.348C108.007 343.443 108.751 342.569 109.501 341.699L112.912 337.621C115.211 334.851 117.513 332.08 119.845 329.339C121.525 327.371 123.215 325.412 124.94 323.481C126.541 321.685 128.96 320.051 132.332 318.483C132.716 318.305 133.207 318.208 133.712 318.208C135.084 318.208 136.152 318.86 136.431 319.869C136.96 321.749 135.715 323.273 134.279 324.797C133.201 325.925 132.105 327.029 131.009 328.131L130.492 328.651C129.559 329.584 128.635 330.517 127.712 331.461C127.644 331.533 127.527 331.643 127.381 331.78C125.596 333.431 123.861 335.183 124.076 336.677C124.124 336.996 124.252 337.28 124.457 337.52L126.3 335.195C126.727 334.659 127.411 333.949 128.336 333.091C128.629 332.823 128.775 332.692 128.863 332.593L129.42 332.028L130.617 333.111L128.624 335.508C128.281 335.923 127.68 336.264 127.235 336.444L124.485 337.555C124.655 337.744 124.875 337.908 125.14 338.04C125.424 338.18 125.764 338.248 126.155 338.248C127.568 338.248 129.181 337.36 129.867 336.536L132.679 333.148C136.728 328.295 140.911 323.276 144.755 318.037C148.253 313.275 147.457 309.065 146.613 304.605C146.077 301.783 145.573 299.124 146.12 296.188C146.873 292.132 147.3 289.116 145.907 287.247C144.609 285.512 142.033 284.951 137.431 284.471C134.219 284.137 130.997 283.877 127.508 283.593L123.36 283.249L123.991 282.149C131.165 269.64 152.265 233.196 155.169 228.324L155.349 228.021L155.895 227.904L155.728 227.384L155.903 227.079C159.584 220.6 195.035 159.352 224.275 108.867L224.975 107.659L225.672 108.868C229.179 114.94 246.828 145.476 249.961 150.469C255.315 158.991 255.036 165.743 249.064 172.356C247.797 173.76 247.243 175.709 246.707 177.593C246.479 178.419 246.247 179.235 245.957 179.997L245.72 180.625L248.363 182.216L248.784 181.939C249.237 181.648 249.692 181.364 250.147 181.091C251.105 180.503 252.197 179.839 253.167 179.039C253.701 178.604 254.221 178.096 254.748 177.579C256.051 176.307 257.38 175.011 258.745 175.011C259.4 175.011 260.061 175.299 260.771 175.891C263.397 178.081 262.032 180.695 259.817 184.151L259.544 184.573C257.845 187.243 256.025 189.513 254.137 191.317C250.859 194.451 247.439 197.527 244.128 200.505L243.957 200.659C241.891 202.517 239.823 204.375 237.775 206.257L237.465 206.541C235.749 208.116 233.976 209.743 232.564 211.633C231.955 212.44 231.985 213.509 232.019 214.544C232.031 215.06 232.035 215.377 232.009 215.668L231.967 216.535H232.871C233.179 216.535 233.499 216.56 233.824 216.588C235.447 216.728 236.236 216.637 236.868 216.303C238.293 215.535 239.715 214.347 241.207 212.671C250.632 202.128 260.419 191.096 270.296 179.885C272.153 177.776 273.665 175.552 274.667 173.448C282.871 162.524 274.047 146.527 273.957 146.367L262.932 126.268C259.261 120.348 234.157 77.8227 225.652 63.392L224.952 62.2L224.259 63.3987C223.063 65.4667 104.489 270.375 96.6973 283.799C94.0947 288.275 91.544 292.776 88.8853 297.471L83.7787 306.479L89.124 306.453ZM100.777 352.161C99.7093 352.161 98.184 351.753 96.9893 349.813C94.5733 345.877 98.236 341.176 99.416 339.825C103.016 335.681 107.263 332.041 111.367 328.525L111.836 328.119C113.565 326.632 115.285 325.156 116.941 323.639C118.163 322.52 119.241 321.404 120.149 320.328C122.559 317.471 123.492 314.861 122.777 312.984C122.112 311.235 119.895 310.001 116.531 309.509C110.683 308.651 104.559 308.497 98.6347 308.349C95.92 308.283 93.3307 308.22 90.748 308.099C90.2267 308.081 89.6973 308.068 89.1253 308.068L81 308.107L87.48 296.676C90.1427 291.973 92.6947 287.467 95.3 282.988C103.092 269.565 221.664 64.656 222.861 62.588L224.943 59L227.043 62.572C235.383 76.7213 259.679 117.879 264.069 125.036H264.096L264.42 125.457L275.371 145.585C275.753 146.268 284.787 162.66 276.04 174.281C275.06 176.379 273.464 178.735 271.505 180.953C261.627 192.167 251.839 203.2 242.411 213.745C240.792 215.564 239.229 216.864 237.628 217.729C236.699 218.22 235.389 218.348 233.797 218.205C233.411 218.172 233.135 218.149 232.871 218.149H230.272L230.399 215.557C230.421 215.291 230.413 215.036 230.408 214.777C230.368 213.404 230.321 211.917 231.275 210.661C232.773 208.653 234.604 206.976 236.373 205.353L236.683 205.068C238.735 203.185 240.807 201.32 242.877 199.459L243.049 199.303C246.348 196.335 249.761 193.267 253.02 190.151C254.816 188.433 256.551 186.265 258.184 183.703L258.456 183.277C261.037 179.256 261.039 178.215 259.736 177.131C259.34 176.8 258.997 176.625 258.745 176.625C258.039 176.625 256.848 177.784 255.892 178.719C255.316 179.285 254.757 179.825 254.192 180.288C253.137 181.156 251.993 181.856 250.984 182.471C250.54 182.74 250.099 183.013 249.664 183.295L248.401 184.123L243.733 181.315L244.447 179.427C244.72 178.708 244.936 177.94 245.151 177.168C245.74 175.091 246.347 172.961 247.863 171.273C253.419 165.125 253.631 159.347 248.593 151.328C245.619 146.585 229.671 119.017 224.972 110.885C196.287 160.412 161.952 219.732 157.483 227.567L157.977 229.109L156.377 229.453C152.979 235.191 133.58 268.693 126.023 281.851L127.637 281.984C131.141 282.269 134.373 282.531 137.597 282.861C142.668 283.392 145.544 284.067 147.2 286.28C148.987 288.676 148.537 292.021 147.707 296.484C147.216 299.121 147.693 301.635 148.199 304.296C149.029 308.693 149.971 313.667 146.057 318.993C142.183 324.273 137.983 329.309 133.92 334.184L131.108 337.571C130.183 338.68 128.133 339.863 126.155 339.863C125.515 339.863 124.931 339.737 124.424 339.488C123.336 338.948 122.645 338.033 122.48 336.915C122.151 334.637 124.108 332.608 126.141 330.727C126.396 330.493 126.484 330.408 126.545 330.345C127.484 329.383 128.413 328.449 129.348 327.513L129.865 326.995C130.952 325.897 132.04 324.804 133.108 323.684C134.672 322.025 135.12 321.171 134.876 320.303C134.765 319.905 133.543 319.713 133.012 319.947C129.845 321.417 127.597 322.927 126.144 324.557C124.425 326.477 122.745 328.429 121.073 330.385C118.747 333.12 116.451 335.885 114.152 338.655L110.733 342.743C109.987 343.609 109.255 344.465 108.551 345.352C108.367 345.581 108.132 345.921 107.856 346.323C106.152 348.801 103.845 352.161 100.777 352.161" fill="#EE2E65"/>
<path fill-rule="evenodd" clip-rule="evenodd" d="M94.0531 376.314C96.0024 379.562 97.1371 383.056 93.5144 386.154C90.9691 388.336 87.9718 390.878 84.9704 386.948C82.3518 383.516 80.7438 379.896 85.1091 376.162C88.2411 373.487 90.9144 373.115 94.0531 376.314Z" fill="#DC3861"/>
<path d="M230.192 245.351C228.783 246.841 226.854 251.213 229.616 252.278C233.123 253.627 236.692 246.866 238.112 244.769C243.306 237.11 248.792 229.665 257.248 225.341C259.326 224.277 263.355 223.479 264.396 224.567C268.132 228.446 270.024 225.826 272.376 223.407C275.506 220.183 279.104 216.797 283.806 216.469C294.974 215.693 300.131 231.298 304.692 239.242C311.087 250.377 317.491 261.499 323.9 272.626C326.384 276.941 328.867 281.243 331.339 285.551C327.882 285.551 265.518 285.546 236.246 285.521C225.838 285.514 216.063 287.37 207.336 293.649C205.608 294.89 201.767 295.382 200.24 294.303C195.37 290.903 191.352 292.533 187.643 295.509C183.294 298.985 179.235 302.865 175.362 306.882C157.92 324.991 140.592 343.215 123.215 361.382C118.22 366.605 113.043 371.663 108.248 377.057C106.447 379.075 105.192 381.745 104.278 384.323C103.831 385.586 104.252 387.881 105.167 388.683C105.906 389.326 108.379 388.905 109.407 388.097C111.831 386.191 114.08 383.946 116.02 381.53C124.028 371.518 131.676 361.217 139.874 351.365C150.811 338.219 162.279 325.522 176.352 315.538C178.067 314.319 181.344 311.663 183.7 312.642C187.031 314.029 183.474 317.574 182.508 319.289C182.016 320.161 181.631 321.637 182.051 322.342C182.455 323.023 184.044 323.503 184.924 323.295C186.756 322.861 188.57 322.085 190.194 321.118C192.286 319.882 194.078 318.142 196.171 316.913C209.468 309.115 223.919 306.667 239.22 306.755C280.16 306.99 366.478 306.231 366.478 306.231L308.7 205.821C301.103 191.103 285.407 187.866 274.606 198.566C259.332 213.679 244.94 229.689 230.192 245.351Z" fill="#4AB8E3"/>
<path d="M194.831 293.21C192.762 293.21 190.638 294.14 188.15 296.14C184.311 299.206 180.319 302.903 175.943 307.444C164.091 319.751 152.291 332.108 140.494 344.464C134.93 350.294 129.366 356.119 123.798 361.942C122.162 363.654 120.504 365.347 118.847 367.04C115.512 370.454 112.063 373.983 108.852 377.594C107.366 379.262 106.119 381.548 105.04 384.595C104.694 385.567 105.063 387.518 105.699 388.074C105.738 388.106 105.944 388.187 106.39 388.187C107.267 388.187 108.398 387.863 108.908 387.462C111.27 385.608 113.451 383.442 115.391 381.024C118.55 377.075 121.651 373.079 124.755 369.087C129.44 363.058 134.283 356.823 139.252 350.848C149.78 338.198 161.504 325.08 175.886 314.878L176.396 314.508C177.979 313.36 180.374 311.624 182.583 311.624C183.094 311.624 183.572 311.714 184.01 311.898C184.972 312.298 185.578 312.904 185.804 313.698C186.27 315.316 184.986 317.123 183.955 318.576C183.659 318.994 183.388 319.372 183.212 319.687C182.747 320.508 182.563 321.627 182.746 321.93C182.868 322.138 183.674 322.538 184.455 322.538C184.592 322.538 184.686 322.522 184.739 322.511C186.412 322.114 188.155 321.391 189.78 320.426C190.782 319.836 191.7 319.128 192.674 318.384C193.652 317.634 194.667 316.858 195.763 316.215C207.712 309.21 221.27 305.947 238.428 305.947L239.223 305.95C244.69 305.979 250.97 305.994 257.742 305.994C297.643 305.994 355.451 305.519 365.088 305.438L308 206.223C303.74 197.972 296.644 193.066 289.002 193.066C283.967 193.066 279.186 195.167 275.174 199.14C264.243 209.958 253.58 221.43 243.27 232.524C239.118 236.994 234.963 241.463 230.78 245.904C229.871 246.866 228.755 249.159 229.074 250.57C229.18 251.042 229.446 251.348 229.907 251.524C232.3 252.43 235.244 247.799 236.75 245.399C237.016 244.974 237.25 244.602 237.444 244.318C242.783 236.446 248.287 229.015 256.88 224.622C258.444 223.82 260.812 223.239 262.511 223.239C263.662 223.239 264.49 223.499 264.979 224.01C266.099 225.171 267.05 225.738 267.888 225.738C269.039 225.738 270.074 224.652 271.268 223.399L271.799 222.847C275.142 219.4 278.818 216.006 283.748 215.663C293.4 215.023 298.615 225.472 302.784 233.831C303.696 235.66 304.559 237.39 305.392 238.843C311.788 249.972 318.192 261.096 324.599 272.224L332.735 286.359H331.339C327.882 286.359 265.518 286.352 236.246 286.328C224.39 286.328 215.368 288.864 207.807 294.303C206.64 295.143 204.608 295.704 202.75 295.704C201.872 295.704 200.642 295.579 199.775 294.963C198.083 293.786 196.467 293.21 194.831 293.21ZM106.39 389.803C105.616 389.803 105.027 389.632 104.638 389.292C103.412 388.219 102.998 385.516 103.518 384.054C104.667 380.811 106.018 378.344 107.646 376.522C110.883 372.879 114.346 369.338 117.692 365.911C119.346 364.224 120.998 362.534 122.631 360.824C128.199 355.006 133.762 349.178 139.324 343.35C151.126 330.991 162.926 318.631 174.779 306.322C179.204 301.734 183.247 297.988 187.139 294.879C192.147 290.863 196.303 290.572 200.702 293.642C201.108 293.928 201.854 294.09 202.75 294.09C204.274 294.09 205.966 293.639 206.864 292.992C214.715 287.344 224.035 284.712 236.192 284.712C263.611 284.736 319.915 284.744 329.944 284.744L323.199 273.031C316.791 261.904 310.387 250.78 303.992 239.646C303.136 238.151 302.262 236.402 301.338 234.551C297.376 226.61 292.415 216.678 283.86 217.274C279.499 217.579 276.082 220.748 272.956 223.968L272.438 224.511C271.107 225.907 269.734 227.352 267.888 227.352C266.587 227.352 265.255 226.624 263.815 225.128C263.788 225.098 263.526 224.855 262.511 224.855C261.062 224.855 258.958 225.371 257.614 226.06C249.363 230.28 243.998 237.53 238.782 245.223C238.595 245.495 238.372 245.851 238.118 246.256C236.474 248.879 233.723 253.262 230.556 253.262C230.136 253.262 229.723 253.183 229.326 253.031C228.358 252.656 227.724 251.927 227.498 250.926C227.034 248.868 228.423 246.047 229.606 244.796C233.786 240.359 237.935 235.895 242.088 231.424C252.41 220.319 263.082 208.832 274.039 197.992C278.358 193.714 283.53 191.451 289.002 191.451C297.26 191.451 304.892 196.684 309.416 205.451L367.866 307.028L366.483 307.04C365.838 307.047 301.183 307.608 257.742 307.608C250.966 307.608 244.684 307.595 239.215 307.564L238.428 307.562C221.568 307.562 208.27 310.756 196.58 317.608C195.57 318.202 194.64 318.914 193.656 319.668C192.688 320.408 191.686 321.176 190.607 321.812C188.842 322.863 186.942 323.646 185.11 324.08C183.978 324.355 181.983 323.816 181.358 322.756C180.704 321.659 181.267 319.846 181.806 318.894C182.003 318.539 182.304 318.111 182.638 317.643C183.38 316.596 184.503 315.014 184.252 314.142C184.22 314.032 184.123 313.691 183.39 313.386C181.78 312.72 179.011 314.607 177.343 315.818L176.819 316.195C162.59 326.292 150.951 339.314 140.495 351.883C135.542 357.835 130.707 364.062 126.031 370.078C122.922 374.076 119.815 378.079 116.651 382.034C114.632 384.548 112.363 386.799 109.906 388.731C109.01 389.438 107.458 389.803 106.39 389.803" fill="#4AB8E3"/>
<path d="M194.828 293.207C192.762 293.207 190.638 294.14 188.148 296.14C184.316 299.199 180.326 302.896 175.945 307.444C164.102 319.736 152.316 332.082 140.529 344.427C134.953 350.268 129.377 356.108 123.794 361.944C122.164 363.646 120.514 365.338 118.862 367.027C115.522 370.442 112.068 373.972 108.852 377.594C107.369 379.259 106.12 381.548 105.041 384.595C104.688 385.586 105.053 387.51 105.7 388.076C105.741 388.103 105.946 388.19 106.39 388.19C107.268 388.19 108.397 387.863 108.902 387.459C111.273 385.604 113.456 383.435 115.393 381.024C118.56 377.064 121.669 373.059 124.785 369.052C129.46 363.035 134.29 356.808 139.254 350.847C149.784 338.2 161.502 325.087 175.885 314.88L176.389 314.514C177.973 313.36 180.37 311.626 182.584 311.626C183.096 311.626 183.574 311.714 184.01 311.898C184.974 312.294 185.577 312.9 185.804 313.694C186.268 315.316 184.988 317.126 183.953 318.576C183.66 318.994 183.388 319.372 183.212 319.687C182.748 320.508 182.565 321.623 182.745 321.927C182.868 322.135 183.676 322.538 184.454 322.538C184.596 322.538 184.688 322.519 184.741 322.508C186.41 322.116 188.154 321.398 189.781 320.426C190.778 319.839 191.693 319.132 192.664 318.388C193.648 317.636 194.664 316.86 195.761 316.212C207.709 309.21 221.257 305.95 238.402 305.95H239.222C244.645 305.979 250.868 305.994 257.573 305.994C297.482 305.994 355.433 305.519 365.09 305.438L308 206.224C303.74 197.974 296.644 193.066 289.001 193.066C283.964 193.066 279.182 195.167 275.173 199.14C264.253 209.947 253.605 221.407 243.301 232.494C239.137 236.975 234.97 241.455 230.782 245.907C229.872 246.866 228.754 249.162 229.073 250.571C229.181 251.042 229.445 251.347 229.906 251.524C232.309 252.436 235.242 247.799 236.746 245.403C237.016 244.976 237.248 244.602 237.444 244.318C242.78 236.446 248.284 229.02 256.878 224.622C258.449 223.823 260.814 223.239 262.514 223.239C263.662 223.239 264.493 223.499 264.978 224.007C266.101 225.171 267.05 225.735 267.888 225.735C269.04 225.735 270.074 224.65 271.273 223.388L271.797 222.843C275.146 219.399 278.824 216.008 283.749 215.664C293.438 215.043 298.617 225.475 302.788 233.836C303.698 235.663 304.558 237.392 305.392 238.843C311.788 249.975 318.192 261.099 324.6 272.224L326.657 275.788C328.454 278.91 330.249 282.026 332.041 285.155L332.734 286.359H331.338C327.882 286.359 265.517 286.352 236.245 286.328C224.38 286.328 215.369 288.864 207.806 294.303C206.638 295.143 204.605 295.704 202.748 295.704C201.87 295.704 200.644 295.579 199.773 294.966C198.082 293.788 196.465 293.207 194.828 293.207ZM106.39 389.806C105.614 389.806 105.028 389.628 104.637 389.294C103.377 388.19 102.997 385.523 103.521 384.054C104.669 380.811 106.02 378.344 107.646 376.522C110.888 372.875 114.354 369.324 117.708 365.899C119.354 364.215 121 362.531 122.628 360.828C128.21 354.992 133.786 349.152 139.362 343.31C151.149 330.964 162.938 318.615 174.781 306.322C179.21 301.73 183.252 297.982 187.138 294.879C192.146 290.86 196.304 290.57 200.701 293.642C201.104 293.926 201.848 294.09 202.748 294.09C204.27 294.09 205.965 293.642 206.862 292.992C214.717 287.344 224.026 284.712 236.164 284.712C263.608 284.738 319.92 284.744 329.945 284.744C328.384 282.026 326.821 279.314 325.256 276.595L323.2 273.031C316.79 261.903 310.386 250.778 303.993 239.643C303.134 238.155 302.265 236.407 301.342 234.56C297.382 226.615 292.426 216.683 283.86 217.275C279.505 217.579 276.086 220.748 272.957 223.968L272.442 224.504C271.112 225.902 269.734 227.348 267.888 227.348C266.586 227.348 265.256 226.623 263.817 225.126C263.788 225.098 263.526 224.855 262.514 224.855C261.066 224.855 258.96 225.375 257.616 226.06C249.358 230.283 243.997 237.534 238.781 245.22C238.598 245.498 238.372 245.856 238.112 246.264C236.473 248.882 233.721 253.262 230.558 253.262H230.554C230.14 253.262 229.722 253.186 229.326 253.031C228.36 252.656 227.726 251.932 227.5 250.928C227.036 248.875 228.424 246.05 229.605 244.796C233.794 240.35 237.954 235.871 242.117 231.394C252.43 220.296 263.096 208.823 274.04 197.992C278.357 193.714 283.529 191.451 289.001 191.451C297.262 191.451 304.893 196.684 309.416 205.448L367.865 307.028L366.484 307.04C365.834 307.047 301.017 307.608 257.573 307.608C250.862 307.608 244.638 307.595 239.216 307.564H238.402C221.554 307.564 208.266 310.756 196.581 317.606C195.565 318.204 194.632 318.916 193.648 319.676C192.684 320.412 191.684 321.176 190.608 321.812C188.841 322.866 186.94 323.648 185.113 324.078C183.985 324.348 181.985 323.814 181.357 322.752C180.705 321.656 181.266 319.846 181.808 318.894C182.004 318.539 182.306 318.118 182.637 317.643C183.378 316.596 184.501 315.012 184.253 314.142C184.221 314.028 184.124 313.694 183.392 313.386C181.77 312.718 179.008 314.61 177.338 315.82L176.818 316.198C162.59 326.291 150.953 339.318 140.497 351.883C135.553 357.824 130.726 364.038 126.06 370.043C122.942 374.055 119.824 378.067 116.65 382.034C114.636 384.546 112.364 386.796 109.905 388.728C109.012 389.434 107.46 389.806 106.39 389.806" fill="#4AB8E3"/>
<path d="M283.926 216.462C283.885 216.466 283.844 216.468 283.802 216.47C282.488 216.561 281.262 216.89 280.105 217.392C281.262 216.89 282.49 216.561 283.805 216.47C283.845 216.468 283.886 216.466 283.926 216.462ZM289.002 192.26C296.952 192.26 304.322 197.341 308.72 205.853L318.454 222.773L308.717 205.85C304.318 197.325 296.954 192.26 289.002 192.26ZM277.1 219.138C275.409 220.364 273.861 221.878 272.376 223.404L271.854 223.945C271.313 224.518 270.784 225.076 270.234 225.53C270.784 225.08 271.314 224.521 271.857 223.949L272.373 223.41C273.858 221.88 275.409 220.364 277.1 219.138V219.138ZM301.51 233.086C301.698 233.461 301.882 233.83 302.065 234.2C302.801 235.676 303.504 237.086 304.188 238.341C303.516 237.104 302.828 235.722 302.106 234.281C301.91 233.888 301.712 233.488 301.51 233.086V233.086ZM259.026 224.637C258.38 224.836 257.765 225.076 257.245 225.341C249.741 229.182 244.614 235.418 239.861 242.222C244.625 235.409 249.757 229.172 257.249 225.341C257.77 225.076 258.381 224.836 259.026 224.637V224.637ZM251.962 222.009C248.869 225.316 245.804 228.613 242.768 231.88L242.069 232.632C238.12 236.88 234.169 241.129 230.194 245.352C229.937 245.622 229.665 245.986 229.408 246.405C229.666 245.986 229.938 245.622 230.198 245.352C234.382 240.902 238.548 236.424 242.709 231.945L242.886 231.753C245.884 228.529 248.909 225.274 251.962 222.009V222.009ZM237.361 245.945C236.356 247.536 235.3 249.112 234.197 250.317C235.47 248.941 236.582 247.184 237.361 245.945ZM229.47 252.217C229.518 252.241 229.566 252.26 229.62 252.278C230.228 252.518 230.912 252.502 231.565 252.269C230.918 252.493 230.238 252.514 229.62 252.278C229.568 252.26 229.518 252.241 229.47 252.217ZM316.954 260.566C319.269 264.585 321.584 268.606 323.9 272.626L330.001 283.221C328.73 281.008 327.457 278.797 326.182 276.585L323.901 272.626C321.585 268.606 319.269 264.585 316.954 260.566V260.566ZM236.164 285.521C224.204 285.521 215.044 288.102 207.336 293.649C207.264 293.698 207.19 293.75 207.113 293.797C207.19 293.75 207.265 293.698 207.336 293.649C215.03 288.112 224.201 285.53 236.186 285.521H236.164ZM194.828 292.398C196.629 292.398 198.398 293.024 200.236 294.304C200.932 294.794 201.986 294.897 202.748 294.897C202.126 294.897 200.972 294.822 200.237 294.301C197.453 292.358 194.926 291.889 192.133 292.866C193.049 292.55 193.94 292.398 194.828 292.398ZM188.362 294.954C188.126 295.132 187.886 295.314 187.644 295.509C186.552 296.38 185.449 297.304 184.324 298.284C185.449 297.304 186.552 296.38 187.645 295.509C187.886 295.314 188.126 295.132 188.362 294.954ZM239.216 306.756C241.87 306.772 244.717 306.781 247.716 306.79C244.717 306.781 241.872 306.772 239.218 306.756H239.216ZM288.034 306.732C278.006 306.772 268.084 306.797 259.026 306.8C268.084 306.797 278.004 306.772 288.034 306.732ZM184.013 312.786C184.566 313.084 184.9 313.456 185.03 313.925C185.034 313.937 185.037 313.95 185.04 313.96C185.037 313.946 185.032 313.933 185.029 313.916C184.893 313.446 184.56 313.074 184.013 312.786V312.786ZM182.584 312.433C180.67 312.433 178.398 314.052 176.984 315.08C179.034 313.604 181.458 312.141 183.225 312.496C183.022 312.456 182.808 312.433 182.584 312.433ZM176.621 315.345L176.361 315.534C175.657 316.036 174.957 316.541 174.266 317.053C174.954 316.544 175.652 316.038 176.352 315.541L176.621 315.345ZM184.87 315.48C184.594 316.193 184.094 316.969 183.516 317.798C184.049 317.042 184.581 316.241 184.87 315.48ZM237.85 306.756C221.117 306.825 207.86 310.058 196.17 316.908C195.122 317.528 194.13 318.284 193.172 319.016C192.517 319.517 191.922 319.976 191.325 320.388C191.954 319.952 192.564 319.49 193.157 319.034C194.061 318.341 195.084 317.552 196.172 316.913C207.86 310.058 221.117 306.825 237.85 306.756V306.756ZM182.354 319.593C182.124 320.078 181.953 320.648 181.893 321.16C181.958 320.621 182.145 320.045 182.354 319.593ZM180.282 301.978C178.693 303.494 177.057 305.126 175.364 306.882C163.825 318.858 152.337 330.889 140.854 342.92L139.946 343.869C134.37 349.71 128.793 355.55 123.212 361.385C123.157 361.441 123.104 361.498 123.049 361.556C123.104 361.498 123.157 361.441 123.212 361.385C128.792 355.55 134.369 349.713 139.944 343.872C151.732 331.524 163.52 319.18 175.364 306.882C177.057 305.126 178.693 303.494 180.282 301.978V301.978ZM147.488 342.446C144.872 345.414 142.342 348.404 139.877 351.365C135.528 356.589 131.274 362.02 127.144 367.333C131.276 362.024 135.529 356.592 139.877 351.365C142.344 348.404 144.872 345.418 147.488 342.446V342.446ZM124.404 370.861C122.813 372.904 121.221 374.946 119.621 376.985C121.222 374.946 122.814 372.904 124.404 370.861ZM106.148 387.368C106.202 387.378 106.284 387.384 106.392 387.384C107.142 387.384 108.07 387.09 108.398 386.828C110.712 385.018 112.853 382.9 114.764 380.521C117.721 376.822 120.628 373.08 123.54 369.34L124.313 368.346C128.937 362.392 133.72 356.233 138.636 350.33C149.205 337.633 160.977 324.469 175.418 314.221L175.917 313.862C177.577 312.652 180.09 310.818 182.584 310.818C183.21 310.818 183.796 310.933 184.322 311.153C185.816 311.768 186.376 312.756 186.581 313.474C187.154 315.477 185.685 317.54 184.61 319.046C184.293 319.494 184.066 319.813 183.917 320.082C183.625 320.596 183.502 321.192 183.485 321.485C183.692 321.59 184.076 321.732 184.454 321.732C186.15 321.346 187.814 320.658 189.369 319.732C190.297 319.185 191.166 318.521 192.088 317.814C193.189 316.972 194.22 316.186 195.35 315.517C207.429 308.436 221.108 305.142 238.402 305.142H239.222C244.648 305.173 250.869 305.185 257.573 305.185C296.517 305.185 352.494 304.734 363.701 304.644L307.301 206.626C303.169 198.63 296.337 193.874 289.002 193.874C284.182 193.874 279.598 195.893 275.742 199.713C264.896 210.445 254.308 221.837 244.069 232.853L243.893 233.042C239.728 237.526 235.561 242.005 231.37 246.46C230.514 247.361 229.636 249.392 229.861 250.394C229.909 250.602 229.986 250.692 230.194 250.769C231.948 251.414 234.886 246.844 236.064 244.974C236.398 244.437 236.604 244.113 236.778 243.861C242.17 235.909 247.737 228.393 256.51 223.902C258.217 223.038 260.684 222.433 262.514 222.433C263.892 222.433 264.916 222.773 265.562 223.448C266.508 224.429 267.29 224.929 267.889 224.929C268.698 224.929 269.665 223.908 270.688 222.832L271.214 222.285C274.677 218.722 278.488 215.221 283.693 214.858C283.993 214.838 284.284 214.829 284.569 214.829C294.212 214.829 299.35 225.136 303.48 233.414C304.444 235.345 305.285 237.033 306.092 238.441C312.489 249.572 318.892 260.696 325.3 271.821L327.582 275.778C329.306 278.77 331.025 281.756 332.74 284.754L334.13 287.166H331.34C327.882 287.166 265.517 287.16 236.245 287.136C224.585 287.136 215.7 289.621 208.278 294.961C206.966 295.902 204.796 296.513 202.748 296.513C201.753 296.513 200.349 296.358 199.31 295.626C195.761 293.146 192.821 293.422 188.653 296.77C184.85 299.805 180.884 303.48 176.528 308.005C164.684 320.296 152.9 332.641 141.113 344.985C135.536 350.826 129.961 356.666 124.378 362.502C122.746 364.21 121.093 365.898 119.44 367.593C116.278 370.824 112.698 374.481 109.454 378.13C108.037 379.722 106.844 381.924 105.804 384.864C105.553 385.564 105.834 386.913 106.148 387.368V387.368ZM110.609 387.108C110.212 387.448 109.809 387.774 109.398 388.097C109.301 388.176 109.186 388.252 109.058 388.324C109.184 388.252 109.301 388.176 109.404 388.094C109.813 387.774 110.214 387.448 110.609 387.108V387.108ZM104.19 384.646C103.912 385.904 104.266 387.898 105.17 388.686C105.402 388.888 105.822 388.994 106.376 388.998C105.746 388.994 105.418 388.85 105.278 388.766C104.3 387.92 103.921 385.898 104.19 384.646V384.646ZM106.392 390.613C105.426 390.613 104.66 390.377 104.113 389.91C102.566 388.556 102.126 385.561 102.761 383.781C103.946 380.436 105.345 377.884 107.044 375.985C110.397 372.213 113.976 368.557 117.13 365.334C118.78 363.646 120.422 361.965 122.044 360.269C127.626 354.434 133.204 348.594 138.78 342.752L139.685 341.804C151.172 329.773 162.66 317.742 174.2 305.761C178.665 301.129 182.732 297.365 186.633 294.248C191.905 290.022 196.373 289.633 201.162 292.981C201.362 293.122 201.896 293.282 202.748 293.282C204.101 293.282 205.633 292.884 206.39 292.34C214.389 286.584 223.849 283.906 236.164 283.906C262.526 283.932 315.524 283.937 328.55 283.937L322.501 273.434C316.09 262.309 309.688 251.18 303.292 240.046C302.424 238.54 301.55 236.785 300.624 234.929C296.766 227.189 291.978 217.472 283.916 218.082C279.845 218.365 276.556 221.424 273.537 224.53L273.026 225.062C271.645 226.513 270.08 228.157 267.889 228.157C266.361 228.157 264.844 227.357 263.256 225.706C263.273 225.744 263.056 225.661 262.514 225.661C261.202 225.661 259.212 226.154 257.984 226.778C249.905 230.91 244.606 238.073 239.449 245.674L238.793 246.696C237.068 249.452 234.176 254.07 230.558 254.07C230.032 254.07 229.52 253.976 229.033 253.785C227.821 253.314 226.997 252.364 226.712 251.108C226.162 248.673 227.765 245.573 229.02 244.241C232.99 240.025 236.937 235.778 240.886 231.533L241.528 230.844C251.886 219.7 262.536 208.241 273.472 197.418C277.942 192.988 283.314 190.644 289.002 190.644C297.57 190.644 305.47 196.041 310.134 205.078L369.256 307.824L366.493 307.848C365.909 307.854 301.138 308.416 257.573 308.416C250.862 308.416 244.636 308.402 239.212 308.372H238.402C221.708 308.372 208.548 311.528 196.99 318.304C195.988 318.893 195.049 319.614 194.141 320.316C193.157 321.065 192.144 321.842 191.02 322.508C189.188 323.6 187.209 324.416 185.298 324.864C183.928 325.194 181.514 324.601 180.662 323.162C179.768 321.658 180.561 319.452 181.106 318.492C181.288 318.164 181.565 317.77 181.872 317.328C182.389 316.6 183.617 314.862 183.477 314.366C183.47 314.361 183.382 314.26 183.078 314.13C182.957 314.081 182.805 314.054 182.63 314.054C181.148 314.054 178.726 315.812 177.814 316.474L177.293 316.852C163.144 326.89 151.545 339.87 141.12 352.4C136.242 358.261 131.477 364.39 126.868 370.321L126.697 370.538C123.58 374.553 120.456 378.568 117.282 382.54C115.229 385.098 112.914 387.393 110.402 389.361C109.318 390.222 107.564 390.613 106.392 390.613" fill="#4AB8E3"/>
<path fill-rule="evenodd" clip-rule="evenodd" d="M153.356 348.337C153.164 348.261 152.996 348.237 152.82 348.193C152.747 346.508 150.199 345.429 149.058 347.253C147.868 349.157 147.304 351.284 146.367 353.308C145.862 354.393 146.188 356.014 147.575 356.273C151.65 357.036 154.636 354.349 154.842 350.286C154.89 349.314 154.17 348.672 153.356 348.337Z" fill="#4AB8E3"/>
</svg>
