<svg width="1223" height="348" viewBox="0 0 1223 348" fill="none" xmlns="http://www.w3.org/2000/svg">
<path d="M927.096 268.138C927.096 265.799 927.515 263.476 928.355 261.156C929.194 258.84 930.427 256.759 932.052 254.918C933.672 253.076 935.652 251.587 937.99 250.451C940.328 249.323 942.971 248.755 945.928 248.755C949.467 248.755 952.495 249.543 955.015 251.114C957.535 252.678 959.431 254.722 960.708 257.244L955.89 260.475C955.343 259.302 954.687 258.318 953.92 257.516C953.155 256.715 952.312 256.071 951.404 255.599C950.49 255.126 949.54 254.791 948.556 254.59C947.568 254.387 946.624 254.286 945.708 254.286C943.664 254.286 941.879 254.696 940.347 255.516C938.814 256.336 937.527 257.428 936.486 258.776C935.446 260.128 934.66 261.642 934.132 263.319C933.604 264.998 933.338 266.675 933.338 268.352C933.338 270.252 933.647 272.062 934.266 273.771C934.89 275.487 935.754 277 936.867 278.319C937.98 279.632 939.304 280.679 940.838 281.467C942.371 282.25 944.05 282.64 945.871 282.64C946.822 282.64 947.795 282.527 948.802 282.287C949.804 282.048 950.774 281.668 951.704 281.139C952.634 280.61 953.492 279.942 954.275 279.139C955.063 278.338 955.706 277.367 956.22 276.239L961.31 279.139C960.69 280.596 959.812 281.884 958.683 282.999C957.552 284.11 956.274 285.051 954.851 285.819C953.428 286.583 951.922 287.17 950.335 287.566C948.747 287.971 947.187 288.171 945.655 288.171C942.916 288.171 940.415 287.586 938.154 286.42C935.894 285.252 933.936 283.731 932.296 281.846C930.654 279.972 929.376 277.832 928.466 275.443C927.554 273.052 927.096 270.618 927.096 268.138Z" fill="#231F20"/>
<path d="M974.504 268.41C974.504 270.234 974.794 272.004 975.38 273.72C975.964 275.438 976.793 276.951 977.87 278.263C978.946 279.575 980.253 280.628 981.785 281.41C983.317 282.199 985.032 282.591 986.929 282.591C988.901 282.591 990.642 282.18 992.158 281.354C993.673 280.534 994.96 279.448 996.017 278.099C997.076 276.748 997.877 275.235 998.425 273.556C998.976 271.88 999.246 270.163 999.246 268.41C999.246 266.548 998.957 264.771 998.372 263.074C997.785 261.376 996.956 259.882 995.88 258.582C994.805 257.29 993.508 256.248 991.994 255.467C990.477 254.678 988.79 254.286 986.929 254.286C984.958 254.286 983.208 254.696 981.674 255.516C980.142 256.336 978.846 257.41 977.789 258.72C976.73 260.032 975.917 261.542 975.352 263.238C974.788 264.935 974.504 266.658 974.504 268.41ZM986.876 288.115C984.1 288.115 981.576 287.56 979.294 286.443C977.013 285.332 975.052 283.858 973.409 282.015C971.766 280.167 970.498 278.06 969.602 275.69C968.709 273.318 968.265 270.888 968.265 268.41C968.265 265.818 968.737 263.338 969.688 260.966C970.637 258.596 971.938 256.494 973.601 254.67C975.26 252.842 977.232 251.39 979.512 250.319C981.792 249.24 984.284 248.704 986.984 248.704C989.758 248.704 992.285 249.278 994.566 250.427C996.846 251.574 998.801 253.082 1000.43 254.943C1002.05 256.804 1003.31 258.91 1004.2 261.263C1005.1 263.622 1005.54 266.019 1005.54 268.466C1005.54 271.052 1005.08 273.538 1004.15 275.91C1003.22 278.28 1001.91 280.37 1000.23 282.18C998.552 283.984 996.576 285.43 994.296 286.5C992.01 287.58 989.537 288.115 986.876 288.115" fill="#231F20"/>
<path d="M1048.68 287.844V259.87L1037.13 281.056H1033.73L1022.13 259.87V287.844H1016V248.977H1022.57L1035.43 272.738L1048.3 248.977H1054.87V287.844H1048.68Z" fill="#231F20"/>
<path d="M1073.86 268.902H1083.99C1084.86 268.902 1085.66 268.718 1086.37 268.353C1087.08 267.986 1087.69 267.477 1088.2 266.819C1088.71 266.163 1089.11 265.401 1089.41 264.525C1089.7 263.649 1089.85 262.682 1089.85 261.623C1089.85 260.525 1089.68 259.541 1089.35 258.663C1089.02 257.787 1088.57 257.031 1087.98 256.394C1087.4 255.758 1086.73 255.263 1085.99 254.918C1085.24 254.571 1084.46 254.394 1083.66 254.394H1073.86V268.902ZM1067.73 287.845V248.977H1084.04C1085.79 248.977 1087.41 249.341 1088.89 250.073C1090.37 250.799 1091.63 251.757 1092.69 252.942C1093.75 254.129 1094.58 255.479 1095.18 256.993C1095.78 258.513 1096.08 260.053 1096.08 261.623C1096.08 263.263 1095.8 264.839 1095.24 266.354C1094.67 267.874 1093.88 269.223 1092.86 270.409C1091.83 271.595 1090.6 272.541 1089.16 273.255C1087.72 273.967 1086.12 274.319 1084.37 274.319H1073.86V287.845H1067.73Z" fill="#231F20"/>
<path d="M1123.84 272.738L1117.6 256.041L1111.14 272.738H1123.84ZM1114.91 248.977H1120.28L1135.61 287.845H1129.15L1125.04 277.278H1110.04L1105.99 287.845H1099.47L1114.91 248.977Z" fill="#231F20"/>
<path d="M1150.66 260.475V287.844H1144.53V248.976H1149.35L1171.57 277.001V249.032H1177.76V287.844H1172.67L1150.66 260.475Z" fill="#231F20"/>
<path d="M1193.47 248.976L1204.2 268.465L1215.04 248.976H1221.77L1207.26 273.936V287.844H1201.13V273.829L1186.74 248.976H1193.47Z" fill="#231F20"/>
<path d="M242.152 263.026C244.653 263.026 246.252 262.958 247.848 263.034C256.534 263.43 265.308 263.203 273.868 264.464C283.065 265.808 284.944 272.172 278.986 279.238C277.933 280.486 276.772 281.666 275.561 282.776C269.821 288.024 263.337 292.887 258.228 298.768C256.798 300.406 254.673 303.667 256.04 305.895C258.47 309.836 262.288 302.898 263.642 301.188C264.806 299.724 266.049 298.338 267.244 296.9C270.228 293.31 273.197 289.715 276.221 286.159C277.905 284.19 279.596 282.227 281.324 280.296C283.329 278.046 286.204 276.387 288.976 275.1C290.78 274.254 293.608 274.91 294.196 276.992C294.848 279.314 293.341 281.124 291.845 282.7C289.694 284.958 287.458 287.135 285.285 289.368C284.522 290.163 280.273 293.575 282.485 294.666C283.613 295.22 285.5 294.25 286.232 293.367C291.272 287.28 296.418 281.28 301.089 274.91C306.537 267.492 300.86 261.184 302.31 253.387C303.916 244.775 303.278 243.551 294.334 242.623C289.537 242.124 284.73 241.784 279.012 241.299C285.382 230.147 311.708 184.679 311.842 184.651C311.797 184.522 381.966 63.3976 381.966 63.3976C381.966 63.3976 404.1 101.768 407.633 107.388C412.666 115.412 413.43 122.742 406.649 130.248C404.985 132.094 404.642 135.138 403.7 137.632C404.24 137.955 404.789 138.284 405.333 138.612C406.774 137.672 408.321 136.852 409.646 135.766C412.212 133.655 414.682 129.623 418.273 132.619C421.813 135.57 419.132 139.34 417.214 142.354C415.634 144.832 413.796 147.228 411.682 149.251C406.34 154.356 400.75 159.199 395.308 164.2C393.502 165.859 391.645 167.528 390.192 169.476C389.561 170.304 389.902 171.855 389.804 173.075C391.042 173.067 392.497 173.456 393.465 172.946C395.013 172.108 396.402 170.814 397.59 169.476C407.326 158.586 417.022 147.659 426.676 136.695C428.505 134.626 429.982 132.438 431.093 130.171C438.921 119.772 430.228 104.091 430.228 104.091L419.745 84.8189C419.497 84.8602 381.946 21.1509 381.946 21.1509C381.946 21.1509 262.268 227.976 254.382 241.552C250.374 248.442 246.485 255.406 242.152 263.026Z" fill="#EE2E65"/>
<path d="M246.118 262.191C246.734 262.191 247.311 262.199 247.886 262.224C250.446 262.342 253.014 262.404 255.583 262.467C261.642 262.615 267.907 262.772 273.986 263.667C278.561 264.334 281.687 266.296 282.783 269.19C283.93 272.215 282.802 275.966 279.603 279.758C278.597 280.95 277.421 282.167 276.107 283.372C274.275 285.048 272.367 286.682 270.453 288.324C266.437 291.768 262.283 295.331 258.837 299.296C257.241 301.128 255.73 303.848 256.727 305.471C257.226 306.282 257.631 306.282 257.765 306.282C259.127 306.282 261.182 303.299 262.17 301.864C262.503 301.382 262.787 300.968 263.01 300.687C263.731 299.782 264.479 298.904 265.23 298.026C265.698 297.483 266.165 296.938 266.623 296.383L268.345 294.31C270.755 291.408 273.162 288.51 275.606 285.632C277.294 283.66 278.99 281.695 280.723 279.758C282.478 277.786 285.067 276.023 288.634 274.367C289.241 274.084 289.949 273.934 290.683 273.934C292.419 273.934 294.419 274.812 294.973 276.775C295.733 279.482 294.059 281.538 292.431 283.256C291.174 284.576 289.887 285.871 288.602 287.16C287.685 288.08 286.769 289.002 285.865 289.934C285.751 290.05 285.559 290.228 285.322 290.447C283.482 292.152 282.589 293.275 282.663 293.79C282.671 293.847 282.766 293.903 282.842 293.94C283.451 294.25 285.057 293.519 285.61 292.852L288.446 289.443C292.481 284.6 296.655 279.595 300.438 274.434C303.525 270.228 302.789 266.354 302.011 262.247C301.471 259.408 300.915 256.472 301.517 253.239C302.286 249.104 302.51 246.783 301.597 245.559C300.669 244.318 298.201 243.834 294.25 243.428C290.946 243.084 287.637 242.816 284.027 242.523L277.685 241.996L278.311 240.898C278.615 240.366 306.877 190.946 311.151 184.54C311.95 182.648 319.451 169.7 381.267 62.9922L381.969 61.7829L382.666 62.9936C382.887 63.3776 404.833 101.415 408.315 106.96C414.037 116.078 413.698 123.651 407.249 130.788C406.231 131.916 405.753 133.61 405.243 135.402C405.065 136.036 404.886 136.668 404.681 137.28L405.319 137.663C405.641 137.462 405.962 137.263 406.285 137.064C407.303 136.44 408.266 135.852 409.133 135.14C409.627 134.735 410.115 134.255 410.61 133.771C412.133 132.283 413.705 130.743 415.73 130.743C416.763 130.743 417.791 131.166 418.791 132C422.714 135.268 420.085 139.372 418.165 142.367L417.895 142.787C416.119 145.572 414.218 147.942 412.241 149.834C408.891 153.036 405.393 156.182 402.007 159.223C399.951 161.072 397.891 162.924 395.853 164.795L395.543 165.083C393.882 166.607 392.165 168.184 390.838 169.959C390.573 170.31 390.597 171.128 390.617 171.848C390.622 172.002 390.625 172.154 390.629 172.303C390.773 172.315 390.915 172.327 391.058 172.338C391.871 172.408 392.697 172.438 393.089 172.231C394.349 171.551 395.626 170.472 396.986 168.94C406.617 158.171 416.401 147.14 426.07 136.162C427.837 134.162 429.283 132.028 430.366 129.818C437.865 119.83 429.607 104.634 429.522 104.48L419.035 85.2056L419.146 85.1456C417.629 83.1816 411.702 73.2216 381.954 22.7509C372.145 39.7029 262.563 229.074 255.082 241.958C252.333 246.682 249.639 251.442 246.821 256.422L243.542 262.214C243.878 262.211 244.197 262.206 244.502 262.203L246.118 262.191ZM257.765 307.896C257.109 307.896 256.155 307.623 255.351 306.318C253.522 303.332 256.623 299.379 257.618 298.236C261.142 294.184 265.341 290.582 269.403 287.098C271.303 285.467 273.198 283.842 275.018 282.18C276.279 281.023 277.409 279.859 278.37 278.718C281.173 275.392 282.203 272.215 281.274 269.76C280.394 267.442 277.722 265.842 273.751 265.262C267.769 264.383 261.553 264.231 255.543 264.083C252.963 264.019 250.383 263.956 247.811 263.839C247.258 263.811 246.707 263.804 246.118 263.804L244.519 263.819C243.817 263.824 243.042 263.832 242.151 263.832H240.765L245.417 255.627C248.237 250.64 250.933 245.876 253.685 241.144C261.479 227.727 380.051 22.8149 381.249 20.7469L381.941 19.5496L382.643 20.7402C394.811 41.3869 417.666 80.0776 420.166 84.0083H420.222L430.938 103.703C431.298 104.356 439.787 119.96 431.737 130.659C430.67 132.87 429.143 135.124 427.283 137.23C417.61 148.211 407.825 159.243 398.193 170.015C396.706 171.688 395.285 172.879 393.851 173.656C393.122 174.042 392.071 174.046 390.917 173.947C390.557 173.916 390.194 173.884 389.847 173.884H388.974L388.999 173.011C389.026 172.66 389.014 172.278 389.002 171.895C388.973 170.858 388.942 169.784 389.55 168.987C390.959 167.096 392.734 165.467 394.45 163.89L394.761 163.607C396.805 161.73 398.865 159.875 400.927 158.023C404.303 154.988 407.793 151.851 411.125 148.666C413.009 146.864 414.83 144.594 416.533 141.919L416.805 141.495C419.018 138.042 420.383 135.427 417.757 133.239C417.046 132.647 416.382 132.359 415.73 132.359C414.366 132.359 413.03 133.663 411.739 134.926C411.21 135.444 410.686 135.955 410.157 136.39C409.203 137.171 408.147 137.818 407.129 138.442C406.674 138.72 406.221 138.999 405.775 139.288L405.351 139.564L402.707 137.976L402.945 137.346C403.231 136.586 403.459 135.774 403.69 134.962C404.225 133.07 404.779 131.115 406.05 129.707C412.022 123.098 412.299 116.346 406.949 107.818C403.803 102.815 385.758 71.5816 381.965 65.0096C374.847 77.2976 316.182 178.572 312.721 184.726L312.899 185.25L312.341 185.37C310.153 188.984 287.267 228.51 280.343 240.599L284.158 240.915C287.781 241.207 291.102 241.476 294.418 241.819C299.019 242.299 301.594 242.858 302.891 244.595C304.17 246.307 303.979 248.839 303.103 253.536C302.558 256.47 303.086 259.254 303.597 261.947C304.406 266.212 305.242 270.62 301.741 275.39C297.927 280.587 293.738 285.614 289.685 290.478L286.853 293.882C285.918 295.01 283.529 296.07 282.127 295.391C281.358 295.01 281.125 294.436 281.065 294.023C280.847 292.531 282.507 290.852 284.225 289.264C284.433 289.072 284.601 288.914 284.703 288.81C285.617 287.87 286.537 286.946 287.457 286.022C288.734 284.738 290.011 283.454 291.261 282.143C292.701 280.624 293.951 279.102 293.418 277.211C292.951 275.552 290.606 275.224 289.318 275.831C285.951 277.392 283.534 279.028 281.926 280.834C280.201 282.76 278.515 284.719 276.835 286.682C274.397 289.551 271.993 292.446 269.589 295.342L267.866 297.416C267.401 297.975 266.93 298.527 266.458 299.076C265.721 299.94 264.983 300.8 264.275 301.69C264.07 301.948 263.809 302.332 263.499 302.778C261.643 305.475 259.809 307.896 257.765 307.896" fill="#EE2E65"/>
<path d="M391.415 171.558C392.087 171.615 392.658 171.546 392.713 171.514C393.875 170.889 395.081 169.867 396.386 168.403C401.05 163.186 405.709 157.955 410.355 152.719C407.783 155.114 405.173 157.461 402.561 159.807C400.502 161.661 398.442 163.515 396.402 165.39L396.089 165.677C394.455 167.174 392.765 168.726 391.485 170.442C391.409 170.599 391.409 171.13 391.415 171.558ZM290.685 273.125C293.135 273.125 295.173 274.506 295.75 276.557C296.002 277.458 296.018 278.305 295.877 279.086C297.213 277.389 298.519 275.681 299.786 273.951C302.666 270.033 301.995 266.494 301.219 262.394C300.663 259.479 300.097 256.473 300.721 253.09C301.418 249.363 301.679 247.017 300.951 246.042C300.203 245.038 297.801 244.603 294.166 244.225C290.899 243.89 287.625 243.626 284.061 243.335L276.354 242.693L277.609 240.497C302.903 196.222 308.983 186.162 310.718 183.814C312.794 179.582 323.977 160.281 380.565 62.5861L381.966 60.1674L383.363 62.5901C383.583 62.9714 405.526 100.999 409.002 106.53C414.943 115.999 414.578 123.877 407.847 131.327C406.958 132.317 406.503 133.919 406.025 135.617C405.949 135.881 405.873 136.151 405.794 136.418C405.817 136.405 405.841 136.39 405.866 136.373C406.857 135.767 407.798 135.195 408.615 134.518C409.097 134.129 409.566 133.661 410.042 133.195C411.607 131.667 413.379 129.937 415.731 129.937C416.955 129.937 418.158 130.419 419.309 131.377C423.781 135.105 420.69 139.923 418.841 142.807L418.577 143.223C418.401 143.501 418.223 143.773 418.041 144.043C420.519 141.239 422.994 138.437 425.465 135.629C427.187 133.681 428.591 131.603 429.641 129.463C436.921 119.746 428.897 105.021 428.815 104.871L418.326 85.5875L418.514 85.4874C416.302 82.6088 409.455 71.0075 381.959 24.3515C368.613 47.4141 263.163 229.647 255.777 242.363C253.007 247.123 250.295 251.919 247.457 256.938L244.934 261.393L246.113 261.379C246.743 261.379 247.331 261.393 247.919 261.418C250.471 261.537 253.037 261.594 255.601 261.657C261.681 261.809 267.977 261.967 274.105 262.862C278.983 263.581 282.333 265.726 283.538 268.905C284.458 271.321 284.074 274.134 282.471 277.042C284.026 275.843 285.935 274.733 288.294 273.637C289.006 273.302 289.833 273.125 290.685 273.125V273.125ZM286.982 289.942C286.802 290.125 286.622 290.309 286.443 290.49C286.326 290.617 286.125 290.799 285.871 291.033C284.873 291.961 284.27 292.603 283.919 293.045C284.358 292.867 284.786 292.586 284.989 292.338L286.982 289.942ZM273.842 286.467C272.895 287.293 271.938 288.113 270.979 288.933C266.986 292.358 262.854 295.903 259.447 299.826C257.922 301.581 256.73 303.933 257.417 305.049C257.606 305.363 257.745 305.453 257.777 305.471C258.401 305.459 259.657 304.09 261.505 301.409C261.851 300.905 262.147 300.475 262.378 300.186C263.113 299.265 263.877 298.369 264.642 297.474L268.033 293.423C269.963 291.102 271.894 288.775 273.842 286.467ZM257.763 308.701C256.899 308.701 255.663 308.362 254.663 306.739C252.547 303.29 255.922 298.949 257.01 297.706C260.571 293.606 264.794 289.985 268.878 286.485C270.771 284.858 272.661 283.242 274.473 281.585C275.703 280.455 276.807 279.318 277.753 278.197C280.359 275.105 281.342 272.21 280.519 270.047C279.747 268.015 277.306 266.595 273.634 266.061C267.698 265.19 261.507 265.037 255.518 264.886C252.931 264.823 250.349 264.761 247.773 264.642C247.233 264.622 246.694 264.609 246.113 264.609L239.377 264.642L244.643 255.35C247.495 250.315 250.21 245.513 252.986 240.743C260.867 227.162 380.546 20.3408 380.546 20.3408L381.935 17.9488L383.334 20.3301C392.866 36.5021 417.018 77.4074 420.606 83.1914H420.697L431.647 103.319C432.019 103.981 440.746 120.033 432.382 131.143C431.363 133.285 429.798 135.599 427.887 137.767C418.23 148.73 408.535 159.661 398.795 170.555C397.239 172.303 395.749 173.549 394.231 174.366C393.349 174.833 392.173 174.863 390.854 174.751C390.513 174.722 390.178 174.69 389.858 174.69H388.107L388.193 172.946C388.221 172.625 388.205 172.27 388.198 171.919C388.165 170.795 388.129 169.521 388.905 168.499C390.359 166.55 392.159 164.898 393.907 163.294L394.217 163.011C396.266 161.127 398.335 159.267 400.403 157.407C403.822 154.333 407.242 151.259 410.566 148.085C412.398 146.33 414.181 144.109 415.851 141.485L416.122 141.062C418.521 137.325 419.205 135.497 417.239 133.859C416.678 133.39 416.186 133.166 415.731 133.166C414.691 133.166 413.477 134.355 412.301 135.502C411.754 136.038 411.217 136.562 410.666 137.01C409.674 137.83 408.594 138.493 407.55 139.13C407.102 139.401 406.654 139.679 406.214 139.962L405.369 140.518L401.713 138.318L402.189 137.062C402.47 136.319 402.693 135.529 402.915 134.733C403.475 132.758 404.055 130.711 405.45 129.163C411.217 122.781 411.462 116.523 406.265 108.247C403.235 103.421 386.915 75.1994 381.959 66.6208C358.755 106.682 317.633 177.714 313.591 184.823L313.922 185.857L312.851 186.086C309.943 190.961 289.026 227.086 281.677 239.898L284.321 240.118C287.909 240.41 291.207 240.674 294.501 241.014C299.339 241.519 302.063 242.138 303.541 244.111C305.13 246.243 304.691 249.426 303.899 253.685C303.382 256.467 303.871 259.053 304.391 261.795C305.23 266.23 306.101 270.815 302.391 275.862C298.557 281.091 294.353 286.138 290.287 291.015L287.474 294.401C286.383 295.714 283.57 296.999 281.769 296.11C280.926 295.695 280.39 294.994 280.265 294.142C279.993 292.262 281.803 290.402 283.677 288.667C283.873 288.485 284.026 288.346 284.121 288.245C285.046 287.299 285.973 286.365 286.906 285.431C288.17 284.157 289.439 282.89 290.678 281.589C292.243 279.931 293.018 278.777 292.639 277.433C292.337 276.342 290.546 276.151 289.659 276.562C286.389 278.083 284.058 279.653 282.529 281.369C280.806 283.294 279.122 285.249 277.447 287.21C275.117 289.947 272.817 292.717 270.518 295.486L267.099 299.574C266.355 300.437 265.617 301.303 264.905 302.198C264.709 302.443 264.457 302.809 264.161 303.238C262.574 305.547 260.401 308.701 257.763 308.701" fill="#EE2E65"/>
<path d="M399.721 163.458C398.795 164.297 397.868 165.139 396.947 165.985L396.636 166.27C395.081 167.695 393.479 169.166 392.255 170.763C392.323 170.762 392.381 170.755 392.428 170.75C393.493 170.153 394.583 169.213 395.783 167.867C397.097 166.397 398.409 164.927 399.721 163.458ZM391.935 172.387C391.753 172.387 391.556 172.379 391.348 172.363L390.62 172.302L390.608 171.571C390.595 170.702 390.631 170.357 390.756 170.093C392.167 168.177 393.883 166.603 395.544 165.083L395.856 164.795C397.899 162.919 399.96 161.065 402.02 159.207C404.631 156.865 407.237 154.521 409.804 152.13L410.959 153.258C406.313 158.491 401.653 163.722 396.989 168.942C395.612 170.483 394.339 171.557 393.092 172.225C393.039 172.259 392.82 172.387 391.935 172.387ZM290.684 272.318C293.503 272.318 295.851 273.933 296.527 276.338C296.571 276.489 296.607 276.642 296.637 276.793C297.487 275.695 298.319 274.589 299.136 273.477C301.805 269.842 301.196 266.625 300.427 262.553C299.859 259.57 299.272 256.487 299.928 252.946C300.288 251.006 300.961 247.405 300.304 246.525C299.617 245.603 295.88 245.215 294.083 245.03C290.895 244.702 287.697 244.442 284.229 244.159L275.024 243.393L276.908 240.097C303.284 193.927 308.472 185.493 310.069 183.335C312.064 179.238 323.491 159.509 378.405 64.7059L381.968 58.5539L384.18 62.3872C387.881 68.8019 406.511 101.047 409.687 106.101C415.849 115.925 415.457 124.11 408.445 131.869C407.884 132.495 407.503 133.482 407.161 134.597C407.493 134.369 407.809 134.138 408.105 133.895C408.535 133.543 408.955 133.13 409.38 132.713C411.075 131.059 413.052 129.129 415.732 129.129C417.151 129.129 418.528 129.677 419.827 130.758C422.639 133.103 422.788 135.83 422.045 138.289C422.984 137.223 423.921 136.158 424.86 135.097C426.528 133.205 427.896 131.19 428.916 129.107C435.933 119.718 428.188 105.407 428.108 105.263L417.227 85.2606L417.315 85.2099C414.672 81.4192 407.637 69.5099 381.967 25.9526L363.12 58.5205C327.875 119.425 262.271 232.793 256.475 242.77C253.708 247.529 250.997 252.319 248.16 257.337L246.327 260.573C246.892 260.577 247.423 260.589 247.955 260.61C250.273 260.721 252.597 260.777 254.924 260.834L255.62 260.85C261.725 261.001 268.036 261.158 274.221 262.065C279.403 262.827 282.979 265.154 284.293 268.618C285.012 270.507 285.015 272.614 284.317 274.815C285.392 274.169 286.599 273.535 287.953 272.905C288.771 272.519 289.715 272.318 290.684 272.318V272.318ZM294.503 282.134L295.081 278.941C295.212 278.229 295.175 277.495 294.972 276.774C294.495 275.074 292.771 273.933 290.684 273.933C289.951 273.933 289.244 274.085 288.636 274.367C286.307 275.449 284.452 276.534 282.965 277.682L279.893 280.047L281.765 276.653C283.259 273.942 283.611 271.362 282.784 269.193C281.687 266.301 278.563 264.334 273.987 263.659C267.899 262.771 261.637 262.615 255.58 262.465L254.884 262.449C252.547 262.389 250.208 262.333 247.883 262.225C247.307 262.199 246.732 262.187 246.112 262.187L243.539 262.215L246.755 256.542C249.593 251.518 252.308 246.719 255.079 241.958C260.873 231.982 326.477 118.615 361.723 57.7099L381.953 22.7512L382.655 23.9419C410.381 70.9886 417.008 82.2006 419.155 84.9939L419.735 85.7512L419.421 85.9192L429.525 104.486C429.605 104.634 437.864 119.833 430.288 129.947C429.281 132.031 427.835 134.166 426.071 136.163C423.597 138.971 421.127 141.774 418.645 144.578L417.371 143.594C417.551 143.327 417.723 143.061 417.896 142.79L418.16 142.374C420.467 138.775 422.415 135.015 418.792 131.997C417.793 131.166 416.764 130.743 415.732 130.743C413.711 130.743 412.133 132.281 410.611 133.767C410.051 134.319 409.593 134.765 409.128 135.145C408.269 135.85 407.313 136.434 406.3 137.054L404.504 138.151L405.249 135.393C405.753 133.609 406.229 131.919 407.247 130.787C413.697 123.646 414.039 116.077 408.316 106.961C405.128 101.882 386.485 69.6139 382.781 63.1952L381.964 61.7806L379.803 65.5152C324.911 160.278 313.489 179.999 311.444 184.17C309.799 186.418 304.645 194.799 278.311 240.898L277.683 241.991L284.36 242.55C287.841 242.834 291.048 243.094 294.249 243.422C298.296 243.843 300.667 244.311 301.599 245.559C302.512 246.783 302.287 249.103 301.513 253.239C300.915 256.486 301.472 259.411 302.012 262.243C302.789 266.358 303.523 270.234 300.439 274.43C299.164 276.166 297.853 277.881 296.511 279.585L294.503 282.134ZM266.791 293.651C264.405 295.79 262.097 298.006 260.057 300.357C258.612 302.015 257.888 303.741 258.039 304.453C258.429 304.106 259.276 303.219 260.839 300.953C261.199 300.429 261.508 299.985 261.747 299.685C262.487 298.754 263.256 297.853 264.029 296.95L266.791 293.651ZM257.56 306.282L257.361 306.166C257.137 306.03 256.921 305.794 256.724 305.466C255.729 303.851 257.241 301.133 258.839 299.297C262.287 295.325 266.439 291.765 270.453 288.319C271.411 287.499 272.368 286.685 273.311 285.857L274.459 286.986C272.769 288.989 271.091 291.009 269.415 293.025L265.263 297.99C264.496 298.886 263.74 299.777 263.008 300.691C262.788 300.969 262.504 301.381 262.169 301.867C259.38 305.914 258.448 306.266 257.792 306.279L257.56 306.282ZM246.111 263.802C246.703 263.802 247.251 263.815 247.801 263.833C250.38 263.953 252.957 264.017 255.537 264.081C261.635 264.234 267.809 264.389 273.751 265.262C277.719 265.839 280.391 267.438 281.275 269.761C282.205 272.21 281.175 275.39 278.371 278.717C277.419 279.846 276.292 281.01 275.019 282.181C273.349 283.707 271.617 285.195 269.877 286.694L269.405 287.097C265.343 290.579 261.144 294.177 257.62 298.237C256.909 299.047 253.467 303.246 255.351 306.318C255.996 307.365 256.808 307.894 257.764 307.894C259.981 307.894 262.012 304.938 263.495 302.781C263.815 302.319 264.073 301.946 264.272 301.697C264.993 300.791 265.737 299.918 266.488 299.047L269.899 294.97C272.197 292.199 274.5 289.429 276.832 286.687C278.512 284.719 280.201 282.761 281.927 280.83C283.528 279.034 285.947 277.399 289.319 275.831C289.703 275.654 290.193 275.557 290.699 275.557C292.071 275.557 293.139 276.209 293.417 277.218C293.947 279.098 292.701 280.622 291.265 282.146C290.188 283.274 289.092 284.378 287.996 285.479L287.479 285.999C286.545 286.933 285.621 287.866 284.699 288.81C284.631 288.882 284.513 288.991 284.368 289.129C282.583 290.779 280.848 292.531 281.063 294.026C281.111 294.345 281.239 294.629 281.444 294.869L283.287 292.543C283.713 292.007 284.397 291.298 285.323 290.439C285.616 290.171 285.761 290.041 285.849 289.942L286.407 289.377L287.604 290.459L285.611 292.857C285.268 293.271 284.667 293.613 284.221 293.793L281.472 294.903C281.641 295.093 281.861 295.257 282.127 295.389C282.411 295.529 282.751 295.597 283.141 295.597C284.555 295.597 286.168 294.709 286.853 293.885L289.665 290.497C293.715 285.643 297.897 280.625 301.741 275.386C305.24 270.623 304.444 266.414 303.6 261.954C303.064 259.131 302.56 256.473 303.107 253.537C303.86 249.481 304.287 246.465 302.893 244.595C301.596 242.861 299.02 242.299 294.417 241.819C291.205 241.486 287.984 241.226 284.495 240.942L280.347 240.598L280.977 239.498C288.152 226.989 309.252 190.545 312.156 185.673L312.336 185.37L312.881 185.253L312.715 184.733L312.889 184.427C316.571 177.949 352.021 116.701 381.261 66.2152L381.961 65.0072L382.659 66.2166C386.165 72.2886 403.815 102.825 406.948 107.818C412.301 116.339 412.023 123.091 406.051 129.705C404.784 131.109 404.229 133.058 403.693 134.942C403.465 135.767 403.233 136.583 402.944 137.346L402.707 137.974L405.349 139.565L405.771 139.287C406.224 138.997 406.679 138.713 407.133 138.439C408.092 137.851 409.184 137.187 410.153 136.387C410.688 135.953 411.208 135.445 411.735 134.927C413.037 133.655 414.367 132.359 415.732 132.359C416.387 132.359 417.048 132.647 417.757 133.239C420.384 135.43 419.019 138.043 416.804 141.499L416.531 141.922C414.832 144.591 413.012 146.862 411.124 148.666C407.845 151.799 404.425 154.875 401.115 157.854L400.944 158.007C398.877 159.866 396.809 161.723 394.761 163.606L394.452 163.89C392.736 165.465 390.963 167.091 389.551 168.982C388.941 169.789 388.972 170.858 389.005 171.893C389.017 172.409 389.021 172.726 388.996 173.017L388.953 173.883H389.857C390.165 173.883 390.485 173.909 390.811 173.937C392.433 174.077 393.223 173.986 393.855 173.651C395.28 172.883 396.701 171.695 398.193 170.019C407.619 159.477 417.405 148.445 427.283 137.234C429.14 135.125 430.652 132.901 431.653 130.797C439.857 119.873 431.033 103.875 430.944 103.715L419.919 83.6166C416.248 77.6966 391.144 35.1712 382.639 20.7406L381.939 19.5485L381.245 20.7472C380.049 22.8152 261.476 227.723 253.684 241.147C251.081 245.623 248.531 250.125 245.872 254.819L240.765 263.827L246.111 263.802ZM257.764 309.51C256.696 309.51 255.171 309.102 253.976 307.162C251.56 303.226 255.223 298.525 256.403 297.174C260.003 293.03 264.249 289.39 268.353 285.874L268.823 285.467C270.552 283.981 272.272 282.505 273.928 280.987C275.149 279.869 276.228 278.753 277.136 277.677C279.545 274.819 280.479 272.21 279.764 270.333C279.099 268.583 276.881 267.35 273.517 266.858C267.669 265.999 261.545 265.846 255.621 265.698C252.907 265.631 250.317 265.569 247.735 265.447C247.213 265.43 246.684 265.417 246.112 265.417L237.987 265.455L244.467 254.025C247.129 249.322 249.681 244.815 252.287 240.337C260.079 226.914 378.651 22.0046 379.848 19.9366L381.929 16.3486L384.029 19.9206C392.369 34.0699 416.665 75.2272 421.056 82.3846H421.083L421.407 82.8059L432.357 102.934C432.74 103.617 441.773 120.009 433.027 131.63C432.047 133.727 430.451 136.083 428.492 138.302C418.613 149.515 408.825 160.549 399.397 171.094C397.779 172.913 396.216 174.213 394.615 175.078C393.685 175.569 392.376 175.697 390.784 175.554C390.397 175.521 390.121 175.498 389.857 175.498H387.259L387.385 172.906C387.408 172.639 387.4 172.385 387.395 172.126C387.355 170.753 387.308 169.266 388.261 168.01C389.76 166.002 391.591 164.325 393.36 162.702L393.669 162.417C395.721 160.534 397.793 158.669 399.864 156.807L400.036 156.651C403.335 153.683 406.748 150.615 410.007 147.499C411.803 145.782 413.537 143.614 415.171 141.051L415.443 140.626C418.024 136.605 418.025 135.563 416.723 134.479C416.327 134.149 415.984 133.974 415.732 133.974C415.025 133.974 413.835 135.133 412.879 136.067C412.303 136.634 411.744 137.174 411.179 137.637C410.124 138.505 408.98 139.205 407.971 139.819C407.527 140.089 407.085 140.362 406.651 140.643L405.388 141.471L400.72 138.663L401.433 136.775C401.707 136.057 401.923 135.289 402.137 134.517C402.727 132.439 403.333 130.31 404.849 128.622C410.405 122.474 410.617 116.695 405.58 108.677C402.605 103.934 386.657 76.3659 381.959 68.2339C353.273 117.761 318.939 177.081 314.469 184.915L314.964 186.458L313.364 186.802C309.965 192.539 290.567 226.042 283.009 239.199L284.624 239.333C288.128 239.618 291.36 239.879 294.584 240.21C299.655 240.741 302.531 241.415 304.187 243.629C305.973 246.025 305.524 249.37 304.693 253.833C304.203 256.47 304.68 258.983 305.185 261.645C306.016 266.042 306.957 271.015 303.044 276.342C299.169 281.622 294.969 286.658 290.907 291.533L288.095 294.919C287.169 296.029 285.12 297.211 283.141 297.211C282.501 297.211 281.917 297.086 281.411 296.837C280.323 296.297 279.632 295.382 279.467 294.263C279.137 291.986 281.095 289.957 283.128 288.075C283.383 287.842 283.471 287.757 283.532 287.694C284.471 286.731 285.4 285.798 286.335 284.862L286.852 284.343C287.939 283.246 289.027 282.153 290.095 281.033C291.659 279.374 292.107 278.519 291.863 277.651C291.752 277.254 290.529 277.062 289.999 277.295C286.832 278.766 284.584 280.275 283.131 281.906C281.412 283.826 279.732 285.778 278.06 287.734C275.733 290.469 273.437 293.234 271.139 296.003L267.72 300.091C266.973 300.958 266.241 301.814 265.537 302.701C265.353 302.93 265.119 303.27 264.843 303.671C263.139 306.15 260.832 309.51 257.764 309.51" fill="#EE2E65"/>
<path d="M0.384033 66.776H32.2707V230.815H0.384033V66.776Z" fill="#414142"/>
<path d="M98.3483 147.872H138.315C141.238 147.872 143.976 147.179 146.518 145.791C149.06 144.405 151.255 142.523 153.103 140.133C154.952 137.745 156.415 134.935 157.494 131.7C158.57 128.463 159.108 125 159.108 121.3C159.108 117.453 158.492 113.908 157.26 110.676C156.027 107.44 154.371 104.632 152.295 102.241C150.215 99.856 147.827 98.0107 145.134 96.6973C142.434 95.388 139.703 94.732 136.93 94.732H98.3483V147.872ZM66.4616 230.815V66.776H139.012C146.552 66.776 153.526 68.3587 159.916 71.5107C166.31 74.6707 171.819 78.8306 176.436 83.9893C181.06 89.152 184.675 95 187.298 101.547C189.912 108.095 191.224 114.679 191.224 121.3C191.224 131.933 188.567 141.596 183.255 150.295C177.94 159 170.74 165.276 161.651 169.127L199.082 230.815H163.268L129.767 175.829H98.3483V230.815H66.4616Z" fill="#414142"/>
<path d="M251.986 147.872H291.952C294.879 147.872 297.618 147.179 300.159 145.791C302.698 144.405 304.896 142.523 306.744 140.133C308.592 137.745 310.054 134.935 311.132 131.7C312.207 128.463 312.75 125 312.75 121.3C312.75 117.453 312.131 113.908 310.902 110.676C309.666 107.44 308.012 104.632 305.931 102.241C303.855 99.856 301.464 98.0107 298.771 96.6973C296.071 95.388 293.34 94.732 290.568 94.732H251.986V147.872ZM220.103 230.815V66.776H292.65C300.194 66.776 307.164 68.3587 313.558 71.5107C319.947 74.6707 325.454 78.8306 330.078 83.9893C334.698 89.152 338.316 95 340.932 101.547C343.551 108.095 344.863 114.679 344.863 121.3C344.863 131.933 342.208 141.596 336.894 150.295C331.579 159 324.378 165.276 315.291 169.127L352.723 230.815H316.906L283.406 175.829H251.986V230.815H220.103Z" fill="#414142"/>
<path d="M525.383 94.7313H472.936V230.815H441.285V94.7313H388.836V66.7753H525.383V94.7313Z" fill="#414142"/>
<path d="M807.496 125.69V230.815H775.609V66.7749H800.333L885.82 174.442V67.0043H917.7V230.815H891.826L807.496 125.69Z" fill="#414142"/>
<path d="M1035.3 167.507L1012.66 103.049L989.094 167.507H1035.3ZM998.561 66.7753H1026.75L1089.13 230.814H1056.32L1041.08 189.922H983.775L968.757 230.814H935.949L998.561 66.7753Z" fill="#414142"/>
<path d="M1107.15 230.815V66.776H1139.04V202.857H1222.67V230.815H1107.15Z" fill="#414142"/>
<path fill-rule="evenodd" clip-rule="evenodd" d="M251.04 333.662C252.989 336.91 254.124 340.405 250.501 343.502C247.956 345.685 244.958 348.226 241.957 344.297C239.338 340.865 237.73 337.245 242.096 333.51C245.228 330.836 247.901 330.464 251.04 333.662Z" fill="#DC3861"/>
<path d="M542.477 66.7787H574.361V230.815H542.477V66.7787Z" fill="#414142"/>
<path d="M623.397 148.796C623.397 155.883 624.473 162.739 626.632 169.362C628.788 175.984 631.907 181.834 635.989 186.919C640.069 192.002 645.076 196.084 651.007 199.16C656.933 202.247 663.675 203.784 671.221 203.784C678.923 203.784 685.737 202.21 691.669 199.047C697.596 195.895 702.604 191.694 706.688 186.458C710.765 181.222 713.849 175.33 715.929 168.782C718.009 162.236 719.049 155.576 719.049 148.796C719.049 141.714 717.929 134.859 715.699 128.235C713.464 121.614 710.304 115.758 706.227 110.675C702.141 105.592 697.135 101.548 691.207 98.5457C685.276 95.5444 678.617 94.0417 671.221 94.0417C663.519 94.0417 656.667 95.6217 650.66 98.7764C644.652 101.935 639.647 106.094 635.644 111.255C631.636 116.415 628.596 122.268 626.517 128.811C624.436 135.362 623.397 142.02 623.397 148.796ZM670.991 231.97C658.977 231.97 648.079 229.623 638.3 224.924C628.516 220.23 620.123 213.991 613.116 206.211C606.105 198.436 600.676 189.539 596.828 179.526C592.977 169.515 591.052 159.274 591.052 148.796C591.052 137.862 593.092 127.388 597.173 117.375C601.255 107.364 606.877 98.5097 614.039 90.8071C621.203 83.1057 629.712 76.9831 639.571 72.4377C649.425 67.8951 660.133 65.6217 671.685 65.6217C683.543 65.6217 694.364 68.0471 704.147 72.9004C713.925 77.7524 722.283 84.1057 729.213 91.9604C736.145 99.8164 741.535 108.752 745.387 118.762C749.235 128.775 751.164 138.942 751.164 149.26C751.164 160.198 749.159 170.63 745.155 180.566C741.148 190.5 735.603 199.28 728.521 206.902C721.435 214.528 712.961 220.614 703.107 225.156C693.248 229.699 682.543 231.97 670.991 231.97" fill="#414142"/>
<path d="M387.179 202.7C385.77 204.189 383.84 208.561 386.603 209.627C390.11 210.976 393.679 204.215 395.099 202.117C400.292 194.459 405.779 187.013 414.235 182.689C416.312 181.625 420.342 180.828 421.383 181.916C425.119 185.795 427.011 183.175 429.363 180.756C432.492 177.532 436.091 174.145 440.792 173.817C451.96 173.041 457.118 188.647 461.679 196.591C468.074 207.725 474.478 218.848 480.887 229.975C483.371 234.289 485.854 238.592 488.326 242.9C484.868 242.9 422.504 242.895 393.232 242.869C382.824 242.863 373.05 244.719 364.323 250.997C362.595 252.239 358.754 252.731 357.227 251.652C352.356 248.252 348.339 249.881 344.63 252.857C340.28 256.333 336.222 260.213 332.348 264.231C314.907 282.34 297.579 300.564 280.202 318.731C275.207 323.953 270.03 329.012 265.235 334.405C263.434 336.424 262.179 339.093 261.264 341.672C260.818 342.935 261.239 345.229 262.154 346.032C262.892 346.675 265.366 346.253 266.394 345.445C268.818 343.54 271.067 341.295 273.007 338.879C281.015 328.867 288.663 318.565 296.86 308.713C307.798 295.568 319.266 282.871 333.339 272.887C335.054 271.668 338.331 269.012 340.687 269.991C344.018 271.377 340.46 274.923 339.495 276.637C339.003 277.509 338.618 278.985 339.038 279.691C339.442 280.372 341.031 280.852 341.911 280.644C343.743 280.209 345.556 279.433 347.18 278.467C349.272 277.231 351.064 275.491 353.158 274.261C366.455 266.464 380.906 264.016 396.207 264.104C437.147 264.339 523.464 263.58 523.464 263.58L465.687 163.169C458.09 148.452 442.394 145.215 431.592 155.915C416.319 171.028 401.927 187.037 387.179 202.7Z" fill="#4AB8E3"/>
<path d="M351.818 250.558C349.748 250.558 347.624 251.489 345.136 253.489C341.298 256.554 337.306 260.251 332.93 264.793C321.078 277.099 309.278 289.457 297.48 301.813C291.916 307.642 286.352 313.467 280.784 319.29C279.148 321.002 277.491 322.695 275.834 324.389C272.499 327.802 269.05 331.331 265.839 334.942C264.352 336.61 263.106 338.897 262.027 341.943C261.68 342.915 262.05 344.866 262.686 345.422C262.724 345.454 262.931 345.535 263.376 345.535C264.254 345.535 265.384 345.211 265.895 344.81C268.256 342.957 270.438 340.79 272.378 338.373C275.536 334.423 278.638 330.427 281.742 326.435C286.427 320.406 291.27 314.171 296.239 308.197C306.767 295.546 318.491 282.429 332.872 272.226L333.383 271.857C334.966 270.709 337.36 268.973 339.57 268.973C340.08 268.973 340.559 269.062 340.996 269.246C341.959 269.646 342.564 270.253 342.791 271.046C343.256 272.665 341.972 274.471 340.942 275.925C340.646 276.342 340.375 276.721 340.199 277.035C339.734 277.857 339.55 278.975 339.732 279.278C339.855 279.486 340.66 279.886 341.442 279.886C341.579 279.886 341.672 279.87 341.726 279.859C343.399 279.462 345.142 278.739 346.767 277.774C347.768 277.185 348.687 276.477 349.66 275.733C350.639 274.982 351.654 274.206 352.75 273.563C364.699 266.558 378.256 263.295 395.415 263.295L396.21 263.298C401.676 263.327 407.956 263.342 414.728 263.342C454.63 263.342 512.438 262.867 522.075 262.786L464.987 163.571C460.727 155.321 453.631 150.414 445.988 150.414C440.954 150.414 436.172 152.515 432.16 156.489C421.23 167.306 410.567 178.778 400.256 189.873C396.104 194.342 391.95 198.811 387.767 203.253C386.858 204.214 385.742 206.507 386.06 207.918C386.167 208.39 386.432 208.697 386.894 208.873C389.287 209.778 392.231 205.147 393.736 202.747C394.003 202.322 394.236 201.95 394.431 201.666C399.77 193.794 405.274 186.363 413.867 181.97C415.431 181.169 417.799 180.587 419.498 180.587C420.648 180.587 421.476 180.847 421.966 181.358C423.086 182.519 424.036 183.086 424.875 183.086C426.026 183.086 427.06 182.001 428.255 180.747L428.786 180.195C432.128 176.749 435.804 173.354 440.735 173.011C450.387 172.371 455.602 182.821 459.771 191.179C460.683 193.009 461.546 194.738 462.379 196.191C468.775 207.321 475.179 218.445 481.586 229.573L489.722 243.707H488.326C484.868 243.707 422.504 243.701 393.232 243.677C381.376 243.677 372.355 246.213 364.794 251.651C363.627 252.491 361.595 253.053 359.736 253.053C358.859 253.053 357.628 252.927 356.762 252.311C355.07 251.134 353.454 250.558 351.818 250.558ZM263.376 347.151C262.603 347.151 262.014 346.981 261.624 346.641C260.399 345.567 259.984 342.865 260.504 341.402C261.654 338.159 263.004 335.693 264.632 333.87C267.87 330.227 271.332 326.686 274.679 323.259C276.332 321.573 277.984 319.882 279.618 318.173C285.186 312.354 290.748 306.526 296.311 300.698C308.112 288.339 319.912 275.979 331.766 263.67C336.191 259.082 340.234 255.337 344.126 252.227C349.134 248.211 353.29 247.921 357.688 250.99C358.095 251.277 358.84 251.438 359.736 251.438C361.26 251.438 362.952 250.987 363.851 250.341C371.702 244.693 381.022 242.061 393.179 242.061C420.598 242.085 476.902 242.093 486.931 242.093L480.186 230.379C473.778 219.253 467.374 208.129 460.979 196.994C460.123 195.499 459.248 193.75 458.324 191.899C454.363 183.958 449.402 174.026 440.847 174.622C436.486 174.927 433.068 178.097 429.943 181.317L429.424 181.859C428.094 183.255 426.72 184.701 424.875 184.701C423.574 184.701 422.242 183.973 420.802 182.477C420.775 182.446 420.512 182.203 419.498 182.203C418.048 182.203 415.944 182.719 414.6 183.409C406.35 187.629 400.984 194.878 395.768 202.571C395.582 202.843 395.359 203.199 395.104 203.605C393.46 206.227 390.71 210.61 387.543 210.61C387.123 210.61 386.71 210.531 386.312 210.379C385.344 210.005 384.711 209.275 384.484 208.274C384.02 206.217 385.41 203.395 386.592 202.145C390.772 197.707 394.922 193.243 399.075 188.773C409.396 177.667 420.068 166.181 431.026 155.341C435.344 151.062 440.516 148.799 445.988 148.799C454.247 148.799 461.879 154.033 466.403 162.799L524.852 264.377L523.47 264.389C522.824 264.395 458.17 264.957 414.728 264.957C407.952 264.957 401.671 264.943 396.202 264.913L395.415 264.91C378.555 264.91 365.256 268.105 353.567 274.957C352.556 275.55 351.627 276.262 350.643 277.017C349.675 277.757 348.672 278.525 347.594 279.161C345.828 280.211 343.928 280.994 342.096 281.429C340.964 281.703 338.97 281.165 338.344 280.105C337.691 279.007 338.254 277.194 338.792 276.242C338.99 275.887 339.291 275.459 339.624 274.991C340.367 273.945 341.49 272.362 341.239 271.49C341.207 271.381 341.11 271.039 340.376 270.734C338.767 270.069 335.998 271.955 334.33 273.166L333.806 273.543C319.576 283.641 307.938 296.662 297.482 309.231C292.528 315.183 287.694 321.41 283.018 327.426C279.908 331.425 276.802 335.427 273.638 339.382C271.619 341.897 269.35 344.147 266.892 346.079C265.996 346.786 264.444 347.151 263.376 347.151" fill="#4AB8E3"/>
<path d="M351.814 250.555C349.749 250.555 347.625 251.489 345.134 253.489C341.302 256.547 337.313 260.245 332.932 264.793C321.089 277.085 309.302 289.43 297.516 301.775C291.94 307.617 286.364 313.457 280.781 319.293C279.15 320.994 277.501 322.686 275.849 324.375C272.509 327.79 269.054 331.321 265.838 334.942C264.356 336.607 263.106 338.897 262.028 341.943C261.674 342.934 262.04 344.858 262.686 345.425C262.728 345.451 262.933 345.538 263.377 345.538C264.254 345.538 265.384 345.211 265.889 344.807C268.26 342.953 270.442 340.783 272.38 338.373C275.546 334.413 278.656 330.407 281.772 326.401C286.446 320.383 291.277 314.157 296.241 308.195C306.77 295.549 318.489 282.435 332.872 272.229L333.376 271.862C334.96 270.709 337.357 268.974 339.57 268.974C340.082 268.974 340.561 269.062 340.997 269.246C341.961 269.642 342.564 270.249 342.79 271.042C343.254 272.665 341.974 274.474 340.94 275.925C340.646 276.342 340.374 276.721 340.198 277.035C339.734 277.857 339.552 278.971 339.732 279.275C339.854 279.483 340.662 279.886 341.441 279.886C341.582 279.886 341.674 279.867 341.728 279.857C343.397 279.465 345.141 278.746 346.768 277.774C347.765 277.187 348.68 276.481 349.65 275.737C350.634 274.985 351.65 274.209 352.748 273.561C364.696 266.558 378.244 263.298 395.389 263.298H396.209C401.632 263.327 407.854 263.342 414.56 263.342C454.469 263.342 512.42 262.867 522.077 262.786L464.986 163.573C460.726 155.322 453.63 150.414 445.988 150.414C440.95 150.414 436.169 152.515 432.16 156.489C421.24 167.295 410.592 178.755 400.288 189.842C396.124 194.323 391.957 198.803 387.769 203.255C386.858 204.214 385.741 206.51 386.06 207.919C386.168 208.39 386.432 208.695 386.893 208.873C389.296 209.785 392.229 205.147 393.733 202.751C394.002 202.325 394.234 201.95 394.43 201.666C399.766 193.794 405.27 186.369 413.865 181.97C415.436 181.171 417.801 180.587 419.501 180.587C420.649 180.587 421.48 180.847 421.965 181.355C423.088 182.519 424.037 183.083 424.874 183.083C426.026 183.083 427.061 181.998 428.26 180.737L428.784 180.191C432.133 176.747 435.81 173.357 440.736 173.013C450.425 172.391 455.604 182.823 459.774 191.185C460.685 193.011 461.545 194.741 462.378 196.191C468.774 207.323 475.178 218.447 481.586 229.573L483.644 233.137C485.441 236.258 487.236 239.374 489.028 242.503L489.721 243.707H488.325C484.869 243.707 422.504 243.701 393.232 243.677C381.366 243.677 372.356 246.213 364.793 251.651C363.625 252.491 361.592 253.053 359.734 253.053C358.857 253.053 357.63 252.927 356.76 252.314C355.069 251.137 353.452 250.555 351.814 250.555ZM263.377 347.154C262.601 347.154 262.014 346.977 261.624 346.642C260.364 345.538 259.984 342.871 260.508 341.402C261.656 338.159 263.006 335.693 264.633 333.87C267.874 330.223 271.341 326.673 274.694 323.247C276.341 321.563 277.986 319.879 279.614 318.177C285.197 312.341 290.773 306.501 296.349 300.658C308.136 288.313 319.925 275.963 331.768 263.67C336.197 259.078 340.238 255.33 344.125 252.227C349.133 248.209 353.29 247.918 357.688 250.99C358.09 251.274 358.834 251.438 359.734 251.438C361.257 251.438 362.952 250.99 363.849 250.341C371.704 244.693 381.013 242.061 393.15 242.061C420.594 242.086 476.906 242.093 486.932 242.093C485.37 239.374 483.808 236.662 482.242 233.943L480.186 230.379C473.777 219.251 467.373 208.126 460.98 196.991C460.121 195.503 459.252 193.755 458.329 191.909C454.369 183.963 449.413 174.031 440.846 174.623C436.492 174.927 433.073 178.097 429.944 181.317L429.429 181.853C428.098 183.25 426.721 184.697 424.874 184.697C423.573 184.697 422.242 183.971 420.804 182.474C420.774 182.446 420.513 182.203 419.501 182.203C418.053 182.203 415.946 182.723 414.602 183.409C406.345 187.631 400.984 194.882 395.768 202.569C395.585 202.846 395.358 203.205 395.098 203.613C393.46 206.23 390.708 210.61 387.545 210.61H387.541C387.126 210.61 386.709 210.534 386.313 210.379C385.346 210.005 384.713 209.281 384.486 208.277C384.022 206.223 385.41 203.398 386.592 202.145C390.781 197.698 394.941 193.219 399.104 188.742C409.417 177.645 420.082 166.171 431.026 155.341C435.344 151.062 440.516 148.799 445.988 148.799C454.249 148.799 461.88 154.033 466.402 162.797L524.852 264.377L523.47 264.389C522.821 264.395 458.004 264.957 414.56 264.957C407.849 264.957 401.625 264.943 396.202 264.913H395.389C378.541 264.913 365.253 268.105 353.568 274.954C352.552 275.553 351.618 276.265 350.634 277.025C349.67 277.761 348.67 278.525 347.594 279.161C345.828 280.214 343.926 280.997 342.1 281.426C340.972 281.697 338.972 281.162 338.344 280.101C337.692 279.005 338.253 277.194 338.794 276.242C338.99 275.887 339.293 275.466 339.624 274.991C340.365 273.945 341.488 272.361 341.24 271.49C341.208 271.377 341.11 271.042 340.378 270.734C338.757 270.066 335.994 271.958 334.325 273.169L333.805 273.546C319.577 283.639 307.94 296.666 297.484 309.231C292.54 315.173 287.713 321.386 283.046 327.391C279.929 331.403 276.81 335.415 273.637 339.382C271.622 341.894 269.35 344.145 266.892 346.077C265.998 346.782 264.446 347.154 263.377 347.154" fill="#4AB8E3"/>
<path d="M440.913 173.811C440.872 173.815 440.83 173.816 440.789 173.819C439.474 173.909 438.249 174.239 437.092 174.74C438.249 174.239 439.477 173.909 440.792 173.819C440.832 173.816 440.873 173.815 440.913 173.811ZM445.989 149.608C453.938 149.608 461.309 154.69 465.706 163.202L475.441 180.122L465.704 163.199C461.305 154.674 453.941 149.608 445.989 149.608ZM434.086 176.487C432.396 177.712 430.848 179.227 429.362 180.752L428.841 181.294C428.3 181.867 427.77 182.424 427.221 182.879C427.77 182.428 428.301 181.87 428.844 181.298L429.36 180.759C430.845 179.228 432.396 177.712 434.086 176.487V176.487ZM458.497 190.435C458.685 190.81 458.869 191.179 459.052 191.548C459.788 193.024 460.49 194.435 461.174 195.689C460.502 194.452 459.814 193.071 459.093 191.63C458.897 191.236 458.698 190.836 458.497 190.435V190.435ZM416.013 181.985C415.366 182.184 414.752 182.424 414.232 182.689C406.728 186.531 401.601 192.767 396.848 199.571C401.612 192.758 406.744 186.52 414.236 182.689C414.757 182.424 415.368 182.184 416.013 181.985V181.985ZM408.949 179.358C405.856 182.664 402.79 185.962 399.754 189.228L399.056 189.98C395.106 194.228 391.156 198.478 387.181 202.7C386.924 202.971 386.652 203.335 386.394 203.754C386.653 203.335 386.925 202.971 387.185 202.7C391.369 198.251 395.534 193.772 399.696 189.294L399.873 189.102C402.87 185.878 405.896 182.623 408.949 179.358V179.358ZM394.348 203.294C393.342 204.884 392.286 206.46 391.184 207.666C392.457 206.29 393.569 204.532 394.348 203.294ZM386.457 209.566C386.505 209.59 386.553 209.608 386.606 209.627C387.214 209.867 387.898 209.851 388.552 209.617C387.905 209.841 387.225 209.863 386.606 209.627C386.554 209.608 386.505 209.59 386.457 209.566ZM473.941 217.915C476.256 221.934 478.57 225.955 480.886 229.975L486.988 240.57C485.717 238.356 484.444 236.145 483.169 233.933L480.888 229.975C478.572 225.955 476.256 221.934 473.941 217.915V217.915ZM393.15 242.869C381.19 242.869 372.03 245.451 364.322 250.997C364.25 251.047 364.177 251.099 364.1 251.145C364.177 251.099 364.252 251.047 364.322 250.997C372.017 245.46 381.188 242.879 393.173 242.869H393.15ZM351.814 249.747C353.616 249.747 355.385 250.372 357.222 251.652C357.918 252.143 358.973 252.246 359.734 252.246C359.113 252.246 357.958 252.171 357.224 251.649C354.44 249.707 351.913 249.238 349.12 250.215C350.036 249.899 350.926 249.747 351.814 249.747ZM345.349 252.303C345.113 252.48 344.873 252.663 344.63 252.858C343.538 253.728 342.436 254.652 341.31 255.632C342.436 254.652 343.538 253.728 344.632 252.858C344.873 252.663 345.113 252.48 345.349 252.303ZM396.202 264.104C398.857 264.12 401.704 264.13 404.702 264.139C401.704 264.13 398.858 264.12 396.205 264.104H396.202ZM445.021 264.08C434.993 264.12 425.07 264.145 416.013 264.148C425.07 264.145 434.99 264.12 445.021 264.08ZM341 270.135C341.553 270.432 341.886 270.804 342.017 271.273C342.021 271.285 342.024 271.299 342.026 271.308C342.024 271.295 342.018 271.281 342.016 271.264C341.88 270.795 341.546 270.423 341 270.135V270.135ZM339.57 269.781C337.657 269.781 335.385 271.4 333.97 272.428C336.021 270.952 338.445 269.489 340.212 269.844C340.009 269.804 339.794 269.781 339.57 269.781ZM333.608 272.694L333.348 272.883C332.644 273.384 331.944 273.889 331.253 274.401C331.941 273.892 332.638 273.387 333.338 272.889L333.608 272.694ZM341.857 272.828C341.581 273.541 341.081 274.317 340.502 275.147C341.036 274.391 341.568 273.589 341.857 272.828ZM394.837 264.104C378.104 264.173 364.846 267.407 353.157 274.256C352.109 274.876 351.117 275.632 350.158 276.364C349.504 276.865 348.909 277.324 348.312 277.736C348.941 277.3 349.55 276.839 350.144 276.383C351.048 275.689 352.07 274.9 353.158 274.261C364.846 267.407 378.104 264.173 394.837 264.104V264.104ZM339.341 276.941C339.11 277.427 338.94 277.996 338.88 278.508C338.945 277.97 339.132 277.393 339.341 276.941ZM337.269 259.327C335.68 260.843 334.044 262.475 332.35 264.231C320.812 276.207 309.324 288.238 297.841 300.268L296.933 301.217C291.357 307.059 285.78 312.899 280.198 318.733C280.144 318.789 280.09 318.847 280.036 318.904C280.09 318.847 280.144 318.789 280.198 318.733C285.778 312.899 291.356 307.061 296.93 301.22C308.718 288.872 320.506 276.528 332.35 264.231C334.044 262.475 335.68 260.843 337.269 259.327V259.327ZM304.474 299.795C301.858 302.763 299.329 305.752 296.864 308.713C292.514 313.937 288.261 319.368 284.13 324.681C288.262 319.372 292.516 313.94 296.864 308.713C299.33 305.752 301.858 302.767 304.474 299.795V299.795ZM281.39 328.209C279.8 330.252 278.208 332.295 276.608 334.333C278.209 332.295 279.801 330.252 281.39 328.209ZM263.134 344.716C263.189 344.727 263.27 344.732 263.378 344.732C264.129 344.732 265.057 344.439 265.385 344.176C267.698 342.367 269.84 340.248 271.75 337.869C274.708 334.171 277.614 330.428 280.526 326.688L281.3 325.695C285.924 319.74 290.706 313.581 295.622 307.679C306.192 294.981 317.964 281.817 332.405 271.569L332.904 271.211C334.564 270 337.077 268.167 339.57 268.167C340.197 268.167 340.782 268.281 341.309 268.501C342.802 269.116 343.362 270.104 343.568 270.823C344.141 272.826 342.672 274.888 341.597 276.395C341.28 276.843 341.053 277.161 340.904 277.431C340.612 277.944 340.489 278.54 340.472 278.833C340.678 278.939 341.062 279.08 341.441 279.08C343.137 278.695 344.801 278.007 346.356 277.08C347.284 276.534 348.153 275.869 349.074 275.163C350.176 274.32 351.206 273.535 352.337 272.865C364.416 265.784 378.094 262.491 395.389 262.491H396.209C401.634 262.522 407.856 262.533 414.56 262.533C453.504 262.533 509.481 262.083 520.688 261.992L464.288 163.975C460.156 155.979 453.324 151.223 445.989 151.223C441.169 151.223 436.585 153.242 432.729 157.062C421.882 167.794 411.294 179.186 401.056 190.202L400.88 190.391C396.714 194.875 392.548 199.354 388.357 203.808C387.501 204.71 386.622 206.74 386.848 207.743C386.896 207.951 386.973 208.04 387.181 208.117C388.934 208.763 391.873 204.192 393.05 202.323C393.385 201.786 393.59 201.461 393.765 201.209C399.157 193.257 404.724 185.742 413.497 181.251C415.204 180.387 417.67 179.781 419.501 179.781C420.878 179.781 421.902 180.122 422.549 180.796C423.494 181.778 424.277 182.278 424.876 182.278C425.685 182.278 426.652 181.256 427.674 180.18L428.201 179.633C431.664 176.071 435.474 172.569 440.68 172.207C440.98 172.187 441.27 172.177 441.556 172.177C451.198 172.177 456.337 182.484 460.466 190.763C461.43 192.693 462.272 194.382 463.078 195.79C469.476 206.92 475.878 218.044 482.286 229.169L484.569 233.127C486.293 236.119 488.012 239.104 489.726 242.103L491.117 244.515H488.326C484.869 244.515 422.504 244.508 393.232 244.484C381.572 244.484 372.686 246.969 365.265 252.309C363.953 253.251 361.782 253.861 359.734 253.861C358.74 253.861 357.336 253.707 356.297 252.975C352.748 250.495 349.808 250.771 345.64 254.119C341.837 257.154 337.87 260.828 333.514 265.353C321.67 277.644 309.886 289.989 298.1 302.333C292.522 308.175 286.948 314.015 281.365 319.851C279.733 321.559 278.08 323.247 276.426 324.941C273.265 328.172 269.685 331.829 266.441 335.479C265.024 337.071 263.83 339.272 262.79 342.212C262.54 342.912 262.821 344.261 263.134 344.716V344.716ZM267.596 344.456C267.198 344.796 266.796 345.123 266.385 345.445C266.288 345.524 266.173 345.6 266.045 345.672C266.17 345.6 266.288 345.524 266.39 345.443C266.8 345.123 267.201 344.796 267.596 344.456V344.456ZM261.177 341.995C260.898 343.252 261.253 345.247 262.157 346.035C262.389 346.236 262.809 346.343 263.362 346.347C262.733 346.343 262.405 346.199 262.265 346.115C261.286 345.268 260.908 343.247 261.177 341.995V341.995ZM263.378 347.962C262.413 347.962 261.646 347.725 261.1 347.259C259.553 345.904 259.113 342.909 259.748 341.129C260.933 337.784 262.332 335.232 264.03 333.333C267.384 329.561 270.962 325.905 274.117 322.683C275.766 320.995 277.409 319.313 279.03 317.617C284.613 311.783 290.19 305.943 295.766 300.1L296.672 299.152C308.158 287.121 319.646 275.091 331.186 263.109C335.652 258.477 339.718 254.714 343.62 251.596C348.892 247.371 353.36 246.981 358.149 250.329C358.349 250.471 358.882 250.631 359.734 250.631C361.088 250.631 362.62 250.232 363.377 249.688C371.376 243.932 380.836 241.255 393.15 241.255C419.513 241.28 472.51 241.286 485.537 241.286L479.488 230.783C473.077 219.658 466.674 208.528 460.278 197.395C459.41 195.888 458.537 194.134 457.61 192.278C453.753 184.538 448.965 174.82 440.902 175.431C436.832 175.713 433.542 178.772 430.524 181.879L430.013 182.411C428.632 183.861 427.066 185.505 424.876 185.505C423.348 185.505 421.83 184.706 420.242 183.055C420.26 183.092 420.042 183.01 419.501 183.01C418.189 183.01 416.198 183.503 414.97 184.127C406.892 188.259 401.593 195.421 396.436 203.023L395.78 204.044C394.054 206.8 391.162 211.419 387.545 211.419C387.018 211.419 386.506 211.324 386.02 211.134C384.808 210.663 383.984 209.712 383.698 208.456C383.149 206.022 384.752 202.922 386.006 201.59C389.977 197.374 393.924 193.127 397.873 188.882L398.514 188.192C408.873 177.048 419.522 165.589 430.458 154.767C434.929 150.336 440.301 147.992 445.989 147.992C454.557 147.992 462.457 153.39 467.121 162.427L526.242 265.172L523.48 265.196C522.896 265.203 458.125 265.764 414.56 265.764C407.849 265.764 401.622 265.751 396.198 265.72H395.389C378.694 265.72 365.534 268.876 353.977 275.652C352.974 276.241 352.036 276.963 351.128 277.664C350.144 278.413 349.13 279.191 348.006 279.856C346.174 280.948 344.196 281.764 342.285 282.212C340.914 282.543 338.501 281.949 337.649 280.511C336.754 279.007 337.548 276.8 338.093 275.84C338.274 275.512 338.552 275.119 338.858 274.676C339.376 273.948 340.604 272.211 340.464 271.715C340.457 271.709 340.369 271.608 340.065 271.479C339.944 271.429 339.792 271.403 339.617 271.403C338.134 271.403 335.713 273.16 334.801 273.823L334.28 274.2C320.13 284.239 308.532 297.219 298.106 309.748C293.229 315.609 288.464 321.739 283.854 327.669L283.684 327.887C280.566 331.901 277.442 335.916 274.269 339.888C272.216 342.447 269.901 344.741 267.389 346.709C266.305 347.571 264.55 347.962 263.378 347.962" fill="#4AB8E3"/>
<path fill-rule="evenodd" clip-rule="evenodd" d="M310.343 305.686C310.151 305.61 309.983 305.586 309.807 305.542C309.734 303.856 307.186 302.778 306.044 304.602C304.855 306.506 304.291 308.632 303.354 310.656C302.848 311.742 303.175 313.363 304.562 313.622C308.636 314.384 311.623 311.698 311.828 307.635C311.876 306.663 311.156 306.02 310.343 305.686Z" fill="#4AB8E3"/>
<path d="M836.589 41.3355C826.837 39.5435 824.407 48.1448 820.37 53.6715C808.974 69.2795 797.031 84.2195 780.994 95.4248C777.517 97.8541 773.923 99.6408 770.478 96.4421C766.918 93.1275 766.626 88.8408 769.599 84.6835C770.855 82.9288 772.466 81.3621 773.427 79.4541C778.726 69.0275 790.061 64.7088 797.013 55.9541C799.503 52.8221 802.683 49.5181 798.883 45.8635C795.175 42.2941 791.685 45.2435 788.723 47.9208C787.125 49.3621 785.861 51.1901 784.247 52.6195C780.579 55.8715 779.091 63.3781 772.742 61.3875C769.898 60.4995 768.085 58.5434 767.351 55.6928C766.639 52.9141 766.281 50.6448 764.195 48.7768C763.83 48.4061 763.45 48.0581 763.109 47.6461C761.149 46.9555 758.562 46.8048 755.085 47.3515C751.613 47.8955 747.818 47.1608 746.146 43.5021C744.282 39.4261 746.165 35.9181 749.119 32.9941C755.274 26.9008 761.283 20.6448 767.743 14.8875C771.565 11.4835 773.45 7.49145 770.285 3.65811C766.473 -0.977887 761.142 0.851453 757.783 4.53545C753.753 8.95812 750.837 14.3914 747.449 19.3954C739.097 31.7421 728.922 42.2568 716.015 49.8288C712.675 51.7835 707.95 53.1688 705.235 49.5835C702.013 45.3195 706.482 42.6221 709.257 40.1181C714.393 35.4848 719.79 31.1475 724.897 26.4835C727.834 23.8035 730.802 20.6275 726.989 16.5888C723.855 13.2755 719.621 14.6528 717.833 17.3568C708.425 31.5674 695.282 42.2941 684.079 54.8141C683.203 55.7968 682.439 56.9341 681.942 58.1715C701.742 58.3128 719.861 65.4848 733.941 77.3248C734.847 77.7861 735.542 78.4141 736.081 79.1795C749.299 91.0941 758.594 107.262 761.846 125.523C763.641 123.883 765.365 122.111 767.046 120.471C787.429 100.619 806.153 79.0795 828.23 60.9341C833.667 56.4555 840.694 52.4061 840.543 43.7955C840.53 42.9235 838.07 41.5968 836.589 41.3355Z" fill="#FFF200"/>
</svg>
