<svg width="1223" height="348" viewBox="0 0 1223 348" fill="none" xmlns="http://www.w3.org/2000/svg">
<path d="M926.712 267.241C926.712 264.902 927.131 262.58 927.971 260.26C928.81 257.944 930.043 255.862 931.668 254.021C933.288 252.18 935.268 250.69 937.606 249.554C939.944 248.426 942.587 247.858 945.544 247.858C949.083 247.858 952.111 248.646 954.631 250.217C957.151 251.781 959.047 253.825 960.324 256.348L955.506 259.578C954.959 258.405 954.303 257.421 953.536 256.62C952.771 255.818 951.928 255.174 951.02 254.702C950.106 254.229 949.156 253.894 948.172 253.693C947.184 253.49 946.24 253.389 945.324 253.389C943.28 253.389 941.495 253.8 939.963 254.62C938.43 255.44 937.143 256.532 936.102 257.88C935.062 259.232 934.276 260.745 933.748 262.422C933.22 264.101 932.954 265.778 932.954 267.456C932.954 269.356 933.263 271.165 933.882 272.874C934.506 274.59 935.37 276.104 936.483 277.422C937.596 278.736 938.92 279.782 940.454 280.57C941.987 281.353 943.666 281.744 945.487 281.744C946.438 281.744 947.411 281.63 948.418 281.39C949.42 281.152 950.39 280.772 951.32 280.242C952.25 279.713 953.108 279.045 953.891 278.242C954.679 277.441 955.322 276.47 955.836 275.342L960.926 278.242C960.306 279.7 959.428 280.988 958.299 282.102C957.168 283.213 955.89 284.154 954.467 284.922C953.044 285.686 951.538 286.273 949.951 286.669C948.363 287.074 946.803 287.274 945.271 287.274C942.532 287.274 940.031 286.689 937.77 285.524C935.51 284.356 933.552 282.834 931.912 280.949C930.27 279.076 928.992 276.936 928.082 274.546C927.17 272.156 926.712 269.721 926.712 267.241Z" fill="white"/>
<path d="M974.12 267.513C974.12 269.337 974.41 271.108 974.996 272.824C975.58 274.541 976.409 276.055 977.486 277.367C978.562 278.679 979.869 279.732 981.401 280.513C982.933 281.303 984.648 281.695 986.545 281.695C988.517 281.695 990.258 281.284 991.774 280.457C993.289 279.637 994.576 278.552 995.633 277.203C996.692 275.852 997.493 274.339 998.041 272.66C998.592 270.984 998.862 269.267 998.862 267.513C998.862 265.652 998.573 263.875 997.988 262.177C997.401 260.48 996.572 258.985 995.496 257.685C994.421 256.393 993.124 255.352 991.61 254.571C990.093 253.781 988.406 253.389 986.545 253.389C984.574 253.389 982.824 253.8 981.29 254.62C979.758 255.44 978.462 256.513 977.405 257.824C976.346 259.136 975.533 260.645 974.968 262.341C974.404 264.039 974.12 265.761 974.12 267.513ZM986.492 287.219C983.716 287.219 981.192 286.664 978.91 285.547C976.629 284.436 974.668 282.961 973.025 281.119C971.382 279.271 970.114 277.164 969.218 274.793C968.325 272.421 967.881 269.992 967.881 267.513C967.881 264.921 968.353 262.441 969.304 260.069C970.253 257.7 971.554 255.597 973.217 253.773C974.876 251.945 976.848 250.493 979.128 249.423C981.408 248.344 983.9 247.808 986.6 247.808C989.374 247.808 991.901 248.381 994.182 249.531C996.462 250.677 998.417 252.185 1000.04 254.047C1001.66 255.908 1002.92 258.013 1003.82 260.367C1004.71 262.725 1005.16 265.123 1005.16 267.569C1005.16 270.156 1004.69 272.641 1003.76 275.013C1002.83 277.384 1001.53 279.473 999.849 281.284C998.168 283.088 996.192 284.533 993.912 285.604C991.626 286.684 989.153 287.219 986.492 287.219" fill="white"/>
<path d="M1048.29 286.948V258.973L1036.75 280.16H1033.35L1021.75 258.973V286.948H1015.61V248.08H1022.18L1035.05 271.841L1047.91 248.08H1054.48V286.948H1048.29Z" fill="white"/>
<path d="M1073.48 268.005H1083.6C1084.48 268.005 1085.27 267.821 1085.98 267.456C1086.7 267.089 1087.31 266.58 1087.82 265.923C1088.33 265.267 1088.73 264.504 1089.02 263.628C1089.31 262.752 1089.46 261.785 1089.46 260.727C1089.46 259.628 1089.3 258.644 1088.97 257.767C1088.64 256.891 1088.18 256.135 1087.6 255.497C1087.02 254.861 1086.35 254.367 1085.6 254.021C1084.85 253.675 1084.08 253.497 1083.27 253.497H1073.48V268.005ZM1067.35 286.948V248.08H1083.66C1085.41 248.08 1087.02 248.444 1088.5 249.176C1089.98 249.903 1091.25 250.86 1092.31 252.045C1093.37 253.232 1094.2 254.583 1094.8 256.096C1095.4 257.616 1095.7 259.156 1095.7 260.727C1095.7 262.367 1095.42 263.943 1094.85 265.457C1094.29 266.977 1093.49 268.327 1092.47 269.512C1091.45 270.699 1090.22 271.644 1088.78 272.359C1087.33 273.071 1085.74 273.423 1083.99 273.423H1073.48V286.948H1067.35Z" fill="white"/>
<path d="M1123.45 271.841L1117.21 255.144L1110.75 271.841H1123.45ZM1114.53 248.08H1119.89L1135.22 286.948H1128.76L1124.66 276.381H1109.66L1105.61 286.948H1099.09L1114.53 248.08Z" fill="white"/>
<path d="M1150.28 259.578V286.948H1144.15V248.08H1148.96L1171.19 276.105V248.136H1177.37V286.948H1172.29L1150.28 259.578Z" fill="white"/>
<path d="M1193.08 248.08L1203.82 267.569L1214.65 248.08H1221.39L1206.88 273.04V286.948H1200.75V272.933L1186.35 248.08H1193.08Z" fill="white"/>
<path d="M241.768 262.129C244.269 262.129 245.868 262.061 247.464 262.137C256.15 262.533 264.924 262.306 273.484 263.568C282.681 264.912 284.56 271.276 278.602 278.341C277.549 279.589 276.388 280.769 275.177 281.88C269.437 287.128 262.953 291.99 257.844 297.872C256.414 299.509 254.289 302.77 255.656 304.998C258.086 308.94 261.904 302.001 263.258 300.292C264.422 298.828 265.665 297.441 266.86 296.004C269.844 292.413 272.813 288.818 275.837 285.262C277.521 283.293 279.212 281.33 280.94 279.4C282.945 277.149 285.82 275.49 288.592 274.204C290.396 273.357 293.224 274.013 293.812 276.096C294.464 278.417 292.957 280.228 291.461 281.804C289.31 284.061 287.074 286.238 284.901 288.472C284.138 289.266 279.889 292.678 282.101 293.769C283.229 294.324 285.116 293.353 285.848 292.47C290.888 286.384 296.034 280.384 300.705 274.013C306.153 266.596 300.476 260.288 301.926 252.49C303.532 243.878 302.894 242.654 293.95 241.726C289.153 241.228 284.346 240.888 278.628 240.402C284.998 229.25 311.324 183.782 311.458 183.754C311.413 183.625 381.582 62.501 381.582 62.501C381.582 62.501 403.716 100.872 407.249 106.492C412.282 114.516 413.046 121.845 406.265 129.352C404.601 131.197 404.258 134.241 403.316 136.736C403.856 137.058 404.405 137.388 404.949 137.716C406.39 136.776 407.937 135.956 409.262 134.869C411.828 132.758 414.298 128.726 417.889 131.722C421.429 134.673 418.748 138.444 416.83 141.457C415.25 143.936 413.412 146.332 411.298 148.354C405.956 153.46 400.366 158.302 394.924 163.304C393.118 164.962 391.261 166.632 389.808 168.58C389.177 169.408 389.518 170.958 389.42 172.178C390.658 172.17 392.113 172.56 393.081 172.049C394.629 171.212 396.018 169.917 397.206 168.58C406.942 157.689 416.638 146.762 426.292 135.798C428.121 133.729 429.598 131.541 430.709 129.274C438.537 118.876 429.844 103.194 429.844 103.194L419.361 83.9223C419.113 83.9637 381.562 20.2543 381.562 20.2543C381.562 20.2543 261.884 227.08 253.998 240.656C249.99 247.545 246.101 254.509 241.768 262.129Z" fill="white"/>
<path d="M245.734 261.294C246.35 261.294 246.927 261.302 247.502 261.328C250.062 261.445 252.63 261.508 255.199 261.57C261.258 261.718 267.523 261.876 273.602 262.77C278.177 263.437 281.303 265.4 282.399 268.293C283.546 271.318 282.418 275.069 279.219 278.861C278.213 280.053 277.037 281.27 275.723 282.476C273.891 284.152 271.983 285.785 270.069 287.428C266.053 290.872 261.899 294.434 258.453 298.4C256.857 300.232 255.346 302.952 256.343 304.574C256.842 305.385 257.247 305.385 257.381 305.385C258.743 305.385 260.798 302.402 261.786 300.968C262.119 300.485 262.403 300.072 262.626 299.79C263.347 298.885 264.095 298.008 264.846 297.129C265.314 296.586 265.781 296.041 266.239 295.486L267.961 293.413C270.371 290.512 272.778 287.613 275.222 284.736C276.91 282.764 278.606 280.798 280.339 278.861C282.094 276.889 284.683 275.126 288.25 273.47C288.857 273.188 289.565 273.037 290.299 273.037C292.035 273.037 294.035 273.916 294.589 275.878C295.349 278.585 293.675 280.641 292.047 282.36C290.79 283.68 289.503 284.974 288.218 286.264C287.301 287.184 286.385 288.105 285.481 289.037C285.367 289.153 285.175 289.332 284.938 289.55C283.098 291.256 282.205 292.378 282.279 292.893C282.287 292.95 282.382 293.006 282.458 293.044C283.067 293.353 284.673 292.622 285.226 291.956L288.062 288.546C292.097 283.704 296.271 278.698 300.054 273.537C303.141 269.332 302.405 265.457 301.627 261.35C301.087 258.512 300.531 255.576 301.133 252.342C301.902 248.208 302.126 245.886 301.213 244.662C300.285 243.421 297.817 242.937 293.866 242.532C290.562 242.188 287.253 241.92 283.643 241.626L277.301 241.1L277.927 240.001C278.231 239.469 306.493 190.049 310.767 183.644C311.566 181.752 319.067 168.804 380.883 62.0957L381.585 60.8864L382.282 62.097C382.503 62.481 404.449 100.518 407.931 106.064C413.653 115.181 413.314 122.754 406.865 129.892C405.847 131.02 405.369 132.713 404.859 134.505C404.681 135.14 404.502 135.772 404.297 136.384L404.935 136.766C405.257 136.565 405.578 136.366 405.901 136.168C406.919 135.544 407.882 134.956 408.749 134.244C409.243 133.838 409.731 133.358 410.226 132.874C411.749 131.386 413.321 129.846 415.346 129.846C416.379 129.846 417.407 130.269 418.407 131.104C422.33 134.372 419.701 138.476 417.781 141.47L417.511 141.89C415.735 144.676 413.834 147.045 411.857 148.937C408.507 152.14 405.009 155.285 401.623 158.326C399.567 160.176 397.507 162.028 395.469 163.898L395.159 164.186C393.498 165.71 391.781 167.288 390.454 169.062C390.189 169.413 390.213 170.232 390.233 170.952C390.238 171.105 390.241 171.257 390.245 171.406C390.389 171.418 390.531 171.43 390.674 171.441C391.487 171.512 392.313 171.541 392.705 171.334C393.965 170.654 395.242 169.576 396.602 168.044C406.233 157.274 416.017 146.244 425.686 135.265C427.453 133.265 428.899 131.132 429.982 128.921C437.481 118.933 429.223 103.737 429.138 103.584L418.651 84.309L418.762 84.249C417.245 82.285 411.318 72.325 381.57 21.8543C371.761 38.8063 262.179 228.177 254.698 241.061C251.949 245.785 249.255 250.545 246.437 255.525L243.158 261.317C243.494 261.314 243.813 261.309 244.118 261.306L245.734 261.294ZM257.381 307C256.725 307 255.771 306.726 254.967 305.421C253.138 302.436 256.239 298.482 257.234 297.34C260.758 293.288 264.957 289.685 269.019 286.201C270.919 284.57 272.814 282.945 274.634 281.284C275.895 280.126 277.025 278.962 277.986 277.821C280.789 274.496 281.819 271.318 280.89 268.864C280.01 266.545 277.338 264.945 273.367 264.365C267.385 263.486 261.169 263.334 255.159 263.186C252.579 263.122 249.999 263.06 247.427 262.942C246.874 262.914 246.323 262.908 245.734 262.908L244.135 262.922C243.433 262.928 242.658 262.936 241.767 262.936H240.381L245.033 254.73C247.853 249.744 250.549 244.98 253.301 240.248C261.095 226.83 379.667 21.9184 380.865 19.8504L381.557 18.653L382.259 19.8437C394.427 40.4903 417.282 79.181 419.782 83.1117H419.838L430.554 102.806C430.914 103.46 439.403 119.064 431.353 129.762C430.286 131.973 428.759 134.228 426.899 136.333C417.226 147.314 407.441 158.346 397.809 169.118C396.322 170.792 394.901 171.982 393.467 172.76C392.738 173.145 391.687 173.149 390.533 173.05C390.173 173.02 389.81 172.988 389.463 172.988H388.59L388.615 172.114C388.642 171.764 388.63 171.381 388.618 170.998C388.589 169.961 388.558 168.888 389.166 168.09C390.575 166.2 392.35 164.57 394.066 162.993L394.377 162.71C396.421 160.833 398.481 158.978 400.543 157.126C403.919 154.092 407.409 150.954 410.741 147.769C412.625 145.968 414.446 143.697 416.149 141.022L416.421 140.598C418.634 137.145 419.999 134.53 417.373 132.342C416.662 131.75 415.998 131.462 415.346 131.462C413.982 131.462 412.646 132.766 411.355 134.029C410.826 134.548 410.302 135.058 409.773 135.493C408.819 136.274 407.763 136.921 406.745 137.545C406.29 137.824 405.837 138.102 405.391 138.392L404.967 138.668L402.323 137.08L402.561 136.449C402.847 135.689 403.075 134.877 403.306 134.065C403.841 132.173 404.395 130.218 405.666 128.81C411.638 122.201 411.915 115.449 406.565 106.921C403.419 101.918 385.374 70.685 381.581 64.113C374.463 76.401 315.798 177.676 312.337 183.829L312.515 184.353L311.957 184.473C309.769 188.088 286.883 227.613 279.959 239.702L283.774 240.018C287.397 240.31 290.718 240.58 294.034 240.922C298.635 241.402 301.21 241.961 302.507 243.698C303.786 245.41 303.595 247.942 302.719 252.64C302.174 255.573 302.702 258.357 303.213 261.05C304.022 265.316 304.858 269.724 301.357 274.493C297.543 279.69 293.354 284.717 289.301 289.581L286.469 292.985C285.534 294.113 283.145 295.173 281.743 294.494C280.974 294.113 280.741 293.54 280.681 293.126C280.463 291.634 282.123 289.956 283.841 288.368C284.049 288.176 284.217 288.017 284.319 287.913C285.233 286.973 286.153 286.049 287.073 285.125C288.35 283.841 289.627 282.557 290.877 281.246C292.317 279.728 293.567 278.205 293.034 276.314C292.567 274.656 290.222 274.328 288.934 274.934C285.567 276.496 283.15 278.132 281.542 279.937C279.817 281.864 278.131 283.822 276.451 285.785C274.013 288.654 271.609 291.549 269.205 294.445L267.482 296.52C267.017 297.078 266.546 297.63 266.074 298.18C265.337 299.044 264.599 299.904 263.891 300.793C263.686 301.052 263.425 301.436 263.115 301.881C261.259 304.578 259.425 307 257.381 307" fill="white"/>
<path d="M391.031 170.662C391.703 170.719 392.274 170.65 392.329 170.618C393.491 169.992 394.697 168.971 396.002 167.507C400.666 162.29 405.325 157.059 409.971 151.823C407.399 154.218 404.789 156.564 402.177 158.911C400.118 160.764 398.058 162.619 396.018 164.494L395.705 164.78C394.071 166.278 392.381 167.83 391.101 169.546C391.025 169.703 391.025 170.234 391.031 170.662ZM290.301 272.228C292.751 272.228 294.789 273.61 295.366 275.66C295.618 276.562 295.634 277.408 295.493 278.19C296.829 276.492 298.135 274.784 299.402 273.055C302.282 269.136 301.611 265.598 300.835 261.498C300.279 258.583 299.713 255.576 300.337 252.194C301.034 248.467 301.295 246.12 300.567 245.146C299.819 244.142 297.417 243.707 293.782 243.328C290.515 242.994 287.241 242.73 283.677 242.439L275.97 241.796L277.225 239.6C302.519 195.326 308.599 185.266 310.334 182.918C312.41 178.686 323.593 159.384 380.181 61.6895L381.582 59.2709L382.979 61.6935C383.199 62.0749 405.142 100.103 408.618 105.634C414.559 115.103 414.194 122.98 407.463 130.431C406.574 131.42 406.119 133.023 405.641 134.72C405.565 134.984 405.489 135.255 405.41 135.522C405.433 135.508 405.457 135.494 405.482 135.476C406.473 134.871 407.414 134.299 408.231 133.622C408.713 133.232 409.182 132.764 409.658 132.299C411.223 130.771 412.995 129.04 415.347 129.04C416.571 129.04 417.774 129.523 418.925 130.48C423.397 134.208 420.306 139.027 418.457 141.911L418.193 142.327C418.017 142.604 417.839 142.876 417.657 143.147C420.135 140.343 422.61 137.54 425.081 134.732C426.803 132.784 428.207 130.707 429.257 128.567C436.537 118.85 428.513 104.124 428.431 103.975L417.942 84.6909L418.13 84.5909C415.918 81.7122 409.071 70.1109 381.575 23.4549C368.229 46.5176 262.779 228.751 255.393 241.467C252.623 246.227 249.911 251.023 247.073 256.042L244.55 260.496L245.729 260.483C246.359 260.483 246.947 260.496 247.535 260.522C250.087 260.64 252.653 260.698 255.217 260.76C261.297 260.912 267.593 261.071 273.721 261.966C278.599 262.684 281.949 264.83 283.154 268.008C284.074 270.424 283.69 273.238 282.087 276.146C283.642 274.947 285.551 273.836 287.91 272.74C288.622 272.406 289.449 272.228 290.301 272.228V272.228ZM286.598 289.046C286.418 289.228 286.238 289.412 286.059 289.594C285.942 289.72 285.741 289.903 285.487 290.136C284.489 291.064 283.886 291.707 283.535 292.148C283.974 291.971 284.402 291.69 284.605 291.442L286.598 289.046ZM273.458 285.571C272.511 286.396 271.554 287.216 270.595 288.036C266.602 291.462 262.47 295.007 259.063 298.93C257.538 300.684 256.346 303.036 257.033 304.152C257.222 304.467 257.361 304.556 257.393 304.575C258.017 304.563 259.273 303.194 261.121 300.512C261.467 300.008 261.763 299.579 261.994 299.29C262.729 298.368 263.493 297.472 264.258 296.578L267.649 292.527C269.579 290.206 271.51 287.879 273.458 285.571ZM257.379 307.804C256.515 307.804 255.279 307.466 254.279 305.843C252.163 302.394 255.538 298.052 256.626 296.81C260.187 292.71 264.41 289.088 268.494 285.588C270.387 283.962 272.277 282.346 274.089 280.688C275.319 279.559 276.423 278.422 277.369 277.3C279.975 274.208 280.958 271.314 280.135 269.151C279.363 267.119 276.922 265.699 273.25 265.164C267.314 264.294 261.123 264.14 255.134 263.99C252.547 263.927 249.965 263.864 247.389 263.746C246.849 263.726 246.31 263.712 245.729 263.712L238.993 263.746L244.259 254.454C247.111 249.419 249.826 244.616 252.602 239.847C260.483 226.266 380.162 19.4442 380.162 19.4442L381.551 17.0522L382.95 19.4335C392.482 35.6055 416.634 76.5109 420.222 82.2949H420.313L431.263 102.423C431.635 103.084 440.362 119.136 431.998 130.247C430.979 132.388 429.414 134.703 427.503 136.871C417.846 147.834 408.151 158.764 398.411 169.659C396.855 171.407 395.365 172.652 393.847 173.47C392.965 173.936 391.789 173.967 390.47 173.855C390.129 173.826 389.794 173.794 389.474 173.794H387.723L387.809 172.05C387.837 171.728 387.821 171.374 387.814 171.023C387.781 169.899 387.745 168.624 388.521 167.603C389.975 165.654 391.775 164.002 393.523 162.398L393.833 162.115C395.882 160.231 397.951 158.371 400.019 156.511C403.438 153.436 406.858 150.363 410.182 147.188C412.014 145.434 413.797 143.212 415.467 140.588L415.738 140.166C418.137 136.428 418.821 134.6 416.855 132.963C416.294 132.494 415.802 132.27 415.347 132.27C414.307 132.27 413.093 133.459 411.917 134.606C411.37 135.142 410.833 135.666 410.282 136.114C409.29 136.934 408.21 137.596 407.166 138.234C406.718 138.504 406.27 138.783 405.83 139.066L404.985 139.622L401.329 137.422L401.805 136.166C402.086 135.423 402.309 134.632 402.531 133.836C403.091 131.862 403.671 129.815 405.066 128.267C410.833 121.884 411.078 115.627 405.881 107.351C402.851 102.524 386.531 74.3029 381.575 65.7242C358.371 105.786 317.249 176.818 313.207 183.927L313.538 184.96L312.467 185.19C309.559 190.064 288.642 226.19 281.293 239.002L283.937 239.222C287.525 239.514 290.823 239.778 294.117 240.118C298.955 240.623 301.679 241.242 303.157 243.215C304.746 245.347 304.307 248.53 303.515 252.788C302.998 255.571 303.487 258.156 304.007 260.899C304.846 265.334 305.717 269.919 302.007 274.966C298.173 280.195 293.969 285.242 289.903 290.119L287.09 293.504C285.999 294.818 283.186 296.103 281.385 295.214C280.542 294.799 280.006 294.098 279.881 293.246C279.609 291.366 281.419 289.506 283.293 287.771C283.489 287.588 283.642 287.45 283.737 287.348C284.662 286.403 285.589 285.468 286.522 284.535C287.786 283.26 289.055 281.994 290.294 280.692C291.859 279.035 292.634 277.88 292.255 276.536C291.953 275.446 290.162 275.255 289.275 275.666C286.005 277.187 283.674 278.756 282.145 280.472C280.422 282.398 278.738 284.352 277.063 286.314C274.733 289.051 272.433 291.82 270.134 294.59L266.715 298.678C265.971 299.54 265.233 300.407 264.521 301.302C264.325 301.547 264.073 301.912 263.777 302.342C262.19 304.651 260.017 307.804 257.379 307.804" fill="white"/>
<path d="M399.337 162.561C398.411 163.4 397.484 164.243 396.563 165.088L396.252 165.373C394.697 166.799 393.095 168.269 391.871 169.867C391.939 169.865 391.997 169.859 392.044 169.853C393.109 169.256 394.199 168.316 395.399 166.971C396.713 165.5 398.025 164.031 399.337 162.561ZM391.551 171.491C391.369 171.491 391.172 171.483 390.964 171.467L390.236 171.405L390.224 170.675C390.211 169.805 390.247 169.46 390.372 169.196C391.783 167.28 393.499 165.707 395.16 164.187L395.472 163.899C397.515 162.023 399.576 160.168 401.636 158.311C404.247 155.968 406.853 153.624 409.42 151.233L410.575 152.361C405.929 157.595 401.269 162.825 396.605 168.045C395.228 169.587 393.955 170.66 392.708 171.328C392.655 171.363 392.436 171.491 391.551 171.491ZM290.3 271.421C293.119 271.421 295.467 273.036 296.143 275.441C296.187 275.592 296.223 275.745 296.253 275.896C297.103 274.799 297.935 273.692 298.752 272.58C301.421 268.945 300.812 265.728 300.043 261.656C299.475 258.673 298.888 255.591 299.544 252.049C299.904 250.109 300.577 246.508 299.92 245.628C299.233 244.707 295.496 244.319 293.699 244.133C290.511 243.805 287.313 243.545 283.845 243.263L274.64 242.496L276.524 239.2C302.9 193.031 308.088 184.596 309.685 182.439C311.68 178.341 323.107 158.612 378.021 63.8093L381.584 57.6573L383.796 61.4906C387.497 67.9053 406.127 100.151 409.303 105.204C415.465 115.028 415.073 123.213 408.061 130.972C407.5 131.599 407.119 132.585 406.777 133.7C407.109 133.472 407.425 133.241 407.721 132.999C408.151 132.647 408.571 132.233 408.996 131.816C410.691 130.163 412.668 128.232 415.348 128.232C416.767 128.232 418.144 128.78 419.443 129.861C422.255 132.207 422.404 134.933 421.661 137.392C422.6 136.327 423.537 135.261 424.476 134.2C426.144 132.308 427.512 130.293 428.532 128.211C435.549 118.821 427.804 104.511 427.724 104.367L416.843 84.364L416.931 84.3133C414.288 80.5227 407.253 68.6133 381.583 25.056L362.736 57.624C327.491 118.528 261.887 231.896 256.091 241.873C253.324 246.632 250.613 251.423 247.776 256.44L245.943 259.676C246.508 259.68 247.039 259.692 247.571 259.713C249.889 259.824 252.213 259.88 254.54 259.937L255.236 259.953C261.341 260.104 267.652 260.261 273.837 261.168C279.019 261.931 282.595 264.257 283.909 267.721C284.628 269.611 284.631 271.717 283.933 273.919C285.008 273.272 286.215 272.639 287.569 272.008C288.387 271.623 289.331 271.421 290.3 271.421V271.421ZM294.119 281.237L294.697 278.044C294.828 277.332 294.791 276.599 294.588 275.877C294.111 274.177 292.387 273.036 290.3 273.036C289.567 273.036 288.86 273.188 288.252 273.471C285.923 274.552 284.068 275.637 282.581 276.785L279.509 279.151L281.381 275.756C282.875 273.045 283.227 270.465 282.4 268.296C281.303 265.404 278.179 263.437 273.603 262.763C267.515 261.875 261.253 261.719 255.196 261.568L254.5 261.552C252.163 261.492 249.824 261.436 247.499 261.328C246.923 261.303 246.348 261.291 245.728 261.291L243.155 261.319L246.371 255.645C249.209 250.621 251.924 245.823 254.695 241.061C260.489 231.085 326.093 117.719 361.339 56.8133L381.569 21.8547L382.271 23.0453C409.997 70.092 416.624 81.304 418.771 84.0973L419.351 84.8547L419.037 85.0227L429.141 103.589C429.221 103.737 437.48 118.936 429.904 129.051C428.897 131.135 427.451 133.269 425.687 135.267C423.213 138.075 420.743 140.877 418.261 143.681L416.987 142.697C417.167 142.431 417.339 142.164 417.512 141.893L417.776 141.477C420.083 137.879 422.031 134.119 418.408 131.1C417.409 130.269 416.38 129.847 415.348 129.847C413.327 129.847 411.749 131.384 410.227 132.871C409.667 133.423 409.209 133.868 408.744 134.248C407.885 134.953 406.929 135.537 405.916 136.157L404.12 137.255L404.865 134.496C405.369 132.712 405.845 131.023 406.863 129.891C413.313 122.749 413.655 115.18 407.932 106.064C404.744 100.985 386.101 68.7173 382.397 62.2987L381.58 60.884L379.419 64.6187C324.527 159.381 313.105 179.103 311.06 183.273C309.415 185.521 304.261 193.903 277.927 240.001L277.299 241.095L283.976 241.653C287.457 241.937 290.664 242.197 293.865 242.525C297.912 242.947 300.283 243.415 301.215 244.663C302.128 245.887 301.903 248.207 301.129 252.343C300.531 255.589 301.088 258.515 301.628 261.347C302.405 265.461 303.139 269.337 300.055 273.533C298.78 275.269 297.469 276.984 296.127 278.688L294.119 281.237ZM266.407 292.755C264.021 294.893 261.713 297.109 259.673 299.46C258.228 301.119 257.504 302.844 257.655 303.556C258.045 303.209 258.892 302.323 260.455 300.056C260.815 299.532 261.124 299.088 261.363 298.788C262.103 297.857 262.872 296.956 263.645 296.053L266.407 292.755ZM257.176 305.385L256.977 305.269C256.753 305.133 256.537 304.897 256.34 304.569C255.345 302.955 256.857 300.236 258.455 298.4C261.903 294.428 266.055 290.868 270.069 287.423C271.027 286.603 271.984 285.788 272.927 284.96L274.075 286.089C272.385 288.092 270.707 290.112 269.031 292.128L264.879 297.093C264.112 297.989 263.356 298.88 262.624 299.795C262.404 300.072 262.12 300.484 261.785 300.971C258.996 305.017 258.064 305.369 257.408 305.383L257.176 305.385ZM245.727 262.905C246.319 262.905 246.867 262.919 247.417 262.936C249.996 263.056 252.573 263.12 255.153 263.184C261.251 263.337 267.425 263.492 273.367 264.365C277.335 264.943 280.007 266.541 280.891 268.864C281.821 271.313 280.791 274.493 277.987 277.82C277.035 278.949 275.908 280.113 274.635 281.284C272.965 282.811 271.233 284.299 269.493 285.797L269.021 286.2C264.959 289.683 260.76 293.28 257.236 297.34C256.525 298.151 253.083 302.349 254.967 305.421C255.612 306.468 256.424 306.997 257.38 306.997C259.597 306.997 261.628 304.041 263.111 301.884C263.431 301.423 263.689 301.049 263.888 300.8C264.609 299.895 265.353 299.021 266.104 298.151L269.515 294.073C271.813 291.303 274.116 288.532 276.448 285.791C278.128 283.823 279.817 281.864 281.543 279.933C283.144 278.137 285.563 276.503 288.935 274.935C289.319 274.757 289.809 274.66 290.315 274.66C291.687 274.66 292.755 275.312 293.033 276.321C293.563 278.201 292.317 279.725 290.881 281.249C289.804 282.377 288.708 283.481 287.612 284.583L287.095 285.103C286.161 286.036 285.237 286.969 284.315 287.913C284.247 287.985 284.129 288.095 283.984 288.232C282.199 289.883 280.464 291.635 280.679 293.129C280.727 293.448 280.855 293.732 281.06 293.972L282.903 291.647C283.329 291.111 284.013 290.401 284.939 289.543C285.232 289.275 285.377 289.144 285.465 289.045L286.023 288.48L287.22 289.563L285.227 291.96C284.884 292.375 284.283 292.716 283.837 292.896L281.088 294.007C281.257 294.196 281.477 294.36 281.743 294.492C282.027 294.632 282.367 294.7 282.757 294.7C284.171 294.7 285.784 293.812 286.469 292.988L289.281 289.6C293.331 284.747 297.513 279.728 301.357 274.489C304.856 269.727 304.06 265.517 303.216 261.057C302.68 258.235 302.176 255.576 302.723 252.64C303.476 248.584 303.903 245.568 302.509 243.699C301.212 241.964 298.636 241.403 294.033 240.923C290.821 240.589 287.6 240.329 284.111 240.045L279.963 239.701L280.593 238.601C287.768 226.092 308.868 189.648 311.772 184.776L311.952 184.473L312.497 184.356L312.331 183.836L312.505 183.531C316.187 177.052 351.637 115.804 380.877 65.3186L381.577 64.1107L382.275 65.32C385.781 71.392 403.431 101.928 406.564 106.921C411.917 115.443 411.639 122.195 405.667 128.808C404.4 130.212 403.845 132.161 403.309 134.045C403.081 134.871 402.849 135.687 402.56 136.449L402.323 137.077L404.965 138.668L405.387 138.391C405.84 138.1 406.295 137.816 406.749 137.543C407.708 136.955 408.8 136.291 409.769 135.491C410.304 135.056 410.824 134.548 411.351 134.031C412.653 132.759 413.983 131.463 415.348 131.463C416.003 131.463 416.664 131.751 417.373 132.343C420 134.533 418.635 137.147 416.42 140.603L416.147 141.025C414.448 143.695 412.628 145.965 410.74 147.769C407.461 150.903 404.041 153.979 400.731 156.957L400.56 157.111C398.493 158.969 396.425 160.827 394.377 162.709L394.068 162.993C392.352 164.568 390.579 166.195 389.167 168.085C388.557 168.892 388.588 169.961 388.621 170.996C388.633 171.512 388.637 171.829 388.612 172.12L388.569 172.987H389.473C389.781 172.987 390.101 173.012 390.427 173.04C392.049 173.18 392.839 173.089 393.471 172.755C394.896 171.987 396.317 170.799 397.809 169.123C407.235 158.58 417.021 147.548 426.899 136.337C428.756 134.228 430.268 132.004 431.269 129.9C439.473 118.976 430.649 102.979 430.56 102.819L419.535 82.72C415.864 76.8 390.76 34.2747 382.255 19.844L381.555 18.652L380.861 19.8507C379.665 21.9187 261.092 226.827 253.3 240.251C250.697 244.727 248.147 249.228 245.488 253.923L240.381 262.931L245.727 262.905ZM257.38 308.613C256.312 308.613 254.787 308.205 253.592 306.265C251.176 302.329 254.839 297.628 256.019 296.277C259.619 292.133 263.865 288.493 267.969 284.977L268.439 284.571C270.168 283.084 271.888 281.608 273.544 280.091C274.765 278.972 275.844 277.856 276.752 276.78C279.161 273.923 280.095 271.313 279.38 269.436C278.715 267.687 276.497 266.453 273.133 265.961C267.285 265.103 261.161 264.949 255.237 264.801C252.523 264.735 249.933 264.672 247.351 264.551C246.829 264.533 246.3 264.52 245.728 264.52L237.603 264.559L244.083 253.128C246.745 248.425 249.297 243.919 251.903 239.44C259.695 226.017 378.267 21.108 379.464 19.04L381.545 15.452L383.645 19.024C391.985 33.1733 416.281 74.3307 420.672 81.488H420.699L421.023 81.9093L431.973 102.037C432.356 102.72 441.389 119.112 432.643 130.733C431.663 132.831 430.067 135.187 428.108 137.405C418.229 148.619 408.441 159.652 399.013 170.197C397.395 172.016 395.832 173.316 394.231 174.181C393.301 174.672 391.992 174.8 390.4 174.657C390.013 174.624 389.737 174.601 389.473 174.601H386.875L387.001 172.009C387.024 171.743 387.016 171.488 387.011 171.229C386.971 169.856 386.924 168.369 387.877 167.113C389.376 165.105 391.207 163.428 392.976 161.805L393.285 161.52C395.337 159.637 397.409 157.772 399.48 155.911L399.652 155.755C402.951 152.787 406.364 149.719 409.623 146.603C411.419 144.885 413.153 142.717 414.787 140.155L415.059 139.729C417.64 135.708 417.641 134.667 416.339 133.583C415.943 133.252 415.6 133.077 415.348 133.077C414.641 133.077 413.451 134.236 412.495 135.171C411.919 135.737 411.36 136.277 410.795 136.74C409.74 137.608 408.596 138.308 407.587 138.923C407.143 139.192 406.701 139.465 406.267 139.747L405.004 140.575L400.336 137.767L401.049 135.879C401.323 135.16 401.539 134.392 401.753 133.62C402.343 131.543 402.949 129.413 404.465 127.725C410.021 121.577 410.233 115.799 405.196 107.78C402.221 103.037 386.273 75.4693 381.575 67.3373C352.889 116.864 318.555 176.184 314.085 184.019L314.58 185.561L312.98 185.905C309.581 191.643 290.183 225.145 282.625 238.303L284.24 238.436C287.744 238.721 290.976 238.983 294.2 239.313C299.271 239.844 302.147 240.519 303.803 242.732C305.589 245.128 305.14 248.473 304.309 252.936C303.819 255.573 304.296 258.087 304.801 260.748C305.632 265.145 306.573 270.119 302.66 275.445C298.785 280.725 294.585 285.761 290.523 290.636L287.711 294.023C286.785 295.132 284.736 296.315 282.757 296.315C282.117 296.315 281.533 296.189 281.027 295.94C279.939 295.4 279.248 294.485 279.083 293.367C278.753 291.089 280.711 289.06 282.744 287.179C282.999 286.945 283.087 286.86 283.148 286.797C284.087 285.835 285.016 284.901 285.951 283.965L286.468 283.447C287.555 282.349 288.643 281.256 289.711 280.136C291.275 278.477 291.723 277.623 291.479 276.755C291.368 276.357 290.145 276.165 289.615 276.399C286.448 277.869 284.2 279.379 282.747 281.009C281.028 282.929 279.348 284.881 277.676 286.837C275.349 289.572 273.053 292.337 270.755 295.107L267.336 299.195C266.589 300.061 265.857 300.917 265.153 301.804C264.969 302.033 264.735 302.373 264.459 302.775C262.755 305.253 260.448 308.613 257.38 308.613" fill="white"/>
<path d="M0 65.8794H31.8867V229.918H0V65.8794Z" fill="white"/>
<path d="M97.9643 146.975H137.931C140.854 146.975 143.592 146.282 146.134 144.894C148.676 143.509 150.871 141.626 152.719 139.237C154.568 136.849 156.031 134.038 157.11 130.803C158.186 127.566 158.724 124.103 158.724 120.403C158.724 116.557 158.108 113.011 156.876 109.779C155.643 106.543 153.987 103.735 151.911 101.345C149.831 98.9594 147.443 97.1141 144.75 95.8008C142.05 94.4914 139.319 93.8354 136.546 93.8354H97.9643V146.975ZM66.0776 229.918V65.8794H138.628C146.168 65.8794 153.142 67.4621 159.532 70.6141C165.926 73.7741 171.435 77.9341 176.052 83.0927C180.676 88.2554 184.291 94.1034 186.914 100.65C189.528 107.198 190.84 113.782 190.84 120.403C190.84 131.037 188.183 140.699 182.871 149.398C177.556 158.103 170.356 164.379 161.267 168.23L198.698 229.918H162.884L129.383 174.933H97.9643V229.918H66.0776Z" fill="white"/>
<path d="M251.602 146.975H291.568C294.495 146.975 297.234 146.282 299.775 144.894C302.314 143.509 304.512 141.626 306.36 139.237C308.208 136.849 309.67 134.038 310.748 130.803C311.823 127.566 312.366 124.103 312.366 120.403C312.366 116.557 311.747 113.011 310.518 109.779C309.282 106.543 307.628 103.735 305.547 101.345C303.471 98.9594 301.08 97.1141 298.387 95.8008C295.687 94.4914 292.956 93.8354 290.184 93.8354H251.602V146.975ZM219.719 229.918V65.8794H292.266C299.81 65.8794 306.78 67.4621 313.174 70.6141C319.563 73.7741 325.07 77.9341 329.694 83.0927C334.314 88.2554 337.932 94.1034 340.548 100.65C343.167 107.198 344.479 113.782 344.479 120.403C344.479 131.037 341.824 140.699 336.51 149.398C331.195 158.103 323.994 164.379 314.907 168.23L352.339 229.918H316.522L283.022 174.933H251.602V229.918H219.719Z" fill="white"/>
<path d="M524.999 93.8348H472.552V229.919H440.901V93.8348H388.452V65.8788H524.999V93.8348Z" fill="white"/>
<path d="M807.112 124.793V229.918H775.225V65.8784H799.949L885.436 173.545V66.1077H917.316V229.918H891.441L807.112 124.793Z" fill="white"/>
<path d="M1034.92 166.611L1012.28 102.152L988.71 166.611H1034.92ZM998.177 65.8788H1026.37L1088.75 229.917H1055.94L1040.69 189.025H983.391L968.373 229.917H935.565L998.177 65.8788Z" fill="white"/>
<path d="M1106.77 229.918V65.8794H1138.65V201.961H1222.28V229.918H1106.77Z" fill="white"/>
<path fill-rule="evenodd" clip-rule="evenodd" d="M250.656 332.766C252.605 336.014 253.74 339.508 250.117 342.606C247.572 344.788 244.574 347.33 241.573 343.4C238.954 339.968 237.346 336.348 241.712 332.614C244.844 329.939 247.517 329.567 250.656 332.766Z" fill="white"/>
<path d="M542.093 65.8821H573.977V229.918H542.093V65.8821Z" fill="white"/>
<path d="M623.013 147.9C623.013 154.987 624.089 161.843 626.248 168.465C628.404 175.088 631.523 180.937 635.605 186.022C639.685 191.105 644.692 195.188 650.623 198.264C656.549 201.35 663.291 202.888 670.837 202.888C678.539 202.888 685.353 201.313 691.285 198.15C697.212 194.998 702.22 190.797 706.304 185.561C710.381 180.325 713.465 174.433 715.545 167.885C717.625 161.34 718.665 154.68 718.665 147.9C718.665 140.817 717.545 133.963 715.315 127.339C713.08 120.717 709.92 114.861 705.843 109.779C701.757 104.696 696.751 100.652 690.823 97.6492C684.892 94.6478 678.233 93.1452 670.837 93.1452C663.135 93.1452 656.283 94.7252 650.276 97.8798C644.268 101.039 639.263 105.197 635.26 110.359C631.252 115.519 628.212 121.372 626.133 127.915C624.052 134.465 623.013 141.124 623.013 147.9ZM670.607 231.073C658.593 231.073 647.695 228.726 637.916 224.028C628.132 219.333 619.739 213.095 612.732 205.315C605.721 197.54 600.292 188.643 596.444 178.629C592.593 168.619 590.668 158.377 590.668 147.9C590.668 136.965 592.708 126.492 596.789 116.479C600.871 106.468 606.493 97.6132 613.655 89.9105C620.819 82.2092 629.328 76.0865 639.187 71.5412C649.041 66.9985 659.749 64.7252 671.301 64.7252C683.159 64.7252 693.98 67.1505 703.763 72.0038C713.541 76.8558 721.899 83.2092 728.829 91.0638C735.761 98.9198 741.151 107.856 745.003 117.865C748.851 127.879 750.78 138.045 750.78 148.364C750.78 159.301 748.775 169.733 744.771 179.669C740.764 189.604 735.219 198.384 728.137 206.005C721.051 213.632 712.577 219.717 702.723 224.26C692.864 228.802 682.159 231.073 670.607 231.073" fill="white"/>
<path d="M386.795 201.803C385.386 203.293 383.456 207.665 386.219 208.73C389.726 210.079 393.295 203.318 394.715 201.221C399.908 193.562 405.395 186.117 413.851 181.793C415.928 180.729 419.958 179.931 420.999 181.019C424.735 184.898 426.627 182.278 428.979 179.859C432.108 176.635 435.707 173.249 440.408 172.921C451.576 172.145 456.734 187.75 461.295 195.694C467.69 206.829 474.094 217.951 480.503 229.078C482.987 233.393 485.47 237.695 487.942 242.003C484.484 242.003 422.12 241.998 392.848 241.973C382.44 241.966 372.666 243.822 363.939 250.101C362.211 251.342 358.37 251.834 356.843 250.755C351.972 247.355 347.955 248.985 344.246 251.961C339.896 255.437 335.838 259.317 331.964 263.334C314.523 281.443 297.195 299.667 279.818 317.834C274.823 323.057 269.646 328.115 264.851 333.509C263.05 335.527 261.795 338.197 260.88 340.775C260.434 342.038 260.855 344.333 261.77 345.135C262.508 345.778 264.982 345.357 266.01 344.549C268.434 342.643 270.683 340.398 272.623 337.982C280.631 327.97 288.279 317.669 296.476 307.817C307.414 294.671 318.882 281.974 332.955 271.99C334.67 270.771 337.947 268.115 340.303 269.094C343.634 270.481 340.076 274.026 339.111 275.741C338.619 276.613 338.234 278.089 338.654 278.794C339.058 279.475 340.647 279.955 341.527 279.747C343.359 279.313 345.172 278.537 346.796 277.57C348.888 276.334 350.68 274.594 352.774 273.365C366.071 265.567 380.522 263.119 395.823 263.207C436.763 263.442 523.08 262.683 523.08 262.683L465.303 162.273C457.706 147.555 442.01 144.318 431.208 155.018C415.935 170.131 401.543 186.141 386.795 201.803Z" fill="white"/>
<path d="M351.434 249.662C349.364 249.662 347.24 250.592 344.752 252.592C340.914 255.658 336.922 259.355 332.546 263.896C320.694 276.203 308.894 288.56 297.096 300.916C291.532 306.746 285.968 312.571 280.4 318.394C278.764 320.106 277.107 321.799 275.45 323.492C272.115 326.906 268.666 330.435 265.455 334.046C263.968 335.714 262.722 338 261.643 341.047C261.296 342.019 261.666 343.97 262.302 344.526C262.34 344.558 262.547 344.639 262.992 344.639C263.87 344.639 265 344.315 265.511 343.914C267.872 342.06 270.054 339.894 271.994 337.476C275.152 333.527 278.254 329.531 281.358 325.539C286.043 319.51 290.886 313.275 295.855 307.3C306.383 294.65 318.107 281.532 332.488 271.33L332.999 270.96C334.582 269.812 336.976 268.076 339.186 268.076C339.696 268.076 340.175 268.166 340.612 268.35C341.575 268.75 342.18 269.356 342.407 270.15C342.872 271.768 341.588 273.575 340.558 275.028C340.262 275.446 339.991 275.824 339.815 276.139C339.35 276.96 339.166 278.079 339.348 278.382C339.471 278.59 340.276 278.99 341.058 278.99C341.195 278.99 341.288 278.974 341.342 278.963C343.015 278.566 344.758 277.843 346.383 276.878C347.384 276.288 348.303 275.58 349.276 274.836C350.255 274.086 351.27 273.31 352.366 272.667C364.315 265.662 377.872 262.399 395.031 262.399L395.826 262.402C401.292 262.431 407.572 262.446 414.344 262.446C454.246 262.446 512.054 261.971 521.691 261.89L464.603 162.675C460.343 154.424 453.247 149.518 445.604 149.518C440.57 149.518 435.788 151.619 431.776 155.592C420.846 166.41 410.183 177.882 399.872 188.976C395.72 193.446 391.566 197.915 387.383 202.356C386.474 203.318 385.358 205.611 385.676 207.022C385.783 207.494 386.048 207.8 386.51 207.976C388.903 208.882 391.847 204.251 393.352 201.851C393.619 201.426 393.852 201.054 394.047 200.77C399.386 192.898 404.89 185.467 413.483 181.074C415.047 180.272 417.415 179.691 419.114 179.691C420.264 179.691 421.092 179.951 421.582 180.462C422.702 181.623 423.652 182.19 424.491 182.19C425.642 182.19 426.676 181.104 427.871 179.851L428.402 179.299C431.744 175.852 435.42 172.458 440.351 172.115C450.003 171.475 455.218 181.924 459.387 190.283C460.299 192.112 461.162 193.842 461.995 195.295C468.391 206.424 474.795 217.548 481.202 228.676L489.338 242.811H487.942C484.484 242.811 422.12 242.804 392.848 242.78C380.992 242.78 371.971 245.316 364.41 250.755C363.243 251.595 361.211 252.156 359.352 252.156C358.475 252.156 357.244 252.031 356.378 251.415C354.686 250.238 353.07 249.662 351.434 249.662ZM262.992 346.255C262.219 346.255 261.63 346.084 261.24 345.744C260.015 344.671 259.6 341.968 260.12 340.506C261.27 337.263 262.62 334.796 264.248 332.974C267.486 329.331 270.948 325.79 274.295 322.363C275.948 320.676 277.6 318.986 279.234 317.276C284.802 311.458 290.364 305.63 295.927 299.802C307.728 287.443 319.528 275.083 331.382 262.774C335.807 258.186 339.85 254.44 343.742 251.331C348.75 247.315 352.906 247.024 357.304 250.094C357.711 250.38 358.456 250.542 359.352 250.542C360.876 250.542 362.568 250.091 363.467 249.444C371.318 243.796 380.638 241.164 392.795 241.164C420.214 241.188 476.518 241.196 486.547 241.196L479.802 229.483C473.394 218.356 466.99 207.232 460.595 196.098C459.739 194.603 458.864 192.854 457.94 191.003C453.979 183.062 449.018 173.13 440.463 173.726C436.102 174.031 432.684 177.2 429.559 180.42L429.04 180.963C427.71 182.359 426.336 183.804 424.491 183.804C423.19 183.804 421.858 183.076 420.418 181.58C420.391 181.55 420.128 181.307 419.114 181.307C417.664 181.307 415.56 181.823 414.216 182.512C405.966 186.732 400.6 193.982 395.384 201.675C395.198 201.947 394.975 202.303 394.72 202.708C393.076 205.331 390.326 209.714 387.159 209.714C386.739 209.714 386.326 209.635 385.928 209.483C384.96 209.108 384.327 208.379 384.1 207.378C383.636 205.32 385.026 202.499 386.208 201.248C390.388 196.811 394.538 192.347 398.691 187.876C409.012 176.771 419.684 165.284 430.642 154.444C434.96 150.166 440.132 147.903 445.604 147.903C453.863 147.903 461.495 153.136 466.019 161.903L524.468 263.48L523.086 263.492C522.44 263.499 457.786 264.06 414.344 264.06C407.568 264.06 401.287 264.047 395.818 264.016L395.031 264.014C378.171 264.014 364.872 267.208 353.183 274.06C352.172 274.654 351.243 275.366 350.259 276.12C349.291 276.86 348.288 277.628 347.21 278.264C345.444 279.315 343.544 280.098 341.712 280.532C340.58 280.807 338.586 280.268 337.96 279.208C337.307 278.111 337.87 276.298 338.408 275.346C338.606 274.991 338.907 274.563 339.24 274.095C339.983 273.048 341.106 271.466 340.855 270.594C340.823 270.484 340.726 270.143 339.992 269.838C338.383 269.172 335.614 271.059 333.946 272.27L333.422 272.647C319.192 282.744 307.554 295.766 297.098 308.335C292.144 314.287 287.31 320.514 282.634 326.53C279.524 330.528 276.418 334.531 273.254 338.486C271.235 341 268.966 343.251 266.508 345.183C265.612 345.89 264.06 346.255 262.992 346.255" fill="white"/>
<path d="M351.43 249.659C349.365 249.659 347.241 250.592 344.75 252.592C340.918 255.651 336.929 259.348 332.548 263.896C320.705 276.188 308.918 288.534 297.132 300.879C291.556 306.72 285.98 312.56 280.397 318.396C278.766 320.098 277.117 321.79 275.465 323.479C272.125 326.894 268.67 330.424 265.454 334.046C263.972 335.711 262.722 338 261.644 341.047C261.29 342.038 261.656 343.962 262.302 344.528C262.344 344.555 262.549 344.642 262.993 344.642C263.87 344.642 265 344.315 265.505 343.911C267.876 342.056 270.058 339.887 271.996 337.476C275.162 333.516 278.272 329.511 281.388 325.504C286.062 319.487 290.893 313.26 295.857 307.299C306.386 294.652 318.105 281.539 332.488 271.332L332.992 270.966C334.576 269.812 336.973 268.078 339.186 268.078C339.698 268.078 340.177 268.166 340.613 268.35C341.577 268.746 342.18 269.352 342.406 270.146C342.87 271.768 341.59 273.578 340.556 275.028C340.262 275.446 339.99 275.824 339.814 276.139C339.35 276.96 339.168 278.075 339.348 278.379C339.47 278.587 340.278 278.99 341.057 278.99C341.198 278.99 341.29 278.971 341.344 278.96C343.013 278.568 344.757 277.85 346.384 276.878C347.381 276.291 348.296 275.584 349.266 274.84C350.25 274.088 351.266 273.312 352.364 272.664C364.312 265.662 377.86 262.402 395.005 262.402H395.825C401.248 262.431 407.47 262.446 414.176 262.446C454.085 262.446 512.036 261.971 521.693 261.89L464.602 162.676C460.342 154.426 453.246 149.518 445.604 149.518C440.566 149.518 435.785 151.619 431.776 155.592C420.856 166.399 410.208 177.859 399.904 188.946C395.74 193.427 391.573 197.907 387.385 202.359C386.474 203.318 385.357 205.614 385.676 207.023C385.784 207.494 386.048 207.799 386.509 207.976C388.912 208.888 391.845 204.251 393.349 201.855C393.618 201.428 393.85 201.054 394.046 200.77C399.382 192.898 404.886 185.472 413.481 181.074C415.052 180.275 417.417 179.691 419.117 179.691C420.265 179.691 421.096 179.951 421.581 180.459C422.704 181.623 423.653 182.187 424.49 182.187C425.642 182.187 426.677 181.102 427.876 179.84L428.4 179.295C431.749 175.851 435.426 172.46 440.352 172.116C450.041 171.495 455.22 181.927 459.39 190.288C460.301 192.115 461.161 193.844 461.994 195.295C468.39 206.427 474.794 217.551 481.202 228.676L483.26 232.24C485.057 235.362 486.852 238.478 488.644 241.607L489.337 242.811H487.941C484.485 242.811 422.12 242.804 392.848 242.78C380.982 242.78 371.972 245.316 364.409 250.755C363.241 251.595 361.208 252.156 359.35 252.156C358.473 252.156 357.246 252.031 356.376 251.418C354.685 250.24 353.068 249.659 351.43 249.659ZM262.993 346.258C262.217 346.258 261.63 346.08 261.24 345.746C259.98 344.642 259.6 341.975 260.124 340.506C261.272 337.263 262.622 334.796 264.249 332.974C267.49 329.327 270.957 325.776 274.31 322.351C275.957 320.667 277.602 318.983 279.23 317.28C284.813 311.444 290.389 305.604 295.965 299.762C307.752 287.416 319.541 275.067 331.384 262.774C335.813 258.182 339.854 254.434 343.741 251.331C348.749 247.312 352.906 247.022 357.304 250.094C357.706 250.378 358.45 250.542 359.35 250.542C360.873 250.542 362.568 250.094 363.465 249.444C371.32 243.796 380.629 241.164 392.766 241.164C420.21 241.19 476.522 241.196 486.548 241.196C484.986 238.478 483.424 235.766 481.858 233.047L479.802 229.483C473.393 218.355 466.989 207.23 460.596 196.095C459.737 194.607 458.868 192.859 457.945 191.012C453.985 183.067 449.029 173.135 440.462 173.727C436.108 174.031 432.689 177.2 429.56 180.42L429.045 180.956C427.714 182.354 426.337 183.8 424.49 183.8C423.189 183.8 421.858 183.075 420.42 181.578C420.39 181.55 420.129 181.307 419.117 181.307C417.669 181.307 415.562 181.827 414.218 182.512C405.961 186.735 400.6 193.986 395.384 201.672C395.201 201.95 394.974 202.308 394.714 202.716C393.076 205.334 390.324 209.714 387.161 209.714H387.157C386.742 209.714 386.325 209.638 385.929 209.483C384.962 209.108 384.329 208.384 384.102 207.38C383.638 205.327 385.026 202.502 386.208 201.248C390.397 196.802 394.557 192.323 398.72 187.846C409.033 176.748 419.698 165.275 430.642 154.444C434.96 150.166 440.132 147.903 445.604 147.903C453.865 147.903 461.496 153.136 466.018 161.9L524.468 263.48L523.086 263.492C522.437 263.499 457.62 264.06 414.176 264.06C407.465 264.06 401.241 264.047 395.818 264.016H395.005C378.157 264.016 364.869 267.208 353.184 274.058C352.168 274.656 351.234 275.368 350.25 276.128C349.286 276.864 348.286 277.628 347.21 278.264C345.444 279.318 343.542 280.1 341.716 280.53C340.588 280.8 338.588 280.266 337.96 279.204C337.308 278.108 337.869 276.298 338.41 275.346C338.606 274.991 338.909 274.57 339.24 274.095C339.981 273.048 341.104 271.464 340.856 270.594C340.824 270.48 340.726 270.146 339.994 269.838C338.373 269.17 335.61 271.062 333.941 272.272L333.421 272.65C319.193 282.743 307.556 295.77 297.1 308.335C292.156 314.276 287.329 320.49 282.662 326.495C279.545 330.507 276.426 334.519 273.253 338.486C271.238 340.998 268.966 343.248 266.508 345.18C265.614 345.886 264.062 346.258 262.993 346.258" fill="white"/>
<path d="M440.529 172.914C440.488 172.918 440.446 172.92 440.405 172.922C439.09 173.013 437.865 173.342 436.708 173.844C437.865 173.342 439.093 173.013 440.408 172.922C440.448 172.92 440.489 172.918 440.529 172.914ZM445.605 148.712C453.554 148.712 460.925 153.793 465.322 162.305L475.057 179.225L465.32 162.302C460.921 153.777 453.557 148.712 445.605 148.712ZM433.702 175.59C432.012 176.816 430.464 178.33 428.978 179.856L428.457 180.397C427.916 180.97 427.386 181.528 426.837 181.982C427.386 181.532 427.917 180.973 428.46 180.401L428.976 179.862C430.461 178.332 432.012 176.816 433.702 175.59V175.59ZM458.113 189.538C458.301 189.913 458.485 190.282 458.668 190.652C459.404 192.128 460.106 193.538 460.79 194.793C460.118 193.556 459.43 192.174 458.709 190.733C458.513 190.34 458.314 189.94 458.113 189.538V189.538ZM415.629 181.089C414.982 181.288 414.368 181.528 413.848 181.793C406.344 185.634 401.217 191.87 396.464 198.674C401.228 191.861 406.36 185.624 413.852 181.793C414.373 181.528 414.984 181.288 415.629 181.089V181.089ZM408.565 178.461C405.472 181.768 402.406 185.065 399.37 188.332L398.672 189.084C394.722 193.332 390.772 197.581 386.797 201.804C386.54 202.074 386.268 202.438 386.01 202.857C386.269 202.438 386.541 202.074 386.801 201.804C390.985 197.354 395.15 192.876 399.312 188.397L399.489 188.205C402.486 184.981 405.512 181.726 408.565 178.461V178.461ZM393.964 202.397C392.958 203.988 391.902 205.564 390.8 206.769C392.073 205.393 393.185 203.636 393.964 202.397ZM386.073 208.669C386.121 208.693 386.169 208.712 386.222 208.73C386.83 208.97 387.514 208.954 388.168 208.721C387.521 208.945 386.841 208.966 386.222 208.73C386.17 208.712 386.121 208.693 386.073 208.669ZM473.557 217.018C475.872 221.037 478.186 225.058 480.502 229.078L486.604 239.673C485.333 237.46 484.06 235.249 482.785 233.037L480.504 229.078C478.188 225.058 475.872 221.037 473.557 217.018V217.018ZM392.766 241.973C380.806 241.973 371.646 244.554 363.938 250.101C363.866 250.15 363.793 250.202 363.716 250.249C363.793 250.202 363.868 250.15 363.938 250.101C371.633 244.564 380.804 241.982 392.789 241.973H392.766ZM351.43 248.85C353.232 248.85 355.001 249.476 356.838 250.756C357.534 251.246 358.589 251.349 359.35 251.349C358.729 251.349 357.574 251.274 356.84 250.753C354.056 248.81 351.529 248.341 348.736 249.318C349.652 249.002 350.542 248.85 351.43 248.85ZM344.965 251.406C344.729 251.584 344.489 251.766 344.246 251.961C343.154 252.832 342.052 253.756 340.926 254.736C342.052 253.756 343.154 252.832 344.248 251.961C344.489 251.766 344.729 251.584 344.965 251.406ZM395.818 263.208C398.473 263.224 401.32 263.233 404.318 263.242C401.32 263.233 398.474 263.224 395.821 263.208H395.818ZM444.637 263.184C434.609 263.224 424.686 263.249 415.629 263.252C424.686 263.249 434.606 263.224 444.637 263.184ZM340.616 269.238C341.169 269.536 341.502 269.908 341.633 270.377C341.637 270.389 341.64 270.402 341.642 270.412C341.64 270.398 341.634 270.385 341.632 270.368C341.496 269.898 341.162 269.526 340.616 269.238V269.238ZM339.186 268.885C337.273 268.885 335.001 270.504 333.586 271.532C335.637 270.056 338.061 268.593 339.828 268.948C339.625 268.908 339.41 268.885 339.186 268.885ZM333.224 271.797L332.964 271.986C332.26 272.488 331.56 272.993 330.869 273.505C331.557 272.996 332.254 272.49 332.954 271.993L333.224 271.797ZM341.473 271.932C341.197 272.645 340.697 273.421 340.118 274.25C340.652 273.494 341.184 272.693 341.473 271.932ZM394.453 263.208C377.72 263.277 364.462 266.51 352.773 273.36C351.725 273.98 350.733 274.736 349.774 275.468C349.12 275.969 348.525 276.428 347.928 276.84C348.557 276.404 349.166 275.942 349.76 275.486C350.664 274.793 351.686 274.004 352.774 273.365C364.462 266.51 377.72 263.277 394.453 263.208V263.208ZM338.957 276.045C338.726 276.53 338.556 277.1 338.496 277.612C338.561 277.073 338.748 276.497 338.957 276.045ZM336.885 258.43C335.296 259.946 333.66 261.578 331.966 263.334C320.428 275.31 308.94 287.341 297.457 299.372L296.549 300.321C290.973 306.162 285.396 312.002 279.814 317.837C279.76 317.893 279.706 317.95 279.652 318.008C279.706 317.95 279.76 317.893 279.814 317.837C285.394 312.002 290.972 306.165 296.546 300.324C308.334 287.976 320.122 275.632 331.966 263.334C333.66 261.578 335.296 259.946 336.885 258.43V258.43ZM304.09 298.898C301.474 301.866 298.945 304.856 296.48 307.817C292.13 313.041 287.877 318.472 283.746 323.785C287.878 318.476 292.132 313.044 296.48 307.817C298.946 304.856 301.474 301.87 304.09 298.898V298.898ZM281.006 327.313C279.416 329.356 277.824 331.398 276.224 333.437C277.825 331.398 279.417 329.356 281.006 327.313ZM262.75 343.82C262.805 343.83 262.886 343.836 262.994 343.836C263.745 343.836 264.673 343.542 265.001 343.28C267.314 341.47 269.456 339.352 271.366 336.973C274.324 333.274 277.23 329.532 280.142 325.792L280.916 324.798C285.54 318.844 290.322 312.685 295.238 306.782C305.808 294.085 317.58 280.921 332.021 270.673L332.52 270.314C334.18 269.104 336.693 267.27 339.186 267.27C339.813 267.27 340.398 267.385 340.925 267.605C342.418 268.22 342.978 269.208 343.184 269.926C343.757 271.929 342.288 273.992 341.213 275.498C340.896 275.946 340.669 276.265 340.52 276.534C340.228 277.048 340.105 277.644 340.088 277.937C340.294 278.042 340.678 278.184 341.057 278.184C342.753 277.798 344.417 277.11 345.972 276.184C346.9 275.637 347.769 274.973 348.69 274.266C349.792 273.424 350.822 272.638 351.953 271.969C364.032 264.888 377.71 261.594 395.005 261.594H395.825C401.25 261.625 407.472 261.637 414.176 261.637C453.12 261.637 509.097 261.186 520.304 261.096L463.904 163.078C459.772 155.082 452.94 150.326 445.605 150.326C440.785 150.326 436.201 152.345 432.345 156.165C421.498 166.897 410.91 178.289 400.672 189.305L400.496 189.494C396.33 193.978 392.164 198.457 387.973 202.912C387.117 203.813 386.238 205.844 386.464 206.846C386.512 207.054 386.589 207.144 386.797 207.221C388.55 207.866 391.489 203.296 392.666 201.426C393.001 200.889 393.206 200.565 393.381 200.313C398.773 192.361 404.34 184.845 413.113 180.354C414.82 179.49 417.286 178.885 419.117 178.885C420.494 178.885 421.518 179.225 422.165 179.9C423.11 180.881 423.893 181.381 424.492 181.381C425.301 181.381 426.268 180.36 427.29 179.284L427.817 178.737C431.28 175.174 435.09 171.673 440.296 171.31C440.596 171.29 440.886 171.281 441.172 171.281C450.814 171.281 455.953 181.588 460.082 189.866C461.046 191.797 461.888 193.485 462.694 194.893C469.092 206.024 475.494 217.148 481.902 228.273L484.185 232.23C485.909 235.222 487.628 238.208 489.342 241.206L490.733 243.618H487.942C484.485 243.618 422.12 243.612 392.848 243.588C381.188 243.588 372.302 246.073 364.881 251.413C363.569 252.354 361.398 252.965 359.35 252.965C358.356 252.965 356.952 252.81 355.913 252.078C352.364 249.598 349.424 249.874 345.256 253.222C341.453 256.257 337.486 259.932 333.13 264.457C321.286 276.748 309.502 289.093 297.716 301.437C292.138 307.278 286.564 313.118 280.981 318.954C279.349 320.662 277.696 322.35 276.042 324.045C272.881 327.276 269.301 330.933 266.057 334.582C264.64 336.174 263.446 338.376 262.406 341.316C262.156 342.016 262.437 343.365 262.75 343.82V343.82ZM267.212 343.56C266.814 343.9 266.412 344.226 266.001 344.549C265.904 344.628 265.789 344.704 265.661 344.776C265.786 344.704 265.904 344.628 266.006 344.546C266.416 344.226 266.817 343.9 267.212 343.56V343.56ZM260.793 341.098C260.514 342.356 260.869 344.35 261.773 345.138C262.005 345.34 262.425 345.446 262.978 345.45C262.349 345.446 262.021 345.302 261.881 345.218C260.902 344.372 260.524 342.35 260.793 341.098V341.098ZM262.994 347.065C262.029 347.065 261.262 346.829 260.716 346.362C259.169 345.008 258.729 342.013 259.364 340.233C260.549 336.888 261.948 334.336 263.646 332.437C267 328.665 270.578 325.009 273.733 321.786C275.382 320.098 277.025 318.417 278.646 316.721C284.229 310.886 289.806 305.046 295.382 299.204L296.288 298.256C307.774 286.225 319.262 274.194 330.802 262.213C335.268 257.581 339.334 253.817 343.236 250.7C348.508 246.474 352.976 246.085 357.765 249.433C357.965 249.574 358.498 249.734 359.35 249.734C360.704 249.734 362.236 249.336 362.993 248.792C370.992 243.036 380.452 240.358 392.766 240.358C419.129 240.384 472.126 240.389 485.153 240.389L479.104 229.886C472.693 218.761 466.29 207.632 459.894 196.498C459.026 194.992 458.153 193.237 457.226 191.381C453.369 183.641 448.581 173.924 440.518 174.534C436.448 174.817 433.158 177.876 430.14 180.982L429.629 181.514C428.248 182.965 426.682 184.609 424.492 184.609C422.964 184.609 421.446 183.809 419.858 182.158C419.876 182.196 419.658 182.113 419.117 182.113C417.805 182.113 415.814 182.606 414.586 183.23C406.508 187.362 401.209 194.525 396.052 202.126L395.396 203.148C393.67 205.904 390.778 210.522 387.161 210.522C386.634 210.522 386.122 210.428 385.636 210.237C384.424 209.766 383.6 208.816 383.314 207.56C382.765 205.125 384.368 202.025 385.622 200.693C389.593 196.477 393.54 192.23 397.489 187.985L398.13 187.296C408.489 176.152 419.138 164.693 430.074 153.87C434.545 149.44 439.917 147.096 445.605 147.096C454.173 147.096 462.073 152.493 466.737 161.53L525.858 264.276L523.096 264.3C522.512 264.306 457.741 264.868 414.176 264.868C407.465 264.868 401.238 264.854 395.814 264.824H395.005C378.31 264.824 365.15 267.98 353.593 274.756C352.59 275.345 351.652 276.066 350.744 276.768C349.76 277.517 348.746 278.294 347.622 278.96C345.79 280.052 343.812 280.868 341.901 281.316C340.53 281.646 338.117 281.053 337.265 279.614C336.37 278.11 337.164 275.904 337.709 274.944C337.89 274.616 338.168 274.222 338.474 273.78C338.992 273.052 340.22 271.314 340.08 270.818C340.073 270.813 339.985 270.712 339.681 270.582C339.56 270.533 339.408 270.506 339.233 270.506C337.75 270.506 335.329 272.264 334.417 272.926L333.896 273.304C319.746 283.342 308.148 296.322 297.722 308.852C292.845 314.713 288.08 320.842 283.47 326.773L283.3 326.99C280.182 331.005 277.058 335.02 273.885 338.992C271.832 341.55 269.517 343.845 267.005 345.813C265.921 346.674 264.166 347.065 262.994 347.065" fill="white"/>
<path fill-rule="evenodd" clip-rule="evenodd" d="M309.959 304.789C309.767 304.713 309.599 304.689 309.423 304.645C309.35 302.96 306.802 301.881 305.66 303.705C304.471 305.609 303.907 307.736 302.97 309.76C302.464 310.845 302.791 312.466 304.178 312.725C308.252 313.488 311.239 310.801 311.444 306.738C311.492 305.766 310.772 305.124 309.959 304.789Z" fill="white"/>
<path d="M836.205 40.4389C826.453 38.6469 824.023 47.2482 819.986 52.7749C808.59 68.3829 796.647 83.3229 780.61 94.5282C777.133 96.9576 773.539 98.7442 770.094 95.5456C766.534 92.2309 766.242 87.9442 769.215 83.7869C770.471 82.0322 772.082 80.4656 773.043 78.5576C778.342 68.1309 789.677 63.8122 796.629 55.0576C799.119 51.9256 802.299 48.6216 798.499 44.9669C794.791 41.3976 791.301 44.3469 788.339 47.0242C786.741 48.4656 785.477 50.2936 783.863 51.7229C780.195 54.9749 778.707 62.4816 772.358 60.4909C769.514 59.6029 767.701 57.6469 766.967 54.7962C766.255 52.0176 765.897 49.7482 763.811 47.8802C763.446 47.5096 763.066 47.1616 762.725 46.7496C760.765 46.0589 758.178 45.9082 754.701 46.4549C751.229 46.9989 747.434 46.2642 745.762 42.6056C743.898 38.5296 745.781 35.0216 748.735 32.0976C754.89 26.0042 760.899 19.7482 767.359 13.9909C771.181 10.5869 773.066 6.59489 769.901 2.76155C766.089 -1.87445 760.758 -0.0451081 757.399 3.63889C753.369 8.06156 750.453 13.4949 747.065 18.4989C738.713 30.8456 728.538 41.3602 715.631 48.9322C712.291 50.8869 707.566 52.2722 704.851 48.6869C701.629 44.4229 706.098 41.7256 708.873 39.2216C714.009 34.5882 719.406 30.2509 724.513 25.5869C727.45 22.9069 730.418 19.7309 726.605 15.6922C723.471 12.3789 719.237 13.7562 717.449 16.4602C708.041 30.6709 694.898 41.3976 683.695 53.9176C682.819 54.9002 682.055 56.0376 681.558 57.2749C701.358 57.4162 719.477 64.5882 733.557 76.4282C734.463 76.8896 735.158 77.5176 735.697 78.2829C748.915 90.1976 758.21 106.366 761.462 124.627C763.257 122.987 764.981 121.215 766.662 119.575C787.045 99.7229 805.769 78.1829 827.846 60.0376C833.283 55.5589 840.31 51.5096 840.159 42.8989C840.146 42.0269 837.686 40.7002 836.205 40.4389Z" fill="white"/>
</svg>
