<svg width="289" height="332" viewBox="0 0 289 332" fill="none" xmlns="http://www.w3.org/2000/svg">
<path d="M4.16504 246.677C6.66637 246.677 8.26504 246.609 9.86104 246.685C18.5477 247.081 27.321 246.854 35.881 248.116C45.0784 249.46 46.957 255.824 40.9997 262.889C39.9464 264.137 38.785 265.317 37.5744 266.428C31.8344 271.676 25.3504 276.538 20.241 282.42C18.8117 284.057 16.6864 287.318 18.053 289.546C20.4837 293.488 24.301 286.549 25.6557 284.84C26.8197 283.376 28.0624 281.989 29.257 280.552C32.241 276.961 35.2104 273.366 38.2344 269.81C39.9184 267.841 41.609 265.878 43.337 263.948C45.3424 261.697 48.217 260.038 50.989 258.752C52.793 257.905 55.621 258.561 56.209 260.644C56.861 262.965 55.3544 264.776 53.8584 266.352C51.7077 268.609 49.4717 270.786 47.2984 273.02C46.5357 273.814 42.2864 277.226 44.4984 278.317C45.6264 278.872 47.513 277.901 48.245 277.018C53.285 270.932 58.4317 264.932 63.1024 258.561C68.5504 251.144 62.873 244.836 64.3237 237.038C65.929 228.426 65.2917 227.202 56.3477 226.274C51.5504 225.776 46.7437 225.436 41.025 224.95C47.3957 213.798 73.721 168.33 73.8557 168.302C73.8104 168.173 143.98 47.049 143.98 47.049C143.98 47.049 166.113 85.4197 169.646 91.0397C174.68 99.0637 175.444 106.393 168.662 113.9C166.998 115.745 166.656 118.789 165.713 121.284C166.253 121.606 166.802 121.936 167.346 122.264C168.788 121.324 170.334 120.504 171.66 119.417C174.225 117.306 176.696 113.274 180.286 116.27C183.826 119.221 181.145 122.992 179.228 126.005C177.648 128.484 175.809 130.88 173.696 132.902C168.353 138.008 162.764 142.85 157.321 147.852C155.516 149.51 153.658 151.18 152.205 153.128C151.574 153.956 151.916 155.506 151.817 156.726C153.056 156.718 154.51 157.108 155.478 156.597C157.026 155.76 158.416 154.465 159.604 153.128C169.34 142.237 179.036 131.31 188.689 120.346C190.518 118.277 191.996 116.089 193.106 113.822C200.934 103.424 192.241 87.7424 192.241 87.7424L181.758 68.4704C181.51 68.5117 143.96 4.80236 143.96 4.80236C143.96 4.80236 24.281 211.628 16.3957 225.204C12.3877 232.093 8.49837 239.057 4.16504 246.677Z" fill="#EE2E65"/>
<path d="M8.13116 245.842C8.74716 245.842 9.3245 245.85 9.89916 245.876C12.4592 245.993 15.0272 246.056 17.5965 246.118C23.6552 246.266 29.9205 246.424 35.9992 247.318C40.5738 247.985 43.7005 249.948 44.7965 252.841C45.9432 255.866 44.8152 259.617 41.6165 263.409C40.6098 264.601 39.4338 265.818 38.1205 267.024C36.2885 268.7 34.3805 270.333 32.4658 271.976C28.4498 275.42 24.2965 278.982 20.8498 282.948C19.2538 284.78 17.7432 287.5 18.7405 289.122C19.2392 289.933 19.6445 289.933 19.7778 289.933C21.1405 289.933 23.1952 286.95 24.1832 285.516C24.5165 285.033 24.8005 284.62 25.0232 284.338C25.7445 283.433 26.4925 282.556 27.2432 281.677C27.7112 281.134 28.1778 280.589 28.6365 280.034L30.3578 277.961C32.7685 275.06 35.1752 272.161 37.6192 269.284C39.3072 267.312 41.0032 265.346 42.7365 263.409C44.4912 261.437 47.0805 259.674 50.6472 258.018C51.2538 257.736 51.9618 257.585 52.6965 257.585C54.4325 257.585 56.4325 258.464 56.9858 260.426C57.7458 263.133 56.0725 265.189 54.4445 266.908C53.1872 268.228 51.9005 269.522 50.6152 270.812C49.6978 271.732 48.7818 272.653 47.8778 273.585C47.7645 273.701 47.5725 273.88 47.3352 274.098C45.4952 275.804 44.6018 276.926 44.6765 277.441C44.6845 277.498 44.7792 277.554 44.8552 277.592C45.4645 277.901 47.0698 277.17 47.6232 276.504L50.4592 273.094C54.4938 268.252 58.6685 263.246 62.4512 258.085C65.5378 253.88 64.8018 250.005 64.0245 245.898C63.4845 243.06 62.9285 240.124 63.5298 236.89C64.2992 232.756 64.5232 230.434 63.6098 229.21C62.6818 227.969 60.2138 227.485 56.2632 227.08C52.9592 226.736 49.6498 226.468 46.0405 226.174L39.6978 225.648L40.3245 224.549C40.6285 224.017 68.8898 174.597 73.1645 168.192C73.9632 166.3 81.4645 153.352 143.28 46.6437L143.982 45.4344L144.679 46.6451C144.9 47.0291 166.846 85.0664 170.328 90.6117C176.05 99.7291 175.711 107.302 169.262 114.44C168.244 115.568 167.766 117.261 167.256 119.053C167.078 119.688 166.899 120.32 166.694 120.932L167.332 121.314C167.654 121.113 167.975 120.914 168.298 120.716C169.316 120.092 170.279 119.504 171.146 118.792C171.64 118.386 172.128 117.906 172.623 117.422C174.146 115.934 175.718 114.394 177.743 114.394C178.776 114.394 179.804 114.817 180.804 115.652C184.727 118.92 182.098 123.024 180.178 126.018L179.908 126.438C178.132 129.224 176.231 131.593 174.254 133.485C170.905 136.688 167.406 139.833 164.02 142.874C161.964 144.724 159.904 146.576 157.866 148.446L157.556 148.734C155.895 150.258 154.178 151.836 152.851 153.61C152.586 153.961 152.61 154.78 152.63 155.5C152.635 155.653 152.638 155.805 152.642 155.954C152.786 155.966 152.928 155.978 153.071 155.989C153.884 156.06 154.71 156.089 155.102 155.882C156.362 155.202 157.639 154.124 158.999 152.592C168.63 141.822 178.414 130.792 188.083 119.813C189.85 117.813 191.296 115.68 192.379 113.469C199.878 103.481 191.62 88.2851 191.535 88.1317L181.048 68.857L181.159 68.7971C179.642 66.8331 173.715 56.873 143.967 6.40238C134.158 23.3544 24.5765 212.725 17.0952 225.609C14.3458 230.333 11.6525 235.093 8.83383 240.073L5.55516 245.865C5.89116 245.862 6.20983 245.857 6.51517 245.854L8.13116 245.842ZM19.7778 291.548C19.1218 291.548 18.1685 291.274 17.3645 289.969C15.5352 286.984 18.6365 283.03 19.6312 281.888C23.1552 277.836 27.3538 274.233 31.4165 270.749C33.3165 269.118 35.2112 267.493 37.0312 265.832C38.2925 264.674 39.4218 263.51 40.3832 262.369C43.1858 259.044 44.2165 255.866 43.2872 253.412C42.4072 251.093 39.7352 249.493 35.7645 248.913C29.7818 248.034 23.5658 247.882 17.5565 247.734C14.9765 247.67 12.3965 247.608 9.8245 247.49C9.27116 247.462 8.7205 247.456 8.13116 247.456L6.5325 247.47C5.82983 247.476 5.05517 247.484 4.1645 247.484H2.77783L7.42983 239.278C10.2498 234.292 12.9458 229.528 15.6978 224.796C23.4925 211.378 142.064 6.46639 143.262 4.39839L143.954 3.20104L144.656 4.39172C156.824 25.0384 179.679 63.7291 182.179 67.6597H182.235L192.951 87.3544C193.311 88.0077 201.8 103.612 193.75 114.31C192.683 116.521 191.156 118.776 189.296 120.881C179.623 131.862 169.838 142.894 160.206 153.666C158.719 155.34 157.298 156.53 155.864 157.308C155.135 157.693 154.084 157.697 152.93 157.598C152.57 157.568 152.207 157.536 151.86 157.536H150.987L151.012 156.662C151.039 156.312 151.027 155.929 151.015 155.546C150.986 154.509 150.955 153.436 151.563 152.638C152.972 150.748 154.747 149.118 156.463 147.541L156.774 147.258C158.818 145.381 160.878 143.526 162.94 141.674C166.316 138.64 169.806 135.502 173.138 132.317C175.022 130.516 176.843 128.245 178.546 125.57L178.818 125.146C181.031 121.693 182.396 119.078 179.77 116.89C179.059 116.298 178.395 116.01 177.743 116.01C176.379 116.01 175.043 117.314 173.752 118.577C173.223 119.096 172.699 119.606 172.17 120.041C171.216 120.822 170.16 121.469 169.142 122.093C168.687 122.372 168.234 122.65 167.788 122.94L167.364 123.216L164.72 121.628L164.958 120.997C165.244 120.237 165.472 119.425 165.703 118.613C166.238 116.721 166.792 114.766 168.063 113.358C174.035 106.749 174.312 99.9971 168.962 91.4691C165.816 86.4664 147.771 55.233 143.978 48.661C136.86 60.949 78.1952 162.224 74.7338 168.377L74.9125 168.901L74.3538 169.021C72.1658 172.636 49.2805 212.161 42.3565 224.25L46.1712 224.566C49.7938 224.858 53.1152 225.128 56.4312 225.47C61.0325 225.95 63.6072 226.509 64.9045 228.246C66.1832 229.958 65.9925 232.49 65.1165 237.188C64.5712 240.121 65.0992 242.905 65.6098 245.598C66.4192 249.864 67.2552 254.272 63.7538 259.041C59.9405 264.238 55.7512 269.265 51.6978 274.129L48.8658 277.533C47.9312 278.661 45.5418 279.721 44.1405 279.042C43.3712 278.661 43.1378 278.088 43.0778 277.674C42.8605 276.182 44.5205 274.504 46.2378 272.916C46.4458 272.724 46.6138 272.565 46.7165 272.461C47.6298 271.521 48.5498 270.597 49.4698 269.673C50.7472 268.389 52.0245 267.105 53.2738 265.794C54.7138 264.276 55.9645 262.753 55.4312 260.862C54.9645 259.204 52.6192 258.876 51.3312 259.482C47.9645 261.044 45.5472 262.68 43.9392 264.485C42.2138 266.412 40.5285 268.37 38.8485 270.333C36.4098 273.202 34.0058 276.097 31.6018 278.993L29.8792 281.068C29.4138 281.626 28.9432 282.178 28.4712 282.728C27.7338 283.592 26.9965 284.452 26.2885 285.341C26.0832 285.6 25.8218 285.984 25.5125 286.429C23.6565 289.126 21.8218 291.548 19.7778 291.548" fill="#EE2E65"/>
<path d="M153.429 155.21C154.101 155.267 154.671 155.198 154.726 155.166C155.889 154.54 157.094 153.519 158.399 152.055C163.063 146.838 167.722 141.607 172.369 136.371C169.797 138.766 167.186 141.112 164.574 143.459C162.515 145.312 160.455 147.167 158.415 149.042L158.102 149.328C156.469 150.826 154.778 152.378 153.498 154.094C153.422 154.251 153.422 154.782 153.429 155.21ZM52.698 256.776C55.1487 256.776 57.186 258.158 57.7633 260.208C58.0153 261.11 58.0313 261.956 57.89 262.738C59.226 261.04 60.5327 259.332 61.7993 257.603C64.6793 253.684 64.0087 250.146 63.2327 246.046C62.6767 243.131 62.11 240.124 62.734 236.742C63.4313 233.015 63.6927 230.668 62.9647 229.694C62.2167 228.69 59.814 228.255 56.1793 227.876C52.9127 227.542 49.638 227.278 46.074 226.987L38.3673 226.344L39.622 224.148C64.9167 179.874 70.9967 169.814 72.7313 167.466C74.8073 163.234 85.99 143.932 142.578 46.2375L143.979 43.8189L145.377 46.2415C145.597 46.6228 167.539 84.6508 171.015 90.1815C176.957 99.6508 176.591 107.528 169.861 114.979C168.971 115.968 168.517 117.571 168.038 119.268C167.962 119.532 167.886 119.803 167.807 120.07C167.83 120.056 167.854 120.042 167.879 120.024C168.87 119.419 169.811 118.847 170.629 118.17C171.11 117.78 171.579 117.312 172.055 116.847C173.621 115.319 175.393 113.588 177.745 113.588C178.969 113.588 180.171 114.071 181.322 115.028C185.794 118.756 182.703 123.575 180.854 126.459L180.59 126.875C180.414 127.152 180.237 127.424 180.054 127.695C182.533 124.891 185.007 122.088 187.478 119.28C189.201 117.332 190.605 115.255 191.654 113.115C198.934 103.398 190.91 88.6722 190.829 88.5228L180.339 69.2389L180.527 69.1388C178.315 66.2602 171.469 54.6589 143.973 8.00287C130.626 31.0655 25.1767 213.299 17.79 226.015C15.0207 230.775 12.3087 235.571 9.47001 240.59L6.94735 245.044L8.12602 245.031C8.75668 245.031 9.34468 245.044 9.93268 245.07C12.4847 245.188 15.05 245.246 17.614 245.308C23.694 245.46 29.99 245.619 36.118 246.514C40.9967 247.232 44.346 249.378 45.5513 252.556C46.4713 254.972 46.0873 257.786 44.4847 260.694C46.0393 259.495 47.9487 258.384 50.3073 257.288C51.0193 256.954 51.846 256.776 52.698 256.776V256.776ZM48.9953 273.594C48.8153 273.776 48.6353 273.96 48.4567 274.142C48.3393 274.268 48.138 274.451 47.8847 274.684C46.886 275.612 46.2833 276.255 45.9327 276.696C46.3713 276.519 46.7993 276.238 47.002 275.99L48.9953 273.594ZM35.8553 270.119C34.9087 270.944 33.9513 271.764 32.9927 272.584C28.9993 276.01 24.8673 279.555 21.4607 283.477C19.9353 285.232 18.7433 287.584 19.43 288.7C19.6193 289.015 19.758 289.104 19.79 289.123C20.414 289.111 21.67 287.742 23.518 285.06C23.8647 284.556 24.1607 284.127 24.3913 283.838C25.126 282.916 25.89 282.02 26.6553 281.125L30.046 277.075C31.9767 274.754 33.9073 272.427 35.8553 270.119ZM19.7767 292.352C18.9127 292.352 17.6767 292.014 16.6767 290.391C14.5607 286.942 17.9353 282.6 19.0233 281.358C22.5847 277.258 26.8073 273.636 30.8913 270.136C32.7847 268.51 34.674 266.894 36.486 265.236C37.7167 264.107 38.8207 262.969 39.766 261.848C42.3727 258.756 43.3553 255.862 42.5327 253.699C41.7607 251.667 39.3193 250.247 35.6473 249.712C29.7113 248.842 23.5207 248.688 17.5314 248.538C14.9447 248.475 12.362 248.412 9.78601 248.294C9.24601 248.274 8.70735 248.26 8.12602 248.26L1.39001 248.294L6.65668 239.002C9.50868 233.967 12.2233 229.164 14.9993 224.395C22.8807 210.814 142.559 3.99218 142.559 3.99218L143.949 1.6002L145.347 3.98152C154.879 20.1535 179.031 61.0588 182.619 66.8428H182.71L193.661 86.9708C194.033 87.6322 202.759 103.684 194.395 114.795C193.377 116.936 191.811 119.251 189.901 121.419C180.243 132.382 170.549 143.312 160.809 154.207C159.253 155.955 157.762 157.2 156.245 158.018C155.362 158.484 154.186 158.515 152.867 158.403C152.526 158.374 152.191 158.342 151.871 158.342H150.121L150.206 156.598C150.234 156.276 150.218 155.922 150.211 155.571C150.178 154.447 150.142 153.172 150.918 152.151C152.373 150.202 154.173 148.55 155.921 146.946L156.23 146.663C158.279 144.779 160.349 142.919 162.417 141.059C165.835 137.984 169.255 134.911 172.579 131.736C174.411 129.982 176.194 127.76 177.865 125.136L178.135 124.714C180.534 120.976 181.218 119.148 179.253 117.511C178.691 117.042 178.199 116.818 177.745 116.818C176.705 116.818 175.49 118.007 174.314 119.154C173.767 119.69 173.23 120.214 172.679 120.662C171.687 121.482 170.607 122.144 169.563 122.782C169.115 123.052 168.667 123.331 168.227 123.614L167.382 124.17L163.726 121.97L164.202 120.714C164.483 119.971 164.706 119.18 164.929 118.384C165.489 116.41 166.069 114.363 167.463 112.815C173.23 106.432 173.475 100.175 168.278 91.8989C165.249 87.0722 148.929 58.8509 143.973 50.2722C120.769 90.3335 79.646 161.366 75.6047 168.475L75.9353 169.508L74.8647 169.738C71.9567 174.612 51.0393 210.738 43.69 223.55L46.334 223.77C49.922 224.062 53.2207 224.326 56.514 224.666C61.3527 225.171 64.0767 225.79 65.554 227.763C67.1433 229.895 66.7047 233.078 65.9127 237.336C65.3953 240.119 65.8847 242.704 66.4047 245.447C67.2433 249.882 68.114 254.467 64.4047 259.514C60.57 264.743 56.366 269.79 52.3007 274.667L49.4873 278.052C48.3967 279.366 45.5833 280.651 43.782 279.762C42.9393 279.347 42.4033 278.646 42.278 277.794C42.006 275.914 43.8167 274.054 45.69 272.319C45.886 272.136 46.0393 271.998 46.134 271.896C47.0593 270.951 47.986 270.016 48.9193 269.083C50.1833 267.808 51.4527 266.542 52.6913 265.24C54.2567 263.583 55.0313 262.428 54.6527 261.084C54.35 259.994 52.5593 259.803 51.6727 260.214C48.402 261.735 46.0713 263.304 44.542 265.02C42.8193 266.946 41.1353 268.9 39.4607 270.862C37.13 273.599 34.83 276.368 32.5313 279.138L29.1127 283.226C28.3687 284.088 27.63 284.955 26.918 285.85C26.722 286.095 26.47 286.46 26.174 286.89C24.5873 289.199 22.414 292.352 19.7767 292.352" fill="#EE2E65"/>
<path d="M161.735 147.109C160.808 147.948 159.881 148.791 158.96 149.636L158.649 149.921C157.095 151.347 155.492 152.817 154.268 154.415C154.336 154.413 154.395 154.407 154.441 154.401C155.507 153.804 156.596 152.864 157.796 151.519C159.111 150.048 160.423 148.579 161.735 147.109ZM153.948 156.039C153.767 156.039 153.569 156.031 153.361 156.015L152.633 155.953L152.621 155.223C152.608 154.353 152.644 154.008 152.769 153.744C154.18 151.828 155.896 150.255 157.557 148.735L157.869 148.447C159.912 146.571 161.973 144.716 164.033 142.859C166.644 140.516 169.251 138.172 171.817 135.781L172.972 136.909C168.327 142.143 163.667 147.373 159.003 152.593C157.625 154.135 156.352 155.208 155.105 155.876C155.052 155.911 154.833 156.039 153.948 156.039ZM52.6973 255.969C55.516 255.969 57.864 257.584 58.54 259.989C58.584 260.14 58.62 260.293 58.6507 260.444C59.5 259.347 60.332 258.24 61.1493 257.128C63.8187 253.493 63.2093 250.276 62.44 246.204C61.872 243.221 61.2853 240.139 61.9413 236.597C62.3013 234.657 62.9747 231.056 62.3173 230.176C61.6307 229.255 57.8933 228.867 56.096 228.681C52.908 228.353 49.7107 228.093 46.2427 227.811L37.0373 227.044L38.9213 223.748C65.2973 177.579 70.4853 169.144 72.0827 166.987C74.0773 162.889 85.504 143.16 140.419 48.3573L143.981 42.2053L146.193 46.0386C149.895 52.4533 168.524 84.6987 171.7 89.752C177.863 99.576 177.471 107.761 170.459 115.52C169.897 116.147 169.516 117.133 169.175 118.248C169.507 118.02 169.823 117.789 170.119 117.547C170.548 117.195 170.968 116.781 171.393 116.364C173.088 114.711 175.065 112.78 177.745 112.78C179.164 112.78 180.541 113.328 181.84 114.409C184.652 116.755 184.801 119.481 184.059 121.94C184.997 120.875 185.935 119.809 186.873 118.748C188.541 116.856 189.909 114.841 190.929 112.759C197.947 103.369 190.201 89.0587 190.121 88.9147L179.24 68.912L179.328 68.8613C176.685 65.0707 169.651 53.1613 143.98 9.604L125.133 42.172C89.888 103.076 24.284 216.444 18.488 226.421C15.7213 231.18 13.0107 235.971 10.1733 240.988L8.34001 244.224C8.90534 244.228 9.43601 244.24 9.96801 244.261C12.2867 244.372 14.6107 244.428 16.9373 244.485L17.6333 244.501C23.7387 244.652 30.0493 244.809 36.2347 245.716C41.416 246.479 44.992 248.805 46.3067 252.269C47.0253 254.159 47.028 256.265 46.3307 258.467C47.4053 257.82 48.612 257.187 49.9667 256.556C50.784 256.171 51.728 255.969 52.6973 255.969V255.969ZM56.516 265.785L57.0947 262.592C57.2253 261.88 57.188 261.147 56.9853 260.425C56.508 258.725 54.784 257.584 52.6973 257.584C51.964 257.584 51.2573 257.736 50.6493 258.019C48.32 259.1 46.4653 260.185 44.9787 261.333L41.9067 263.699L43.7787 260.304C45.272 257.593 45.624 255.013 44.7973 252.844C43.7 249.952 40.576 247.985 36 247.311C29.912 246.423 23.6507 246.267 17.5933 246.116L16.8973 246.1C14.56 246.04 12.2213 245.984 9.89601 245.876C9.32001 245.851 8.74534 245.839 8.12534 245.839L5.552 245.867L8.76801 240.193C11.6067 235.169 14.3213 230.371 17.092 225.609C22.8867 215.633 88.4907 102.267 123.736 41.3613L143.967 6.40267L144.668 7.59334C172.395 54.64 179.021 65.852 181.168 68.6453L181.748 69.4027L181.435 69.5707L191.539 88.1373C191.619 88.2853 199.877 103.484 192.301 113.599C191.295 115.683 189.848 117.817 188.084 119.815C185.611 122.623 183.14 125.425 180.659 128.229L179.384 127.245C179.564 126.979 179.736 126.712 179.909 126.441L180.173 126.025C182.48 122.427 184.428 118.667 180.805 115.648C179.807 114.817 178.777 114.395 177.745 114.395C175.724 114.395 174.147 115.932 172.624 117.419C172.064 117.971 171.607 118.416 171.141 118.796C170.283 119.501 169.327 120.085 168.313 120.705L166.517 121.803L167.263 119.044C167.767 117.26 168.243 115.571 169.26 114.439C175.711 107.297 176.052 99.728 170.329 90.612C167.141 85.5333 148.499 53.2653 144.795 46.8467L143.977 45.432L141.816 49.1667C86.924 143.929 75.5027 163.651 73.4573 167.821C71.812 170.069 66.6587 178.451 40.324 224.549L39.696 225.643L46.3733 226.201C49.8547 226.485 53.0613 226.745 56.2627 227.073C60.3093 227.495 62.68 227.963 63.612 229.211C64.5253 230.435 64.3 232.755 63.5267 236.891C62.928 240.137 63.4853 243.063 64.0253 245.895C64.8027 250.009 65.536 253.885 62.452 258.081C61.1773 259.817 59.8667 261.532 58.524 263.236L56.516 265.785ZM28.804 277.303C26.4187 279.441 24.1107 281.657 22.0707 284.008C20.6253 285.667 19.9013 287.392 20.052 288.104C20.4427 287.757 21.2893 286.871 22.852 284.604C23.212 284.08 23.5213 283.636 23.76 283.336C24.5 282.405 25.2693 281.504 26.0427 280.601L28.804 277.303ZM19.5733 289.933L19.3747 289.817C19.1507 289.681 18.9347 289.445 18.7373 289.117C17.7427 287.503 19.2547 284.784 20.852 282.948C24.3 278.976 28.452 275.416 32.4667 271.971C33.424 271.151 34.3813 270.336 35.324 269.508L36.472 270.637C34.7827 272.64 33.104 274.66 31.428 276.676L27.276 281.641C26.5093 282.537 25.7533 283.428 25.0213 284.343C24.8013 284.62 24.5173 285.032 24.1827 285.519C21.3933 289.565 20.4613 289.917 19.8053 289.931L19.5733 289.933ZM8.124 247.453C8.716 247.453 9.264 247.467 9.81467 247.484C12.3933 247.604 14.9707 247.668 17.5507 247.732C23.648 247.885 29.8227 248.04 35.764 248.913C39.732 249.491 42.404 251.089 43.288 253.412C44.2187 255.861 43.188 259.041 40.384 262.368C39.432 263.497 38.3053 264.661 37.032 265.832C35.3627 267.359 33.6307 268.847 31.8907 270.345L31.4187 270.748C27.356 274.231 23.1573 277.828 19.6333 281.888C18.9227 282.699 15.48 286.897 17.364 289.969C18.0093 291.016 18.8213 291.545 19.7773 291.545C21.9947 291.545 24.0253 288.589 25.508 286.432C25.828 285.971 26.0867 285.597 26.2853 285.348C27.0067 284.443 27.7507 283.569 28.5013 282.699L31.912 278.621C34.2107 275.851 36.5133 273.08 38.8453 270.339C40.5253 268.371 42.2147 266.412 43.94 264.481C45.5413 262.685 47.96 261.051 51.332 259.483C51.716 259.305 52.2067 259.208 52.712 259.208C54.084 259.208 55.152 259.86 55.4307 260.869C55.96 262.749 54.7147 264.273 53.2787 265.797C52.2013 266.925 51.1053 268.029 50.0093 269.131L49.492 269.651C48.5587 270.584 47.6347 271.517 46.712 272.461C46.644 272.533 46.5267 272.643 46.3813 272.78C44.596 274.431 42.8613 276.183 43.076 277.677C43.124 277.996 43.252 278.28 43.4573 278.52L45.3 276.195C45.7267 275.659 46.4107 274.949 47.336 274.091C47.6293 273.823 47.7747 273.692 47.8627 273.593L48.42 273.028L49.6173 274.111L47.624 276.508C47.2813 276.923 46.68 277.264 46.2347 277.444L43.4853 278.555C43.6547 278.744 43.8747 278.908 44.14 279.04C44.424 279.18 44.764 279.248 45.1547 279.248C46.568 279.248 48.1813 278.36 48.8667 277.536L51.6787 274.148C55.728 269.295 59.9107 264.276 63.7547 259.037C67.2533 254.275 66.4573 250.065 65.6133 245.605C65.0773 242.783 64.5733 240.124 65.12 237.188C65.8733 233.132 66.3 230.116 64.9067 228.247C63.6093 226.512 61.0333 225.951 56.4307 225.471C53.2187 225.137 49.9973 224.877 46.508 224.593L42.36 224.249L42.9907 223.149C50.1653 210.64 71.2653 174.196 74.1693 169.324L74.3493 169.021L74.8947 168.904L74.728 168.384L74.9027 168.079C78.584 161.6 114.035 100.352 143.275 49.8667L143.975 48.6587L144.672 49.868C148.179 55.94 165.828 86.476 168.961 91.4693C174.315 99.9907 174.036 106.743 168.064 113.356C166.797 114.76 166.243 116.709 165.707 118.593C165.479 119.419 165.247 120.235 164.957 120.997L164.72 121.625L167.363 123.216L167.784 122.939C168.237 122.648 168.692 122.364 169.147 122.091C170.105 121.503 171.197 120.839 172.167 120.039C172.701 119.604 173.221 119.096 173.748 118.579C175.051 117.307 176.38 116.011 177.745 116.011C178.4 116.011 179.061 116.299 179.771 116.891C182.397 119.081 181.032 121.695 178.817 125.151L178.544 125.573C176.845 128.243 175.025 130.513 173.137 132.317C169.859 135.451 166.439 138.527 163.128 141.505L162.957 141.659C160.891 143.517 158.823 145.375 156.775 147.257L156.465 147.541C154.749 149.116 152.976 150.743 151.564 152.633C150.955 153.44 150.985 154.509 151.019 155.544C151.031 156.06 151.035 156.377 151.009 156.668L150.967 157.535H151.871C152.179 157.535 152.499 157.56 152.824 157.588C154.447 157.728 155.236 157.637 155.868 157.303C157.293 156.535 158.715 155.347 160.207 153.671C169.632 143.128 179.419 132.096 189.296 120.885C191.153 118.776 192.665 116.552 193.667 114.448C201.871 103.524 193.047 87.5267 192.957 87.3667L181.932 67.268C178.261 61.348 153.157 18.8227 144.652 4.39201L143.952 3.19999L143.259 4.39868C142.063 6.46668 23.4893 211.375 15.6973 224.799C13.0947 229.275 10.544 233.776 7.88534 238.471L2.77867 247.479L8.124 247.453ZM19.7773 293.161C18.7093 293.161 17.184 292.753 15.9893 290.813C13.5733 286.877 17.236 282.176 18.416 280.825C22.016 276.681 26.2627 273.041 30.3667 269.525L30.836 269.119C32.5653 267.632 34.2853 266.156 35.9413 264.639C37.1627 263.52 38.2413 262.404 39.1493 261.328C41.5587 258.471 42.492 255.861 41.7773 253.984C41.112 252.235 38.8947 251.001 35.5307 250.509C29.6827 249.651 23.5587 249.497 17.6347 249.349C14.92 249.283 12.3307 249.22 9.74801 249.099C9.22667 249.081 8.69734 249.068 8.12534 249.068L0 249.107L6.48 237.676C9.14267 232.973 11.6947 228.467 14.3 223.988C22.092 210.565 140.664 5.65601 141.861 3.58801L143.943 -2.87127e-06L146.043 3.572C154.383 17.7213 178.679 58.8787 183.069 66.036H183.096L183.42 66.4573L194.371 86.5853C194.753 87.268 203.787 103.66 195.04 115.281C194.06 117.379 192.464 119.735 190.505 121.953C180.627 133.167 170.839 144.2 161.411 154.745C159.792 156.564 158.229 157.864 156.628 158.729C155.699 159.22 154.389 159.348 152.797 159.205C152.411 159.172 152.135 159.149 151.871 159.149H149.272L149.399 156.557C149.421 156.291 149.413 156.036 149.408 155.777C149.368 154.404 149.321 152.917 150.275 151.661C151.773 149.653 153.604 147.976 155.373 146.353L155.683 146.068C157.735 144.185 159.807 142.32 161.877 140.459L162.049 140.303C165.348 137.335 168.761 134.267 172.02 131.151C173.816 129.433 175.551 127.265 177.184 124.703L177.456 124.277C180.037 120.256 180.039 119.215 178.736 118.131C178.34 117.8 177.997 117.625 177.745 117.625C177.039 117.625 175.848 118.784 174.892 119.719C174.316 120.285 173.757 120.825 173.192 121.288C172.137 122.156 170.993 122.856 169.984 123.471C169.54 123.74 169.099 124.013 168.664 124.295L167.401 125.123L162.733 122.315L163.447 120.427C163.72 119.708 163.936 118.94 164.151 118.168C164.74 116.091 165.347 113.961 166.863 112.273C172.419 106.125 172.631 100.347 167.593 92.328C164.619 87.5853 148.671 60.0173 143.972 51.8853C115.287 101.412 80.952 160.732 76.4827 168.567L76.9773 170.109L75.3773 170.453C71.9787 176.191 52.58 209.693 45.0227 222.851L46.6373 222.984C50.1413 223.269 53.3733 223.531 56.5973 223.861C61.668 224.392 64.544 225.067 66.2 227.28C67.9867 229.676 67.5373 233.021 66.7067 237.484C66.216 240.121 66.6933 242.635 67.1987 245.296C68.0293 249.693 68.9707 254.667 65.0573 259.993C61.1827 265.273 56.9827 270.309 52.92 275.184L50.108 278.571C49.1827 279.68 47.1333 280.863 45.1547 280.863C44.5147 280.863 43.9307 280.737 43.424 280.488C42.336 279.948 41.6453 279.033 41.48 277.915C41.1507 275.637 43.108 273.608 45.1413 271.727C45.396 271.493 45.484 271.408 45.5453 271.345C46.484 270.383 47.4133 269.449 48.348 268.513L48.8653 267.995C49.952 266.897 51.04 265.804 52.108 264.684C53.672 263.025 54.12 262.171 53.876 261.303C53.7653 260.905 52.5427 260.713 52.012 260.947C48.8453 262.417 46.5973 263.927 45.144 265.557C43.4253 267.477 41.7453 269.429 40.0733 271.385C37.7467 274.12 35.4507 276.885 33.152 279.655L29.7333 283.743C28.9867 284.609 28.2547 285.465 27.5507 286.352C27.3667 286.581 27.132 286.921 26.856 287.323C25.152 289.801 22.8453 293.161 19.7773 293.161" fill="#EE2E65"/>
<path fill-rule="evenodd" clip-rule="evenodd" d="M13.0531 317.314C15.0024 320.562 16.1371 324.056 12.5144 327.154C9.96909 329.336 6.97175 331.878 3.97042 327.948C1.35175 324.516 -0.256248 320.896 4.10909 317.162C7.24109 314.487 9.91442 314.115 13.0531 317.314Z" fill="#DC3861"/>
<path d="M149.192 186.351C147.783 187.841 145.854 192.213 148.616 193.278C152.123 194.627 155.692 187.866 157.112 185.769C162.306 178.11 167.792 170.665 176.248 166.341C178.326 165.277 182.355 164.479 183.396 165.567C187.132 169.446 189.024 166.826 191.376 164.407C194.506 161.183 198.104 157.797 202.806 157.469C213.974 156.693 219.131 172.298 223.692 180.242C230.087 191.377 236.491 202.499 242.9 213.626C245.384 217.941 247.867 222.243 250.339 226.551C246.882 226.551 184.518 226.546 155.246 226.521C144.838 226.514 135.063 228.37 126.336 234.649C124.608 235.89 120.767 236.382 119.24 235.303C114.37 231.903 110.352 233.533 106.643 236.509C102.294 239.985 98.2351 243.865 94.3618 247.882C76.9204 265.991 59.5924 284.215 42.2151 302.382C37.2204 307.605 32.0431 312.663 27.2484 318.057C25.4471 320.075 24.1924 322.745 23.2778 325.323C22.8311 326.586 23.2524 328.881 24.1671 329.683C24.9058 330.326 27.3791 329.905 28.4071 329.097C30.8311 327.191 33.0804 324.946 35.0204 322.53C43.0284 312.518 50.6764 302.217 58.8738 292.365C69.8111 279.219 81.2791 266.522 95.3524 256.538C97.0671 255.319 100.344 252.663 102.7 253.642C106.031 255.029 102.474 258.574 101.508 260.289C101.016 261.161 100.631 262.637 101.051 263.342C101.455 264.023 103.044 264.503 103.924 264.295C105.756 263.861 107.57 263.085 109.194 262.118C111.286 260.882 113.078 259.142 115.171 257.913C128.468 250.115 142.919 247.667 158.22 247.755C199.16 247.99 285.478 247.231 285.478 247.231L227.7 146.821C220.103 132.103 204.407 128.866 193.606 139.566C178.332 154.679 163.94 170.689 149.192 186.351Z" fill="#4AB8E3"/>
<path d="M113.831 234.21C111.762 234.21 109.638 235.14 107.15 237.14C103.311 240.206 99.319 243.903 94.943 248.444C83.091 260.751 71.291 273.108 59.4937 285.464C53.9297 291.294 48.3657 297.119 42.7977 302.942C41.1617 304.654 39.5044 306.347 37.847 308.04C34.5124 311.454 31.063 314.983 27.8524 318.594C26.3657 320.262 25.119 322.548 24.0404 325.595C23.6937 326.567 24.063 328.518 24.699 329.074C24.7377 329.106 24.9444 329.187 25.3897 329.187C26.267 329.187 27.3977 328.863 27.9084 328.462C30.2697 326.608 32.451 324.442 34.391 322.024C37.5497 318.075 40.651 314.079 43.755 310.087C48.4404 304.058 53.283 297.823 58.2524 291.848C68.7804 279.198 80.5044 266.08 94.8857 255.878L95.3964 255.508C96.979 254.36 99.3737 252.624 101.583 252.624C102.094 252.624 102.572 252.714 103.01 252.898C103.972 253.298 104.578 253.904 104.804 254.698C105.27 256.316 103.986 258.123 102.955 259.576C102.659 259.994 102.388 260.372 102.212 260.687C101.747 261.508 101.563 262.627 101.746 262.93C101.868 263.138 102.674 263.538 103.455 263.538C103.592 263.538 103.686 263.522 103.739 263.511C105.412 263.114 107.155 262.391 108.78 261.426C109.782 260.836 110.7 260.128 111.674 259.384C112.652 258.634 113.667 257.858 114.763 257.215C126.712 250.21 140.27 246.947 157.428 246.947L158.223 246.95C163.69 246.979 169.97 246.994 176.742 246.994C216.643 246.994 274.451 246.519 284.088 246.438L227 147.223C222.74 138.972 215.644 134.066 208.002 134.066C202.967 134.066 198.186 136.167 194.174 140.14C183.243 150.958 172.58 162.43 162.27 173.524C158.118 177.994 153.963 182.463 149.78 186.904C148.871 187.866 147.755 190.159 148.074 191.57C148.18 192.042 148.446 192.348 148.907 192.524C151.3 193.43 154.244 188.799 155.75 186.399C156.016 185.974 156.25 185.602 156.444 185.318C161.783 177.446 167.287 170.015 175.88 165.622C177.444 164.82 179.812 164.239 181.511 164.239C182.662 164.239 183.49 164.499 183.979 165.01C185.099 166.171 186.05 166.738 186.888 166.738C188.039 166.738 189.074 165.652 190.268 164.399L190.799 163.847C194.142 160.4 197.818 157.006 202.748 156.663C212.4 156.023 217.615 166.472 221.784 174.831C222.696 176.66 223.559 178.39 224.392 179.843C230.788 190.972 237.192 202.096 243.599 213.224L251.735 227.359H250.339C246.882 227.359 184.518 227.352 155.246 227.328C143.39 227.328 134.368 229.864 126.807 235.303C125.64 236.143 123.608 236.704 121.75 236.704C120.872 236.704 119.642 236.579 118.775 235.963C117.083 234.786 115.467 234.21 113.831 234.21ZM25.3897 330.803C24.6164 330.803 24.027 330.632 23.6377 330.292C22.4124 329.219 21.9977 326.516 22.5177 325.054C23.667 321.811 25.0177 319.344 26.6457 317.522C29.883 313.879 33.3457 310.338 36.6924 306.911C38.3457 305.224 39.9977 303.534 41.631 301.824C47.199 296.006 52.7617 290.178 58.3244 284.35C70.1257 271.991 81.9257 259.631 93.779 247.322C98.2044 242.734 102.247 238.988 106.139 235.879C111.147 231.863 115.303 231.572 119.702 234.642C120.108 234.928 120.854 235.09 121.75 235.09C123.274 235.09 124.966 234.639 125.864 233.992C133.715 228.344 143.035 225.712 155.192 225.712C182.611 225.736 238.915 225.744 248.944 225.744L242.199 214.031C235.791 202.904 229.387 191.78 222.992 180.646C222.136 179.151 221.262 177.402 220.338 175.551C216.376 167.61 211.415 157.678 202.86 158.274C198.499 158.579 195.082 161.748 191.956 164.968L191.438 165.511C190.107 166.907 188.734 168.352 186.888 168.352C185.587 168.352 184.255 167.624 182.815 166.128C182.788 166.098 182.526 165.855 181.511 165.855C180.062 165.855 177.958 166.371 176.614 167.06C168.363 171.28 162.998 178.53 157.782 186.223C157.595 186.495 157.372 186.851 157.118 187.256C155.474 189.879 152.723 194.262 149.556 194.262C149.136 194.262 148.723 194.183 148.326 194.031C147.358 193.656 146.724 192.927 146.498 191.926C146.034 189.868 147.423 187.047 148.606 185.796C152.786 181.359 156.935 176.895 161.088 172.424C171.41 161.319 182.082 149.832 193.039 138.992C197.358 134.714 202.53 132.451 208.002 132.451C216.26 132.451 223.892 137.684 228.416 146.451L286.866 248.028L285.483 248.04C284.838 248.047 220.183 248.608 176.742 248.608C169.966 248.608 163.684 248.595 158.215 248.564L157.428 248.562C140.568 248.562 127.27 251.756 115.58 258.608C114.57 259.202 113.64 259.914 112.656 260.668C111.688 261.408 110.686 262.176 109.607 262.812C107.842 263.863 105.942 264.646 104.11 265.08C102.978 265.355 100.983 264.816 100.358 263.756C99.7044 262.659 100.267 260.846 100.806 259.894C101.003 259.539 101.304 259.111 101.638 258.643C102.38 257.596 103.503 256.014 103.252 255.142C103.22 255.032 103.123 254.691 102.39 254.386C100.78 253.72 98.011 255.607 96.343 256.818L95.819 257.195C81.5897 267.292 69.951 280.314 59.495 292.883C54.5417 298.835 49.707 305.062 45.031 311.078C41.9217 315.076 38.815 319.079 35.651 323.034C33.6324 325.548 31.363 327.799 28.9057 329.731C28.0097 330.438 26.4577 330.803 25.3897 330.803" fill="#4AB8E3"/>
<path d="M113.828 234.207C111.762 234.207 109.638 235.14 107.148 237.14C103.316 240.199 99.3264 243.896 94.9451 248.444C83.1024 260.736 71.3158 273.082 59.5291 285.427C53.9531 291.268 48.3771 297.108 42.7944 302.944C41.1638 304.646 39.5145 306.338 37.8625 308.027C34.5225 311.442 31.0678 314.972 27.8518 318.594C26.3691 320.259 25.1198 322.548 24.0411 325.595C23.6878 326.586 24.0531 328.51 24.6998 329.076C24.7411 329.103 24.9464 329.19 25.3904 329.19C26.2678 329.19 27.3971 328.863 27.9024 328.459C30.2731 326.604 32.4558 324.435 34.3931 322.024C37.5598 318.064 40.6691 314.059 43.7851 310.052C48.4598 304.035 53.2904 297.808 58.2544 291.847C68.7838 279.2 80.5025 266.087 94.8851 255.88L95.3891 255.514C96.9731 254.36 99.3704 252.626 101.584 252.626C102.096 252.626 102.574 252.714 103.01 252.898C103.974 253.294 104.577 253.9 104.804 254.694C105.268 256.316 103.988 258.126 102.953 259.576C102.66 259.994 102.388 260.372 102.212 260.687C101.748 261.508 101.565 262.623 101.745 262.927C101.868 263.135 102.676 263.538 103.454 263.538C103.596 263.538 103.688 263.519 103.741 263.508C105.41 263.116 107.154 262.398 108.781 261.426C109.778 260.839 110.693 260.132 111.664 259.388C112.648 258.636 113.664 257.86 114.761 257.212C126.709 250.21 140.257 246.95 157.402 246.95H158.222C163.645 246.979 169.868 246.994 176.573 246.994C216.482 246.994 274.433 246.519 284.09 246.438L227 147.224C222.74 138.974 215.644 134.066 208.001 134.066C202.964 134.066 198.182 136.167 194.173 140.14C183.253 150.947 172.605 162.407 162.301 173.494C158.137 177.975 153.97 182.455 149.782 186.907C148.872 187.866 147.754 190.162 148.073 191.571C148.181 192.042 148.445 192.347 148.906 192.524C151.309 193.436 154.242 188.799 155.746 186.403C156.016 185.976 156.248 185.602 156.444 185.318C161.78 177.446 167.284 170.02 175.878 165.622C177.449 164.823 179.814 164.239 181.514 164.239C182.662 164.239 183.493 164.499 183.978 165.007C185.101 166.171 186.05 166.735 186.888 166.735C188.04 166.735 189.074 165.65 190.273 164.388L190.797 163.843C194.146 160.399 197.824 157.008 202.749 156.664C212.438 156.043 217.617 166.475 221.788 174.836C222.698 176.663 223.558 178.392 224.392 179.843C230.788 190.975 237.192 202.099 243.6 213.224L245.657 216.788C247.454 219.91 249.249 223.026 251.041 226.155L251.734 227.359H250.338C246.882 227.359 184.517 227.352 155.245 227.328C143.38 227.328 134.369 229.864 126.806 235.303C125.638 236.143 123.605 236.704 121.748 236.704C120.87 236.704 119.644 236.579 118.773 235.966C117.082 234.788 115.465 234.207 113.828 234.207ZM25.3904 330.806C24.6144 330.806 24.0278 330.628 23.6371 330.294C22.3771 329.19 21.9971 326.523 22.5211 325.054C23.6691 321.811 25.0198 319.344 26.6464 317.522C29.8878 313.875 33.3544 310.324 36.7078 306.899C38.3544 305.215 39.9998 303.531 41.6278 301.828C47.2104 295.992 52.7865 290.152 58.3625 284.31C70.1491 271.964 81.9385 259.615 93.7811 247.322C98.2105 242.73 102.252 238.982 106.138 235.879C111.146 231.86 115.304 231.57 119.701 234.642C120.104 234.926 120.848 235.09 121.748 235.09C123.27 235.09 124.965 234.642 125.862 233.992C133.717 228.344 143.026 225.712 155.164 225.712C182.608 225.738 238.92 225.744 248.945 225.744C247.384 223.026 245.821 220.314 244.256 217.595L242.2 214.031C235.79 202.903 229.386 191.778 222.993 180.643C222.134 179.155 221.265 177.407 220.342 175.56C216.382 167.615 211.426 157.683 202.86 158.275C198.505 158.579 195.086 161.748 191.957 164.968L191.442 165.504C190.112 166.902 188.734 168.348 186.888 168.348C185.586 168.348 184.256 167.623 182.817 166.126C182.788 166.098 182.526 165.855 181.514 165.855C180.066 165.855 177.96 166.375 176.616 167.06C168.358 171.283 162.997 178.534 157.781 186.22C157.598 186.498 157.372 186.856 157.112 187.264C155.473 189.882 152.721 194.262 149.558 194.262H149.554C149.14 194.262 148.722 194.186 148.326 194.031C147.36 193.656 146.726 192.932 146.5 191.928C146.036 189.875 147.424 187.05 148.605 185.796C152.794 181.35 156.954 176.871 161.117 172.394C171.43 161.296 182.096 149.823 193.04 138.992C197.357 134.714 202.529 132.451 208.001 132.451C216.262 132.451 223.893 137.684 228.416 146.448L286.865 248.028L285.484 248.04C284.834 248.047 220.017 248.608 176.573 248.608C169.862 248.608 163.638 248.595 158.216 248.564H157.402C140.554 248.564 127.266 251.756 115.581 258.606C114.565 259.204 113.632 259.916 112.648 260.676C111.684 261.412 110.684 262.176 109.608 262.812C107.841 263.866 105.94 264.648 104.113 265.078C102.985 265.348 100.985 264.814 100.357 263.752C99.7051 262.656 100.266 260.846 100.808 259.894C101.004 259.539 101.306 259.118 101.637 258.643C102.378 257.596 103.501 256.012 103.253 255.142C103.221 255.028 103.124 254.694 102.392 254.386C100.77 253.718 98.0078 255.61 96.3385 256.82L95.8185 257.198C81.5905 267.291 69.9531 280.318 59.4971 292.883C54.5531 298.824 49.7264 305.038 45.0598 311.043C41.9424 315.055 38.8238 319.067 35.6505 323.034C33.6358 325.546 31.3638 327.796 28.9051 329.728C28.0118 330.434 26.4598 330.806 25.3904 330.806" fill="#4AB8E3"/>
<path d="M202.926 157.462C202.885 157.466 202.844 157.468 202.802 157.47C201.488 157.561 200.262 157.89 199.105 158.392C200.262 157.89 201.49 157.561 202.805 157.47C202.845 157.468 202.886 157.466 202.926 157.462ZM208.002 133.26C215.952 133.26 223.322 138.341 227.72 146.853L237.454 163.773L227.717 146.85C223.318 138.325 215.954 133.26 208.002 133.26ZM196.1 160.138C194.409 161.364 192.861 162.878 191.376 164.404L190.854 164.945C190.313 165.518 189.784 166.076 189.234 166.53C189.784 166.08 190.314 165.521 190.857 164.949L191.373 164.41C192.858 162.88 194.409 161.364 196.1 160.138V160.138ZM220.51 174.086C220.698 174.461 220.882 174.83 221.065 175.2C221.801 176.676 222.504 178.086 223.188 179.341C222.516 178.104 221.828 176.722 221.106 175.281C220.91 174.888 220.712 174.488 220.51 174.086V174.086ZM178.026 165.637C177.38 165.836 176.765 166.076 176.245 166.341C168.741 170.182 163.614 176.418 158.861 183.222C163.625 176.409 168.757 170.172 176.249 166.341C176.77 166.076 177.381 165.836 178.026 165.637V165.637ZM170.962 163.009C167.869 166.316 164.804 169.613 161.768 172.88L161.069 173.632C157.12 177.88 153.169 182.129 149.194 186.352C148.937 186.622 148.665 186.986 148.408 187.405C148.666 186.986 148.938 186.622 149.198 186.352C153.382 181.902 157.548 177.424 161.709 172.945L161.886 172.753C164.884 169.529 167.909 166.274 170.962 163.009V163.009ZM156.361 186.945C155.356 188.536 154.3 190.112 153.197 191.317C154.47 189.941 155.582 188.184 156.361 186.945ZM148.47 193.217C148.518 193.241 148.566 193.26 148.62 193.278C149.228 193.518 149.912 193.502 150.565 193.269C149.918 193.493 149.238 193.514 148.62 193.278C148.568 193.26 148.518 193.241 148.47 193.217ZM235.954 201.566C238.269 205.585 240.584 209.606 242.9 213.626L249.001 224.221C247.73 222.008 246.457 219.797 245.182 217.585L242.901 213.626C240.585 209.606 238.269 205.585 235.954 201.566V201.566ZM155.164 226.521C143.204 226.521 134.044 229.102 126.336 234.649C126.264 234.698 126.19 234.75 126.113 234.797C126.19 234.75 126.265 234.698 126.336 234.649C134.03 229.112 143.201 226.53 155.186 226.521H155.164ZM113.828 233.398C115.629 233.398 117.398 234.024 119.236 235.304C119.932 235.794 120.986 235.897 121.748 235.897C121.126 235.897 119.972 235.822 119.237 235.301C116.453 233.358 113.926 232.889 111.133 233.866C112.049 233.55 112.94 233.398 113.828 233.398ZM107.362 235.954C107.126 236.132 106.886 236.314 106.644 236.509C105.552 237.38 104.449 238.304 103.324 239.284C104.449 238.304 105.552 237.38 106.645 236.509C106.886 236.314 107.126 236.132 107.362 235.954ZM158.216 247.756C160.87 247.772 163.717 247.781 166.716 247.79C163.717 247.781 160.872 247.772 158.218 247.756H158.216ZM207.034 247.732C197.006 247.772 187.084 247.797 178.026 247.8C187.084 247.797 197.004 247.772 207.034 247.732ZM103.013 253.786C103.566 254.084 103.9 254.456 104.03 254.925C104.034 254.937 104.037 254.95 104.04 254.96C104.037 254.946 104.032 254.933 104.029 254.916C103.893 254.446 103.56 254.074 103.013 253.786V253.786ZM101.584 253.433C99.6702 253.433 97.3982 255.052 95.9835 256.08C98.0342 254.604 100.458 253.141 102.225 253.496C102.022 253.456 101.808 253.433 101.584 253.433ZM95.6209 256.345L95.3609 256.534C94.6569 257.036 93.9569 257.541 93.2662 258.053C93.9542 257.544 94.6515 257.038 95.3515 256.541L95.6209 256.345ZM103.87 256.48C103.594 257.193 103.094 257.969 102.516 258.798C103.049 258.042 103.581 257.241 103.87 256.48ZM156.85 247.756C140.117 247.825 126.86 251.058 115.17 257.908C114.122 258.528 113.13 259.284 112.172 260.016C111.517 260.517 110.922 260.976 110.325 261.388C110.954 260.952 111.564 260.49 112.157 260.034C113.061 259.341 114.084 258.552 115.172 257.913C126.86 251.058 140.117 247.825 156.85 247.756V247.756ZM101.354 260.593C101.124 261.078 100.953 261.648 100.893 262.16C100.958 261.621 101.145 261.045 101.354 260.593ZM99.2822 242.978C97.6929 244.494 96.0569 246.126 94.3635 247.882C82.8249 259.858 71.3369 271.889 59.8542 283.92L58.9462 284.869C53.3702 290.71 47.7929 296.55 42.2115 302.385C42.1569 302.441 42.1035 302.498 42.0489 302.556C42.1035 302.498 42.1569 302.441 42.2115 302.385C47.7915 296.55 53.3689 290.713 58.9435 284.872C70.7315 272.524 82.5195 260.18 94.3635 247.882C96.0569 246.126 97.6929 244.494 99.2822 242.978V242.978ZM66.4875 283.446C63.8715 286.414 61.3422 289.404 58.8769 292.365C54.5275 297.589 50.2742 303.02 46.1435 308.333C50.2755 303.024 54.5289 297.592 58.8769 292.365C61.3435 289.404 63.8715 286.418 66.4875 283.446V283.446ZM43.4035 311.861C41.8129 313.904 40.2209 315.946 38.6209 317.985C40.2222 315.946 41.8142 313.904 43.4035 311.861ZM25.1475 328.368C25.2022 328.378 25.2835 328.384 25.3915 328.384C26.1422 328.384 27.0702 328.09 27.3982 327.828C29.7115 326.018 31.8529 323.9 33.7635 321.521C36.7209 317.822 39.6275 314.08 42.5395 310.34L43.3129 309.346C47.9369 303.392 52.7195 297.233 57.6355 291.33C68.2049 278.633 79.9769 265.469 94.4182 255.221L94.9169 254.862C96.5769 253.652 99.0902 251.818 101.584 251.818C102.21 251.818 102.796 251.933 103.322 252.153C104.816 252.768 105.376 253.756 105.581 254.474C106.154 256.477 104.685 258.54 103.61 260.046C103.293 260.494 103.066 260.813 102.917 261.082C102.625 261.596 102.502 262.192 102.485 262.485C102.692 262.59 103.076 262.732 103.454 262.732C105.15 262.346 106.814 261.658 108.369 260.732C109.297 260.185 110.166 259.521 111.088 258.814C112.189 257.972 113.22 257.186 114.35 256.517C126.429 249.436 140.108 246.142 157.402 246.142H158.222C163.648 246.173 169.869 246.185 176.573 246.185C215.517 246.185 271.494 245.734 282.701 245.644L226.301 147.626C222.169 139.63 215.337 134.874 208.002 134.874C203.182 134.874 198.598 136.893 194.742 140.713C183.896 151.445 173.308 162.837 163.069 173.853L162.893 174.042C158.728 178.526 154.561 183.005 150.37 187.46C149.514 188.361 148.636 190.392 148.861 191.394C148.909 191.602 148.986 191.692 149.194 191.769C150.948 192.414 153.886 187.844 155.064 185.974C155.398 185.437 155.604 185.113 155.778 184.861C161.17 176.909 166.737 169.393 175.51 164.902C177.217 164.038 179.684 163.433 181.514 163.433C182.892 163.433 183.916 163.773 184.562 164.448C185.508 165.429 186.29 165.929 186.889 165.929C187.698 165.929 188.665 164.908 189.688 163.832L190.214 163.285C193.677 159.722 197.488 156.221 202.693 155.858C202.993 155.838 203.284 155.829 203.569 155.829C213.212 155.829 218.35 166.136 222.48 174.414C223.444 176.345 224.285 178.033 225.092 179.441C231.489 190.572 237.892 201.696 244.3 212.821L246.582 216.778C248.306 219.77 250.025 222.756 251.74 225.754L253.13 228.166H250.34C246.882 228.166 184.517 228.16 155.245 228.136C143.585 228.136 134.7 230.621 127.278 235.961C125.966 236.902 123.796 237.513 121.748 237.513C120.753 237.513 119.349 237.358 118.31 236.626C114.761 234.146 111.821 234.422 107.653 237.77C103.85 240.805 99.8835 244.48 95.5275 249.005C83.6835 261.296 71.8995 273.641 60.1129 285.985C54.5355 291.826 48.9609 297.666 43.3782 303.502C41.7462 305.21 40.0929 306.898 38.4395 308.593C35.2782 311.824 31.6982 315.481 28.4542 319.13C27.0369 320.722 25.8435 322.924 24.8035 325.864C24.5529 326.564 24.8342 327.913 25.1475 328.368V328.368ZM29.6089 328.108C29.2115 328.448 28.8089 328.774 28.3982 329.097C28.3009 329.176 28.1862 329.252 28.0582 329.324C28.1835 329.252 28.3009 329.176 28.4035 329.094C28.8129 328.774 29.2142 328.448 29.6089 328.108V328.108ZM23.1902 325.646C22.9115 326.904 23.2662 328.898 24.1702 329.686C24.4022 329.888 24.8222 329.994 25.3756 329.998C24.7462 329.994 24.4182 329.85 24.2782 329.766C23.2996 328.92 22.9209 326.898 23.1902 325.646V325.646ZM25.3915 331.613C24.4262 331.613 23.6595 331.377 23.1129 330.91C21.5662 329.556 21.1262 326.561 21.7609 324.781C22.9462 321.436 24.3449 318.884 26.0435 316.985C29.3969 313.213 32.9755 309.557 36.1302 306.334C37.7795 304.646 39.4222 302.965 41.0435 301.269C46.6262 295.434 52.2035 289.594 57.7795 283.752L58.6849 282.804C70.1715 270.773 81.6595 258.742 93.1995 246.761C97.6649 242.129 101.732 238.365 105.633 235.248C110.905 231.022 115.373 230.633 120.162 233.981C120.362 234.122 120.896 234.282 121.748 234.282C123.101 234.282 124.633 233.884 125.39 233.34C133.389 227.584 142.849 224.906 155.164 224.906C181.526 224.932 234.524 224.937 247.55 224.937L241.501 214.434C235.09 203.309 228.688 192.18 222.292 181.046C221.424 179.54 220.55 177.785 219.624 175.929C215.766 168.189 210.978 158.472 202.916 159.082C198.845 159.365 195.556 162.424 192.537 165.53L192.026 166.062C190.645 167.513 189.08 169.157 186.889 169.157C185.361 169.157 183.844 168.357 182.256 166.706C182.273 166.744 182.056 166.661 181.514 166.661C180.202 166.661 178.212 167.154 176.984 167.778C168.905 171.91 163.606 179.073 158.449 186.674L157.793 187.696C156.068 190.452 153.176 195.07 149.558 195.07C149.032 195.07 148.52 194.976 148.033 194.785C146.821 194.314 145.997 193.364 145.712 192.108C145.162 189.673 146.765 186.573 148.02 185.241C151.99 181.025 155.937 176.778 159.886 172.533L160.528 171.844C170.886 160.7 181.536 149.241 192.472 138.418C196.942 133.988 202.314 131.644 208.002 131.644C216.57 131.644 224.47 137.041 229.134 146.078L288.256 248.824L285.493 248.848C284.909 248.854 220.138 249.416 176.573 249.416C169.862 249.416 163.636 249.402 158.212 249.372H157.402C140.708 249.372 127.548 252.528 115.99 259.304C114.988 259.893 114.049 260.614 113.141 261.316C112.157 262.065 111.144 262.842 110.02 263.508C108.188 264.6 106.209 265.416 104.298 265.864C102.928 266.194 100.514 265.601 99.6622 264.162C98.7675 262.658 99.5609 260.452 100.106 259.492C100.288 259.164 100.565 258.77 100.872 258.328C101.389 257.6 102.617 255.862 102.477 255.366C102.47 255.361 102.382 255.26 102.078 255.13C101.957 255.081 101.805 255.054 101.63 255.054C100.148 255.054 97.7262 256.812 96.8142 257.474L96.2929 257.852C82.1435 267.89 70.5449 280.87 60.1195 293.4C55.2422 299.261 50.4769 305.39 45.8675 311.321L45.6969 311.538C42.5795 315.553 39.4555 319.568 36.2822 323.54C34.2289 326.098 31.9142 328.393 29.4022 330.361C28.3182 331.222 26.5635 331.613 25.3915 331.613" fill="#4AB8E3"/>
<path fill-rule="evenodd" clip-rule="evenodd" d="M72.3565 289.337C72.1645 289.261 71.9965 289.237 71.8205 289.193C71.7471 287.508 69.1991 286.429 68.0578 288.253C66.8685 290.157 66.3045 292.284 65.3671 294.308C64.8618 295.393 65.1885 297.014 66.5751 297.273C70.6498 298.036 73.6365 295.349 73.8418 291.286C73.8898 290.314 73.1698 289.672 72.3565 289.337Z" fill="#4AB8E3"/>
</svg>
